{
.appName = FontCreator;
.appVersion = "15.0.0.2992";
.formatVersion = 3;
axes = (
{
name = Weight;
tag = wght;
},
{
name = "Dots Style";
tag = dots;
}
);
customParameters = (
{
name = fsType;
value = (
);
},
{
name = "Use Typo Metrics";
value = 1;
},
{
name = "Variable Font Origin";
value = m007;
}
);
date = "2024-04-26 18:30:00";
familyName = "Arad-NE-VF";
featurePrefixes = (
{
automatic = 1;
code = "languagesystem DFLT dflt;
languagesystem arab dflt; # Arabic default
languagesystem arab FAR;  # Arabic Persian
languagesystem arab KUR;  # Arabic Kurdish
languagesystem arab URD;  # Arabic Urdu
";
name = Languagesystems;
},
{
code = "
#
# Global glyph class definitions
#

@group-dotless-3 = [peh-arab.init peh-arab.medi farsiyeh-arab.init farsiyeh-arab.medi uE028 uE029];
@group-dotless-4 = [peh-arab.init.1 peh-arab.medi.1 farsiyeh-arab.init.1 farsiyeh-arab.medi.1 uE046 uE062];
@group-yeh-2 = [farsiyeh-arab.fina yehhamzaabove-arab.fina farsiyeh-arab.fina.1 yehhamzaabove-arab.fina.1];
@CG_3 = [uighurkazakhkirghizalefmaksura-arab.init uighurkazakhkirghizalefmaksura-arab.medi teh-arab.init teh-arab.medi teh-arab.init.1 teh-arab.medi.1 theh-arab.init theh-arab.medi theh-arab.init.1 theh-arab.medi.1 hah-arab.init hah-arab.medi khah-arab.init khah-arab.medi seen-arab.init seen-arab.medi sheen-arab.init sheen-arab.medi sad-arab.init sad-arab.medi dad-arab.init dad-arab.medi tah-arab.init tah-arab.medi zah-arab.init zah-arab.medi ain-arab.init ain-arab.medi ghain-arab.init ghain-arab.medi dotlessfeh-arab.init dotlessfeh-arab.medi feh-arab.init feh-arab.medi veh-arab.init veh-arab.medi qaf-arab.init qaf-arab.medi keheh-arab.init keheh-arab.medi kaf-arab.init kaf-arab.medi gaf-arab.init gaf-arab.medi lam-arab.init lam-arab.medi meem-arab.init meem-arab.medi noon-arab.init noon-arab.medi heh-arab.init hehdoachashmee-arab.init hehdoachashmee-arab.medi yehhamzaabove-arab.init yehhamzaabove-arab.medi tteh-arab.init tteh-arab.medi];

glyphs = (
{
glyphname = .notdef;
layers = (
{
anchors = (
{
name = "top-arab";
pos = (650,1400);
},
{
name = "bottom-arab";
pos = (650,0);
}
);
layerId = m007;
shapes = (
{
closed = 1;
nodes = (
(1150,0,l),
(1150,1400,l),
(150,1400,l),
(150,0,l)
);
},
{
closed = 1;
nodes = (
(250,1300,l),
(1050,1300,l),
(1050,100,l),
(250,100,l)
);
}
);
width = 1300;
},
{
anchors = (
{
name = "top-arab";
pos = (650,1400);
},
{
name = "bottom-arab";
pos = (650,0);
}
);
layerId = m001;
shapes = (
{
closed = 1;
nodes = (
(1200,0,l),
(1200,1400,l),
(100,1400,l),
(100,0,l)
);
},
{
closed = 1;
nodes = (
(350,1150,l),
(950,1150,l),
(950,250,l),
(350,250,l)
);
}
);
width = 1300;
}
);
},
{
glyphname = exclam;
layers = (
{
layerId = m007;
shapes = (
{
closed = 1;
nodes = (
(190.824,309.136,l),
(201.944,1100.88,l),
(201.944,1432.256,l),
(139.672,1432.256,l),
(139.672,1100.88,l),
(153.016,309.136,l)
);
},
{
closed = 1;
nodes = (
(206.392,0,l),
(206.392,71.168,l),
(133,71.168,l),
(133,0,l)
);
}
);
width = 340;
},
{
layerId = m001;
shapes = (
{
closed = 1;
nodes = (
(448.501,400.876,l),
(462.679,1053.481,l),
(462.679,1432.256,l),
(73.201,1432.256,l),
(73.201,1053.481,l),
(88.074,400.876,l)
);
},
{
closed = 1;
nodes = (
(470.185,0,l),
(470.185,277.583,l),
(65,277.583,l),
(65,0,l)
);
}
);
width = 534;
}
);
unicode = 33;
},
{
glyphname = question;
layers = (
{
layerId = m007;
shapes = (
{
closed = 1;
nodes = (
(475.496,313.584,l),
(475.496,364.736,l),
(475.496,480.384,o),
(638.041,659.356,o),
(717.912,720.576,qs),
(831.336,811.76,o),
(942.536,960.768,o),
(942.536,1074.192,qs),
(942.536,1258.784,o),
(722.36,1454.496,o),
(502.184,1454.496,qs),
(270.888,1454.496,o),
(133,1378.88,q),
(133,1321.056,l),
(293.128,1398.896,o),
(497.736,1398.896,qs),
(882.488,1398.896,o),
(882.488,1074.192,qs),
(882.488,965.216,o),
(777.96,831.776,o),
(664.536,745.04,qs),
(554.795,661.433,o),
(413.224,489.28,o),
(413.224,369.184,qs),
(413.224,313.584,l)
);
},
{
closed = 1;
nodes = (
(482.168,0,l),
(482.168,71.168,l),
(408.776,71.168,l),
(408.776,0,l)
);
}
);
width = 1076;
},
{
layerId = m001;
shapes = (
{
closed = 1;
nodes = (
(653.665,402.266,l),
(653.665,430.483,l),
(653.665,492.616,o),
(770.207,607.794,o),
(859.385,676.235,qs),
(966.693,762.832,o),
(1051.9,921.014,o),
(1051.9,1037.496,qs),
(1051.9,1235.849,o),
(775.151,1454.496,o),
(513.692,1454.496,qs),
(248.758,1454.496,o),
(65,1360.532,q),
(65,1087.119,l),
(190.726,1171.075,o),
(403.743,1172.604,qs),
(655.472,1172.604,o),
(655.472,993.155,qs),
(655.472,920.875,o),
(573.879,833.305,o),
(486.448,761.859,qs),
(409.342,699.036,o),
(295.914,568.788,o),
(297.825,442.576,qs),
(297.825,402.266,l)
);
},
{
closed = 1;
nodes = (
(678.685,0,l),
(678.685,277.583,l),
(273.5,277.583,l),
(273.5,0,l)
);
}
);
width = 1116;
}
);
unicode = 63;
},
{
glyphname = quotedbl;
layers = (
{
layerId = m007;
shapes = (
{
closed = 1;
nodes = (
(451.032,1091.984,l),
(475.496,1432.256,l),
(402.104,1432.256,l),
(402.104,1091.984,l)
);
},
{
closed = 1;
nodes = (
(181.928,1091.984,l),
(206.392,1432.256,l),
(133,1432.256,l),
(133,1091.984,l)
);
}
);
width = 609;
},
{
layerId = m001;
shapes = (
{
closed = 1;
nodes = (
(780.572,945.2,l),
(812.681,1432.256,l),
(493.12,1432.256,l),
(493.12,945.2,l)
);
},
{
closed = 1;
nodes = (
(350.923,945.2,l),
(384.561,1432.256,l),
(65,1432.256,l),
(65,945.2,l)
);
}
);
width = 877;
}
);
unicode = 34;
},
{
glyphname = quotedblbase;
layers = (
{
layerId = m007;
shapes = (
{
closed = 1;
nodes = (
(439.912,-280.224,l),
(560.008,73.392,l),
(486.616,73.392,l),
(390.984,-280.224,l)
);
},
{
closed = 1;
nodes = (
(181.928,-280.224,l),
(302.024,73.392,l),
(228.632,73.392,l),
(133,-280.224,l)
);
}
);
width = 694;
},
{
layerId = m001;
shapes = (
{
closed = 1;
nodes = (
(708.292,-231.296,l),
(877.316,266.046,l),
(580.69,266.046,l),
(446.833,-231.296,l)
);
},
{
closed = 1;
nodes = (
(326.459,-231.296,l),
(495.483,266.046,l),
(198.857,266.046,l),
(65,-231.296,l)
);
}
);
width = 942;
}
);
unicode = 8222;
},
{
glyphname = quotedblleft;
layers = (
{
layerId = m007;
shapes = (
{
closed = 1;
nodes = (
(464.376,1100.88,l),
(560.008,1454.496,l),
(511.08,1454.496,l),
(390.984,1100.88,l)
);
},
{
closed = 1;
nodes = (
(206.392,1100.88,l),
(302.024,1454.496,l),
(253.096,1454.496,l),
(133,1100.88,l)
);
}
);
width = 694;
},
{
layerId = m001;
shapes = (
{
closed = 1;
nodes = (
(743.459,957.154,l),
(877.316,1454.496,l),
(615.857,1454.496,l),
(446.833,957.154,l)
);
},
{
closed = 1;
nodes = (
(361.626,957.154,l),
(495.483,1454.496,l),
(234.024,1454.496,l),
(65,957.154,l)
);
}
);
width = 942;
}
);
unicode = 8220;
},
{
glyphname = quotedblright;
layers = (
{
layerId = m007;
shapes = (
{
closed = 1;
nodes = (
(439.912,1100.88,l),
(560.008,1454.496,l),
(486.616,1454.496,l),
(390.984,1100.88,l)
);
},
{
closed = 1;
nodes = (
(181.928,1100.88,l),
(302.024,1454.496,l),
(228.632,1454.496,l),
(133,1100.88,l)
);
}
);
width = 694;
},
{
layerId = m001;
shapes = (
{
closed = 1;
nodes = (
(708.292,957.154,l),
(877.316,1454.496,l),
(580.69,1454.496,l),
(446.833,957.154,l)
);
},
{
closed = 1;
nodes = (
(326.459,957.154,l),
(495.483,1454.496,l),
(198.857,1454.496,l),
(65,957.154,l)
);
}
);
width = 942;
}
);
unicode = 8221;
},
{
glyphname = quoteleft;
layers = (
{
layerId = m007;
shapes = (
{
closed = 1;
nodes = (
(206.392,1100.88,l),
(302.024,1454.496,l),
(253.096,1454.496,l),
(133,1100.88,l)
);
}
);
width = 436;
},
{
layerId = m001;
shapes = (
{
closed = 1;
nodes = (
(392.206,957.154,l),
(526.063,1454.496,l),
(234.024,1454.496,l),
(65,957.154,l)
);
}
);
width = 590;
}
);
unicode = 8216;
},
{
glyphname = quoteright;
layers = (
{
layerId = m007;
shapes = (
{
closed = 1;
nodes = (
(181.928,1100.88,l),
(302.024,1454.496,l),
(228.632,1454.496,l),
(133,1100.88,l)
);
}
);
width = 436;
},
{
layerId = m001;
shapes = (
{
closed = 1;
nodes = (
(357.039,957.154,l),
(526.063,1454.496,l),
(198.857,1454.496,l),
(65,957.154,l)
);
}
);
width = 590;
}
);
unicode = 8217;
},
{
glyphname = quotesinglbase;
layers = (
{
layerId = m007;
shapes = (
{
closed = 1;
nodes = (
(181.928,-280.224,l),
(302.024,73.392,l),
(228.632,73.392,l),
(133,-280.224,l)
);
}
);
width = 436;
},
{
layerId = m001;
shapes = (
{
closed = 1;
nodes = (
(357.039,-423.95,l),
(526.063,73.392,l),
(198.857,73.392,l),
(65,-423.95,l)
);
}
);
width = 590;
}
);
unicode = 8218;
},
{
glyphname = numbersign;
layers = (
{
layerId = m007;
shapes = (
{
closed = 1;
nodes = (
(286.456,0,l),
(422.12,433.68,l),
(929.192,433.68,l),
(793.528,0,l),
(853.576,0,l),
(989.24,433.68,l),
(1287.256,433.68,l),
(1287.256,489.28,l),
(1007.032,489.28,l),
(1149.368,940.752,l),
(1398.456,940.752,l),
(1398.456,998.576,l),
(1167.16,998.576,l),
(1305.048,1432.256,l),
(1242.776,1432.256,l),
(1104.888,998.576,l),
(600.04,998.576,l),
(737.928,1432.256,l),
(675.656,1432.256,l),
(537.768,998.576,l),
(244.2,998.576,l),
(244.2,940.752,l),
(519.976,940.752,l),
(379.864,489.28,l),
(133,489.28,l),
(133,433.68,l),
(362.072,433.68,l),
(226.408,0,l)
);
},
{
closed = 1;
nodes = (
(582.248,940.752,l),
(1087.096,940.752,l),
(946.984,489.28,l),
(439.912,489.28,l)
);
}
);
width = 1532;
},
{
layerId = m001;
shapes = (
{
closed = 1;
nodes = (
(437.103,0,l),
(545.245,343.469,l),
(813.793,343.469,l),
(707.18,0,l),
(1039.39,0,l),
(1146.003,343.469,l),
(1427.2,343.469,l),
(1427.2,594.781,l),
(1224.955,594.781,l),
(1303.073,839.838,l),
(1518.523,839.838,l),
(1518.523,1093.374,l),
(1382.025,1093.374,l),
(1489.333,1432.256,l),
(1156.428,1432.256,l),
(1049.12,1093.374,l),
(781.267,1093.374,l),
(888.575,1432.256,l),
(554.141,1432.256,l),
(446.833,1093.374,l),
(157.852,1093.374,l),
(157.852,839.838,l),
(367.881,839.838,l),
(290.458,594.781,l),
(65,594.781,l),
(65,343.469,l),
(211.506,343.469,l),
(104.893,0,l)
);
},
{
closed = 1;
nodes = (
(700.786,839.838,l),
(970.168,839.838,l),
(892.745,594.781,l),
(624.197,594.781,l)
);
}
);
width = 1583;
}
);
unicode = 35;
},
{
glyphname = dollar;
layers = (
{
layerId = m007;
shapes = (
{
closed = 1;
nodes = (
(715.982,678.198,o),
(1034.594,531.34,o),
(1031.499,355.84,qs),
(1027.628,34.522,o),
(603.057,31.136,qs),
(374.89,28.868,o),
(173.035,91.184,q),
(173.035,35.584,l),
(335.023,-22.51,o),
(575.579,-22.24,q),
(575.579,-191.264,l),
(637.851,-191.264,l),
(637.851,-20.016,l),
(1091.547,4.448,o),
(1091.547,355.84,qs),
(1091.547,460.368,o),
(1004.811,607.152,o),
(789.047,711.683,o),
(575.579,762.832,qs),
(359.851,813.984,o),
(193.051,947.424,o),
(193.051,1078.64,qs),
(194.705,1387.829,o),
(609.688,1397.89,qs),
(838.977,1403.721,o),
(1002.587,1347.744,q),
(1002.587,1403.344,l),
(886.939,1445.6,o),
(637.851,1454.496,q),
(637.851,1623.52,l),
(575.579,1623.52,l),
(575.579,1452.272,l),
(131.891,1418.912,o),
(133.003,1078.64,qs),
(133.003,927.408,o),
(330.939,760.608,o),
(575.579,707.232,qs)
);
}
);
width = 1225;
},
{
layerId = m001;
shapes = (
{
closed = 1;
nodes = (
(578.974,563.607,o),
(776.396,487.134,o),
(775.429,404.768,qs),
(774.22,257.722,o),
(543.685,258.957,qs),
(312.602,263.6,o),
(86.684,358.759,q),
(86.684,64.635,l),
(236.691,-1.683,o),
(463.235,-16.124,q),
(463.235,-191.264,l),
(803.785,-191.264,l),
(803.785,5.977,l),
(1173.386,87.779,o),
(1174.915,406.297,qs),
(1174.915,521.528,o),
(1106.527,694.305,o),
(916.781,820.24,o),
(727.752,869.862,qs),
(583.887,907.253,o),
(461.428,971.888,o),
(461.428,1032.77,qs),
(461.181,1165.323,o),
(709.361,1170.761,qs),
(875.047,1174.876,o),
(1093.6,1095.459,q),
(1093.6,1391.112,l),
(984.833,1426.488,o),
(803.785,1442.264,q),
(803.785,1623.52,l),
(463.235,1623.52,l),
(463.235,1438.511,l),
(64.653,1374.571,o),
(65,1029.712,qs),
(65,867.777,o),
(228.916,670.015,o),
(455.59,601.731,qs)
);
}
);
width = 1239;
}
);
unicode = 36;
},
{
glyphname = percent;
layers = (
{
layerId = m007;
shapes = (
{
closed = 1;
nodes = (
(564.456,836.224,o),
(711.24,998.576,o),
(711.24,1132.016,qs),
(711.24,1285.472,o),
(566.68,1454.496,o),
(422.12,1454.496,qs),
(277.56,1454.496,o),
(133,1285.472,o),
(133,1132.016,qs),
(133,998.576,o),
(279.784,836.224,o),
(422.12,836.224,qs)
);
},
{
closed = 1;
nodes = (
(395.432,0,l),
(1162.712,1432.256,l),
(1102.664,1432.256,l),
(335.384,0,l)
);
},
{
closed = 1;
nodes = (
(193.048,891.824,o),
(193.048,1132.016,qs),
(193.048,1269.904,o),
(304.248,1398.896,o),
(422.12,1398.896,qs),
(539.992,1398.896,o),
(651.192,1269.904,o),
(651.192,1132.016,qs),
(651.192,1014.144,o),
(542.216,891.824,o),
(422.12,891.824,qs)
);
},
{
closed = 1;
nodes = (
(1224.984,-22.24,o),
(1371.768,140.112,o),
(1371.768,273.552,qs),
(1371.768,427.008,o),
(1227.208,596.032,o),
(1082.648,596.032,qs),
(938.088,596.032,o),
(793.528,427.008,o),
(793.528,273.552,qs),
(793.528,140.112,o),
(940.312,-22.24,o),
(1082.648,-22.24,qs)
);
},
{
closed = 1;
nodes = (
(853.576,33.36,o),
(853.576,273.552,qs),
(853.576,411.44,o),
(964.776,540.432,o),
(1082.648,540.432,qs),
(1200.52,540.432,o),
(1311.72,411.44,o),
(1311.72,273.552,qs),
(1311.72,155.68,o),
(1202.744,33.36,o),
(1082.648,33.36,qs)
);
}
);
width = 1506;
},
{
layerId = m001;
shapes = (
{
closed = 1;
nodes = (
(559.145,772.006,o),
(734.98,952.706,o),
(734.98,1098.378,qs),
(734.98,1265.595,o),
(561.369,1454.496,o),
(399.99,1454.496,qs),
(238.611,1454.496,o),
(65,1265.595,o),
(65,1098.378,qs),
(65,952.706,o),
(240.835,772.006,o),
(399.99,772.006,qs)
);
},
{
closed = 1;
nodes = (
(660.754,0,l),
(1411.215,1432.256,l),
(1043.838,1432.256,l),
(293.377,0,l)
);
},
{
closed = 1;
nodes = (
(270.303,969.803,o),
(270.303,1106.023,qs),
(270.303,1182.751,o),
(335.633,1256.699,o),
(399.99,1256.699,qs),
(464.347,1256.699,o),
(529.677,1182.751,o),
(529.677,1106.023,qs),
(529.677,1038.608,o),
(465.042,969.803,o),
(399.99,969.803,qs)
);
},
{
closed = 1;
nodes = (
(1465.842,-22.24,o),
(1641.677,158.46,o),
(1641.677,304.132,qs),
(1641.677,471.349,o),
(1468.066,660.25,o),
(1306.687,660.25,qs),
(1145.308,660.25,o),
(971.697,471.349,o),
(971.697,304.132,qs),
(971.697,158.46,o),
(1147.532,-22.24,o),
(1306.687,-22.24,qs)
);
},
{
closed = 1;
nodes = (
(1177,175.557,o),
(1177,311.777,qs),
(1177,388.505,o),
(1242.33,462.453,o),
(1306.687,462.453,qs),
(1371.044,462.453,o),
(1436.374,388.505,o),
(1436.374,311.777,qs),
(1436.374,244.362,o),
(1371.739,175.557,o),
(1306.687,175.557,qs)
);
}
);
width = 1706;
}
);
unicode = 37;
},
{
glyphname = ampersand;
layers = (
{
layerId = m007;
shapes = (
{
closed = 1;
nodes = (
(753.57,-22.24,o),
(1009.33,95.632,o),
(1084.946,202.384,q),
(1285.106,0,l),
(1322.914,33.36,l),
(1111.634,244.64,l),
(1178.354,364.736,o),
(1178.354,522.64,qs),
(1178.354,573.792,l),
(1118.306,573.792,l),
(1118.306,515.968,l),
(1118.306,391.424,o),
(1071.602,286.896,q),
(595.666,771.728,l),
(744.674,874.032,o),
(878.114,1040.832,o),
(878.114,1158.704,qs),
(878.114,1294.368,o),
(724.658,1454.496,o),
(580.098,1454.496,qs),
(276.522,1455.608,o),
(270.962,1158.704,qs),
(270.962,1065.296,o),
(410.577,881.868,o),
(511.154,785.072,q),
(141.402,604.471,o),
(135.298,340.272,qs),
(123.519,-14.572,o),
(577.874,-22.24,qs)
);
},
{
closed = 1;
nodes = (
(818.066,1038.608,o),
(684.626,889.6,o),
(557.858,811.76,q),
(455.958,909.359,o),
(331.01,1074.192,o),
(331.01,1158.704,qs),
(331.01,1265.456,o),
(455.554,1398.896,o),
(580.098,1398.896,qs),
(702.418,1398.896,o),
(818.066,1269.904,o),
(818.066,1158.704,qs)
);
},
{
closed = 1;
nodes = (
(193.834,42.595,o),
(193.122,318.032,qs),
(189.786,551.552,o),
(551.186,745.04,q),
(1044.914,242.416,l),
(911.474,33.36,o),
(577.874,33.36,qs)
);
}
);
width = 1434;
},
{
layerId = m001;
shapes = (
{
closed = 1;
nodes = (
(764.474,-22.24,o),
(1000.357,48.233,o),
(1075.973,115.231,q),
(1225.676,-36.696,l),
(1463.783,180.144,l),
(1344.243,302.742,l),
(1443.072,428.19,o),
(1441.543,614.38,qs),
(1441.543,665.532,l),
(1153.674,665.532,l),
(1153.674,626.056,l),
(1154.439,553.498,o),
(1128.376,511.659,q),
(884.848,761.025,l),
(984.928,838.865,o),
(1077.085,991.904,o),
(1077.085,1097.544,qs),
(1077.085,1268.375,o),
(829.213,1459.465,o),
(641.459,1454.496,qs),
(210.976,1444.905,o),
(210.003,1097.544,qs),
(210.003,1011.781,o),
(291.858,873.423,o),
(361.513,804.949,q),
(69.366,657.536,o),
(65.165,383.084,qs),
(55.368,-22.137,o),
(627.003,-22.24,qs)
);
},
{
closed = 1;
nodes = (
(766.281,1023.318,o),
(700.117,947.702,o),
(637.567,909.616,q),
(584.317,953.877,o),
(520.807,1034.438,o),
(520.807,1080.725,qs),
(520.807,1132.433,o),
(582.662,1200.126,o),
(646.046,1200.126,qs),
(705.677,1200.126,o),
(766.281,1135.352,o),
(766.281,1080.725,qs)
);
},
{
closed = 1;
nodes = (
(437.421,246.483,o),
(437.963,385.308,qs),
(436.921,499.566,o),
(595.728,572.263,q),
(840.229,323.453,l),
(771.007,242.833,o),
(627.003,242.833,qs)
);
}
);
width = 1529;
}
);
unicode = 38;
},
{
glyphname = quotesingle;
layers = (
{
layerId = m007;
shapes = (
{
closed = 1;
nodes = (
(181.928,1091.984,l),
(206.392,1432.256,l),
(133,1432.256,l),
(133,1091.984,l)
);
}
);
width = 340;
},
{
layerId = m001;
shapes = (
{
closed = 1;
nodes = (
(350.923,945.2,l),
(384.561,1432.256,l),
(65,1432.256,l),
(65,945.2,l)
);
}
);
width = 449;
}
);
unicode = 39;
},
{
glyphname = parenleft;
layers = (
{
layerId = m007;
shapes = (
{
closed = 1;
nodes = (
(519.976,-160.128,l),
(193.048,111.2,o),
(193.048,673.872,qs),
(193.048,1243.216,o),
(519.976,1507.872,q),
(446.584,1507.872,l),
(277.56,1376.656,o),
(133,916.288,o),
(133,673.872,qs),
(133,431.456,o),
(277.56,-28.912,o),
(446.584,-160.128,q)
);
}
);
width = 609;
},
{
layerId = m001;
shapes = (
{
closed = 1;
nodes = (
(791.414,-160.128,l),
(461.428,141.78,o),
(461.428,673.872,qs),
(461.428,1212.636,o),
(791.414,1507.872,q),
(349.533,1507.872,l),
(206.502,1367.482,o),
(65,931.578,o),
(65,673.872,qs),
(65,414.637,o),
(206.502,-16.68,o),
(349.533,-160.128,q)
);
}
);
width = 811;
}
);
unicode = 40;
},
{
glyphname = parenright;
layers = (
{
layerId = m007;
shapes = (
{
closed = 1;
nodes = (
(162.392,-160.128,l),
(331.416,-28.912,o),
(475.976,431.456,o),
(475.976,673.872,qs),
(475.976,916.288,o),
(331.416,1376.656,o),
(162.392,1507.872,q),
(89,1507.872,l),
(415.928,1243.216,o),
(415.928,673.872,qs),
(415.928,111.2,o),
(89,-160.128,q)
);
}
);
width = 609;
},
{
layerId = m001;
shapes = (
{
closed = 1;
nodes = (
(461.881,-160.128,l),
(604.912,-16.68,o),
(746.414,414.637,o),
(746.414,673.872,qs),
(746.414,931.578,o),
(604.912,1367.482,o),
(461.881,1507.872,q),
(20,1507.872,l),
(349.986,1212.636,o),
(349.986,673.872,qs),
(349.986,141.78,o),
(20,-160.128,q)
);
}
);
width = 811;
}
);
unicode = 41;
},
{
glyphname = asterisk;
layers = (
{
layerId = m007;
shapes = (
{
closed = 1;
nodes = (
(459.928,1067.52,l),
(673.432,796.192,l),
(720.136,834,l),
(497.736,1089.76,l),
(786.856,1207.632,l),
(762.392,1261.008,l),
(484.392,1134.24,l),
(491.064,1432.256,l),
(428.792,1432.256,l),
(435.464,1134.24,l),
(157.464,1261.008,l),
(133,1207.632,l),
(419.896,1091.984,l),
(199.72,834,l),
(246.424,796.192,l)
);
}
);
width = 921;
},
{
layerId = m001;
shapes = (
{
closed = 1;
nodes = (
(494.371,865.692,l),
(648.244,655.524,l),
(869.254,817.181,l),
(691.195,998.02,l),
(923.742,1094.486,l),
(809.067,1328.284,l),
(625.865,1229.038,l),
(638.653,1432.256,l),
(350.089,1432.256,l),
(362.877,1229.038,l),
(179.675,1328.284,l),
(65,1094.486,l),
(296.852,998.715,l),
(119.488,817.181,l),
(340.498,655.524,l)
);
}
);
width = 988;
}
);
unicode = 42;
},
{
glyphname = plus;
layers = (
{
layerId = m007;
shapes = (
{
closed = 1;
nodes = (
(571.128,157.904,l),
(571.128,520.416,l),
(949.208,520.416,l),
(949.208,576.016,l),
(571.128,576.016,l),
(571.128,954.096,l),
(508.856,954.096,l),
(508.856,576.016,l),
(133,576.016,l),
(133,520.416,l),
(508.856,520.416,l),
(508.856,157.904,l)
);
}
);
width = 1083;
},
{
layerId = m001;
shapes = (
{
closed = 1;
nodes = (
(666.731,202.245,l),
(666.731,476.075,l),
(968.361,476.075,l),
(968.361,774.786,l),
(666.731,774.786,l),
(666.731,1053.481,l),
(365.935,1053.481,l),
(365.935,774.786,l),
(65,774.786,l),
(65,476.075,l),
(365.935,476.075,l),
(365.935,202.245,l)
);
}
);
width = 1033;
}
);
unicode = 43;
},
{
glyphname = comma;
layers = (
{
layerId = m007;
shapes = (
{
closed = 1;
nodes = (
(181.928,-266.88,l),
(259.768,73.392,l),
(186.376,73.392,l),
(133,-266.88,l)
);
}
);
width = 394;
},
{
layerId = m001;
shapes = (
{
closed = 1;
nodes = (
(341.749,-266.88,l),
(465.459,220.176,l),
(138.253,220.176,l),
(65,-266.88,l)
);
}
);
width = 530;
}
);
unicode = 44;
},
{
glyphname = hyphenminus;
layers = (
{
layerId = m007;
shapes = (
{
closed = 1;
nodes = (
(949.208,520.416,l),
(949.208,576.016,l),
(133,576.016,l),
(133,520.416,l)
);
}
);
width = 1083;
},
{
layerId = m001;
shapes = (
{
closed = 1;
nodes = (
(937.781,476.075,l),
(937.781,774.786,l),
(65,774.786,l),
(65,476.075,l)
);
}
);
width = 1002;
}
);
unicode = 45;
},
{
glyphname = period;
layers = (
{
layerId = m007;
shapes = (
{
closed = 1;
nodes = (
(206.392,0,l),
(206.392,73.392,l),
(133,73.392,l),
(133,0,l)
);
}
);
width = 340;
},
{
layerId = m001;
shapes = (
{
closed = 1;
nodes = (
(372.329,0,l),
(372.329,281.336,l),
(65,281.336,l),
(65,0,l)
);
}
);
width = 437;
}
);
unicode = 46;
},
{
glyphname = slash;
layers = (
{
layerId = m007;
shapes = (
{
closed = 1;
nodes = (
(193.048,0,l),
(713.464,1472.288,l),
(653.416,1472.288,l),
(133,0,l)
);
}
);
width = 847;
},
{
layerId = m001;
shapes = (
{
closed = 1;
nodes = (
(462.957,0,l),
(983.373,1472.288,l),
(585.416,1472.288,l),
(65,0,l)
);
}
);
width = 1048;
}
);
unicode = 47;
},
{
glyphname = zero;
layers = (
{
layerId = m007;
shapes = (
{
closed = 1;
nodes = (
(989.24,-22.24,o),
(1271.688,355.84,o),
(1271.688,682.768,qs),
(1271.688,1063.072,o),
(1011.48,1454.496,o),
(702.344,1454.496,qs),
(493.288,1454.496,o),
(241.976,1272.128,o),
(133,931.856,o),
(133,682.768,qs),
(133,355.84,o),
(415.448,-22.24,o),
(702.344,-22.24,qs)
);
},
{
closed = 1;
nodes = (
(439.912,33.36,o),
(193.048,389.2,o),
(193.048,682.768,qs),
(193.048,858.464,o),
(244.2,1120.896,o),
(362.072,1303.264,o),
(560.008,1398.896,o),
(702.344,1398.896,qs),
(844.68,1398.896,o),
(1042.616,1303.264,o),
(1160.488,1120.896,o),
(1211.64,858.464,o),
(1211.64,682.768,qs),
(1211.64,389.2,o),
(964.776,33.36,o),
(702.344,33.36,qs)
);
}
);
width = 1406;
},
{
layerId = m001;
shapes = (
{
closed = 1;
nodes = (
(1084.843,-22.24,o),
(1414.69,349.724,o),
(1414.69,705.703,qs),
(1414.69,1081.42,o),
(1091.793,1456.025,o),
(739.845,1454.496,qs),
(501.738,1454.496,o),
(204.556,1285.889,o),
(65,954.791,o),
(65,705.703,qs),
(65,349.724,o),
(394.847,-22.24,o),
(739.845,-22.24,qs)
);
},
{
closed = 1;
nodes = (
(593.617,310.109,o),
(461.428,513.049,o),
(461.428,705.703,qs),
(461.428,809.536,o),
(489.645,963.409,o),
(555.531,1067.798,o),
(663.256,1122.147,o),
(739.845,1122.147,qs),
(816.434,1122.147,o),
(924.159,1067.798,o),
(990.045,963.409,o),
(1018.262,809.536,o),
(1018.262,705.703,qs),
(1018.262,513.049,o),
(886.073,310.109,o),
(739.845,310.109,qs)
);
}
);
width = 1479;
}
);
unicode = 48;
},
{
glyphname = one;
layers = (
{
layerId = m007;
shapes = (
{
closed = 1;
nodes = (
(417.672,0,l),
(417.672,1454.496,l),
(133,1407.792,l),
(133,1349.968,l),
(355.4,1392.224,l),
(355.4,0,l)
);
}
);
width = 596;
},
{
layerId = m001;
shapes = (
{
closed = 1;
nodes = (
(690.639,0,l),
(690.639,1454.496,l),
(65,1363.451,l),
(65,1038.052,l),
(301.161,1075.721,l),
(301.161,0,l)
);
}
);
width = 799;
}
);
unicode = 49;
},
{
glyphname = two;
layers = (
{
layerId = m007;
shapes = (
{
closed = 1;
nodes = (
(960.328,0,l),
(960.328,55.6,l),
(199.72,55.6,l),
(239.752,166.8,o),
(386.536,342.496,o),
(502.184,447.024,q),
(519.976,464.816,o),
(557.784,495.952,qs),
(591.144,524.864,o),
(606.712,540.432,q),
(762.392,671.648,o),
(944.76,920.736,o),
(944.76,1078.64,qs),
(944.76,1258.784,o),
(715.688,1454.496,o),
(504.408,1454.496,qs),
(422.12,1454.496,o),
(248.648,1425.584,o),
(190.824,1401.12,q),
(190.824,1343.296,l),
(344.28,1398.896,o),
(513.304,1398.896,qs),
(697.896,1398.896,o),
(884.712,1223.2,o),
(884.712,1078.64,qs),
(884.712,958.544,o),
(780.184,771.728,o),
(648.968,651.632,qs),
(606.712,611.6,o),
(548.888,560.448,qs),
(386.536,420.336,o),
(179.704,189.04,o),
(133,53.376,q),
(133,0,l)
);
}
);
width = 1094;
},
{
layerId = m001;
shapes = (
{
closed = 1;
nodes = (
(1095.685,0,l),
(1095.685,298.711,l),
(585.833,298.711,l),
(610.575,350.28,o),
(700.786,446.468,o),
(773.622,511.242,q),
(789.885,527.505,o),
(806.287,538.764,q),
(824.357,553.915,o),
(833.809,564.896,q),
(965.025,679.293,o),
(1083.175,874.866,o),
(1083.175,1015.951,qs),
(1083.175,1222.088,o),
(817.407,1454.496,o),
(560.257,1454.496,qs),
(436.686,1454.496,o),
(198.996,1411.823,o),
(112.121,1375.127,q),
(112.121,1049.728,l),
(288.512,1122.147,o),
(465.181,1122.147,qs),
(574.852,1122.147,o),
(686.747,1030.546,o),
(686.747,950.204,qs),
(686.747,872.92,o),
(579.161,730.445,o),
(476.996,643.987,qs),
(443.914,614.658,o),
(419.728,592.557,qs),
(295.601,484.554,o),
(122.407,293.012,o),
(65,180.283,q),
(65,0,l)
);
}
);
width = 1160;
}
);
unicode = 50;
},
{
glyphname = three;
layers = (
{
layerId = m007;
shapes = (
{
closed = 1;
nodes = (
(715.688,-22.24,o),
(973.672,182.368,o),
(973.672,380.304,qs),
(973.672,527.088,o),
(806.872,705.008,o),
(660.088,731.696,q),
(797.976,760.608,o),
(940.312,965.216,o),
(940.312,1089.76,qs),
(940.312,1263.232,o),
(720.136,1454.496,o),
(484.392,1454.496,qs),
(397.656,1454.496,o),
(213.064,1423.36,o),
(159.688,1401.12,q),
(159.688,1343.296,l),
(319.816,1398.896,o),
(486.616,1398.896,qs),
(689,1398.896,o),
(880.264,1243.216,o),
(880.264,1089.76,qs),
(880.264,929.632,o),
(689,756.16,o),
(499.96,756.16,qs),
(342.056,756.16,l),
(330.936,700.56,l),
(517.752,700.56,l),
(706.792,700.56,o),
(913.624,542.656,o),
(913.624,380.304,qs),
(913.624,206.832,o),
(693.448,33.36,o),
(475.496,33.36,qs),
(377.64,33.36,o),
(215.288,60.048,o),
(133,88.96,q),
(133,31.136,l),
(190.824,8.896,o),
(377.64,-22.24,o),
(475.496,-22.24,qs)
);
}
);
width = 1108;
},
{
layerId = m001;
shapes = (
{
closed = 1;
nodes = (
(797.53,-22.24,o),
(1122.79,199.187,o),
(1122.79,417,qs),
(1122.79,534.733,o),
(1020.208,685.131,o),
(929.997,722.522,q),
(1009.783,771.311,o),
(1095.546,942.281,o),
(1095.546,1045.419,qs),
(1095.546,1225.007,o),
(795.862,1454.496,o),
(526.48,1454.496,qs),
(409.164,1454.496,o),
(171.057,1411.128,o),
(87.101,1376.656,q),
(87.101,1080.308,l),
(262.519,1158.843,o),
(453.783,1158.843,qs),
(579.717,1158.843,o),
(699.118,1081.142,o),
(699.118,1008.723,qs),
(699.118,929.632,o),
(602.652,847.9,o),
(499.236,847.9,qs),
(301.578,847.9,l),
(275.168,596.588,l),
(513.97,596.588,l),
(617.386,596.588,o),
(726.362,519.721,o),
(726.362,444.522,qs),
(726.362,353.616,o),
(596.397,273.413,o),
(462.54,273.413,qs),
(364.684,273.413,o),
(154.933,312.333,o),
(65,351.948,q),
(65,54.071,l),
(144.23,24.186,o),
(425.844,-22.24,o),
(523.7,-22.24,qs)
);
}
);
width = 1187;
}
);
unicode = 51;
},
{
glyphname = four;
layers = (
{
layerId = m007;
shapes = (
{
closed = 1;
nodes = (
(931.896,0,l),
(931.896,360.288,l),
(1092.024,360.288,l),
(1092.024,415.888,l),
(931.896,415.888,l),
(931.896,1432.256,l),
(867.4,1432.256,l),
(89,431.456,l),
(89,360.288,l),
(869.624,360.288,l),
(869.624,0,l)
);
},
{
closed = 1;
nodes = (
(869.624,1347.744,l),
(869.624,415.888,l),
(144.6,415.888,l)
);
}
);
width = 1181;
},
{
layerId = m001;
shapes = (
{
closed = 1;
nodes = (
(1070.84,0,l),
(1070.84,277.722,l),
(1203.446,277.722,l),
(1203.446,591.723,l),
(1070.84,591.723,l),
(1070.84,1432.256,l),
(734.182,1432.256,l),
(20,533.899,l),
(20,277.722,l),
(681.362,277.722,l),
(681.362,0,l)
);
},
{
closed = 1;
nodes = (
(750.167,1009.835,l),
(750.167,576.433,l),
(393.632,576.433,l)
);
}
);
width = 1224;
}
);
unicode = 52;
},
{
glyphname = five;
layers = (
{
layerId = m007;
shapes = (
{
closed = 1;
nodes = (
(722.36,-22.24,o),
(980.344,204.608,o),
(980.344,413.664,qs),
(980.344,644.96,o),
(735.704,834,o),
(506.632,827.328,q),
(184.152,827.328,l),
(219.736,1376.656,l),
(858.024,1376.656,l),
(869.144,1432.256,l),
(170.808,1432.256,l),
(133,854.016,l),
(133,771.728,l),
(528.872,771.728,l),
(749.048,771.728,o),
(920.296,602.704,o),
(920.296,413.664,qs),
(920.296,229.072,o),
(697.896,33.36,o),
(486.616,33.36,qs),
(382.088,33.36,o),
(219.736,60.048,o),
(139.672,88.96,q),
(139.672,31.136,l),
(197.496,6.672,o),
(384.312,-22.24,o),
(484.392,-22.24,qs)
);
}
);
width = 1114;
},
{
layerId = m001;
shapes = (
{
closed = 1;
nodes = (
(802.673,-22.24,o),
(1101.94,232.13,o),
(1101.94,451.889,qs),
(1101.94,680.127,o),
(846.597,901.276,o),
(596.119,899.191,qs),
(420.423,899.191,l),
(436.13,1133.545,l),
(984.207,1133.545,l),
(1010.617,1432.256,l),
(102.808,1432.256,l),
(65,811.204,l),
(65,640.234,l),
(492.981,640.234,l),
(610.714,640.234,o),
(705.512,558.363,o),
(705.512,465.65,qs),
(705.512,374.327,o),
(580.968,276.471,o),
(453.783,276.471,qs),
(372.19,276.471,o),
(147.149,319.978,o),
(71.672,351.948,q),
(71.672,52.542,l),
(153.96,17.375,o),
(411.11,-22.24,o),
(514.248,-22.24,qs)
);
}
);
width = 1166;
}
);
unicode = 53;
},
{
glyphname = six;
layers = (
{
layerId = m007;
shapes = (
{
closed = 1;
nodes = (
(844.68,-22.24,o),
(1095.992,220.176,o),
(1095.992,431.456,qs),
(1095.992,651.632,o),
(858.024,880.704,o),
(624.504,880.704,qs),
(522.2,880.704,o),
(295.352,807.312,o),
(195.272,733.92,q),
(195.272,880.704,l),
(195.272,1109.776,o),
(433.24,1398.896,o),
(655.64,1398.896,qs),
(842.456,1398.896,o),
(964.776,1356.64,q),
(964.776,1414.464,l),
(906.952,1434.48,o),
(751.272,1454.496,o),
(655.64,1454.496,qs),
(417.672,1454.496,o),
(133,1140.912,o),
(133,874.032,qs),
(133,507.072,l),
(133,231.296,o),
(375.416,-22.24,o),
(615.608,-22.24,qs)
);
},
{
closed = 1;
nodes = (
(404.328,33.36,o),
(195.272,246.864,o),
(195.272,462.592,qs),
(195.272,676.096,l),
(282.008,742.816,o),
(511.08,825.104,o),
(617.832,825.104,qs),
(842.456,825.104,o),
(1035.944,622.72,o),
(1035.944,431.456,qs),
(1035.944,246.864,o),
(820.216,33.36,o),
(613.384,33.36,qs)
);
}
);
width = 1230;
},
{
layerId = m001;
shapes = (
{
closed = 1;
nodes = (
(957.102,-22.24,o),
(1243.581,244.64,o),
(1243.581,477.326,qs),
(1243.581,711.263,o),
(997.968,947.98,o),
(739.984,947.98,qs),
(660.615,947.98,o),
(488.811,903.639,o),
(428.485,863.885,q),
(428.485,918.929,l),
(428.485,1024.152,o),
(608.351,1171.075,o),
(765.004,1171.075,qs),
(964.052,1171.075,o),
(1103.191,1110.471,q),
(1103.191,1396.116,l),
(1023.961,1428.364,o),
(843.817,1454.496,o),
(723.721,1454.496,qs),
(420.006,1454.496,o),
(65,1107.274,o),
(65,837.336,qs),
(65,554.471,l),
(65,266.463,o),
(360.931,-22.24,o),
(657.696,-22.24,qs)
);
},
{
closed = 1;
nodes = (
(542.743,248.949,o),
(428.485,363.068,o),
(428.485,488.585,qs),
(428.485,604.233,l),
(483.112,638.844,o),
(606.683,678.32,o),
(664.507,678.32,qs),
(788.217,678.32,o),
(896.081,570.734,o),
(896.081,463.565,qs),
(896.081,361.539,o),
(776.68,248.949,o),
(660.059,248.949,qs)
);
}
);
width = 1308;
}
);
unicode = 54;
},
{
glyphname = seven;
layers = (
{
layerId = m007;
shapes = (
{
closed = 1;
nodes = (
(409.016,0,l),
(982.808,1361.088,l),
(982.808,1432.256,l),
(111,1432.256,l),
(111,1376.656,l),
(929.432,1376.656,l),
(348.968,0,l)
);
}
);
width = 1094;
},
{
layerId = m001;
shapes = (
{
closed = 1;
nodes = (
(558.663,0,l),
(1069.766,1206.659,l),
(1069.766,1432.256,l),
(42,1432.256,l),
(42,1133.545,l),
(634.14,1133.545,l),
(154.59,0,l)
);
}
);
width = 1113;
}
);
unicode = 55;
},
{
glyphname = eight;
layers = (
{
layerId = m007;
shapes = (
{
closed = 1;
nodes = (
(864.696,-22.24,o),
(1124.904,173.472,o),
(1124.904,360.288,qs),
(1124.904,507.072,o),
(964.776,680.544,o),
(789.08,713.904,q),
(944.76,756.16,o),
(1082.648,942.976,o),
(1082.648,1074.192,qs),
(1082.648,1189.84,o),
(980.344,1361.088,o),
(775.736,1454.496,o),
(628.952,1454.496,qs),
(411,1454.496,o),
(175.256,1249.888,o),
(175.256,1074.192,qs),
(175.256,954.096,o),
(308.696,776.176,o),
(451.032,740.592,q),
(295.352,707.232,o),
(133,504.848,o),
(133,360.288,qs),
(133,173.472,o),
(393.208,-22.24,o),
(628.952,-22.24,qs)
);
},
{
closed = 1;
nodes = (
(504.408,776.176,l),
(235.304,829.552,o),
(235.304,1074.192,qs),
(235.304,1229.872,o),
(437.688,1398.896,o),
(628.952,1398.896,qs),
(820.216,1398.896,o),
(1022.6,1229.872,o),
(1022.6,1074.192,qs),
(1022.6,931.856,o),
(869.144,776.176,o),
(695.672,738.368,q)
);
},
{
closed = 1;
nodes = (
(193.048,33.36,o),
(193.048,360.288,qs),
(193.048,515.968,o),
(368.744,682.768,o),
(531.096,713.904,q),
(744.6,671.648,l),
(915.848,636.064,o),
(1064.856,500.4,o),
(1064.856,360.288,qs),
(1064.856,195.712,o),
(846.904,33.36,o),
(628.952,33.36,qs)
);
}
);
width = 1259;
},
{
layerId = m001;
shapes = (
{
closed = 1;
nodes = (
(990.879,-22.24,o),
(1289.312,194.878,o),
(1289.312,412.274,qs),
(1289.312,520.833,o),
(1187.286,682.073,o),
(1086.511,729.194,q),
(1170.328,774.508,o),
(1253.172,932.273,o),
(1253.172,1022.206,qs),
(1253.172,1157.731,o),
(1135.578,1350.385,o),
(882.042,1454.496,o),
(675.627,1454.496,qs),
(381.225,1454.496,o),
(101.14,1228.482,o),
(101.14,1022.206,qs),
(101.14,935.748,o),
(182.594,785.35,o),
(263.77,742.121,q),
(170.779,699.587,o),
(65,520.138,o),
(65,412.274,qs),
(65,194.878,o),
(366.491,-22.24,o),
(675.627,-22.24,qs)
);
},
{
closed = 1;
nodes = (
(601.54,857.213,l),
(470.046,881.538,o),
(470.046,1014.561,qs),
(470.046,1096.849,o),
(574.574,1183.307,o),
(675.627,1183.307,qs),
(779.738,1183.307,o),
(884.266,1095.32,o),
(884.266,1014.561,qs),
(884.266,942.559,o),
(810.318,854.155,o),
(731.644,831.637,q)
);
},
{
closed = 1;
nodes = (
(433.906,248.949,o),
(433.906,432.151,qs),
(433.906,512.91,o),
(517.862,600.202,o),
(596.119,619.106,q),
(751.521,587.553,l),
(841.732,568.788,o),
(920.406,491.226,o),
(920.406,419.919,qs),
(920.406,336.38,o),
(798.781,248.949,o),
(675.627,248.949,qs)
);
}
);
width = 1354;
}
);
unicode = 56;
},
{
glyphname = nine;
layers = (
{
layerId = m007;
shapes = (
{
closed = 1;
nodes = (
(833.56,-22.24,o),
(1095.992,302.464,o),
(1095.992,558.224,qs),
(1095.992,925.184,l),
(1095.992,1205.408,o),
(864.696,1454.496,o),
(624.504,1454.496,qs),
(399.88,1454.496,o),
(135.224,1212.08,o),
(133,989.68,qs),
(133,769.504,o),
(377.64,540.432,o),
(611.16,540.432,qs),
(842.456,540.432,o),
(1033.72,687.216,q),
(1033.72,547.104,l),
(1033.72,320.256,o),
(806.872,33.36,o),
(584.472,33.36,qs),
(377.64,33.36,o),
(264.216,75.616,q),
(264.216,17.792,l),
(324.264,0,o),
(491.064,-22.24,o),
(584.472,-22.24,qs)
);
},
{
closed = 1;
nodes = (
(408.776,596.032,o),
(195.272,782.848,o),
(193.048,989.68,qs),
(193.048,1176.496,o),
(417.672,1398.896,o),
(626.728,1398.896,qs),
(835.784,1398.896,o),
(1033.72,1185.392,o),
(1033.72,969.664,qs),
(1033.72,745.04,l),
(949.208,676.096,o),
(735.704,596.032,o),
(617.832,596.032,qs)
);
}
);
width = 1230;
},
{
layerId = m001;
shapes = (
{
closed = 1;
nodes = (
(895.525,-22.24,o),
(1243.581,329.986,o),
(1243.581,594.92,qs),
(1243.581,877.785,l),
(1243.581,1171.77,o),
(961.828,1454.496,o),
(654.36,1454.496,qs),
(357.873,1454.496,o),
(65.695,1184.558,o),
(65,951.455,qs),
(65,717.518,o),
(314.227,480.801,o),
(570.682,480.801,qs),
(734.702,480.801,o),
(880.096,564.896,q),
(880.096,511.937,l),
(880.096,407.409,o),
(708.292,261.181,o),
(547.052,261.181,qs),
(344.807,261.181,o),
(208.448,317.198,q),
(208.448,31.553,l),
(288.373,3.058,o),
(468.934,-22.24,o),
(588.335,-22.24,qs)
);
},
{
closed = 1;
nodes = (
(527.314,750.461,o),
(413.195,853.182,o),
(412.5,965.216,qs),
(412.5,1069.466,o),
(534.681,1183.307,o),
(651.997,1183.307,qs),
(772.371,1183.307,o),
(880.096,1069.188,o),
(880.096,943.671,qs),
(880.096,824.548,l),
(826.164,789.242,o),
(708.987,750.461,o),
(646.159,750.461,qs)
);
}
);
width = 1308;
}
);
unicode = 57;
},
{
glyphname = colon;
layers = (
{
layerId = m007;
shapes = (
{
closed = 1;
nodes = (
(210.84,747.264,l),
(210.84,825.104,l),
(133,825.104,l),
(133,747.264,l)
);
},
{
closed = 1;
nodes = (
(210.84,73.392,l),
(210.84,151.232,l),
(133,151.232,l),
(133,73.392,l)
);
}
);
width = 345;
},
{
layerId = m001;
shapes = (
{
closed = 1;
nodes = (
(372.19,709.039,l),
(372.19,994.823,l),
(65,994.823,l),
(65,709.039,l)
);
},
{
closed = 1;
nodes = (
(372.19,44.341,l),
(372.19,330.125,l),
(65,330.125,l),
(65,44.341,l)
);
}
);
width = 436;
}
);
unicode = 58;
},
{
glyphname = semicolon;
layers = (
{
layerId = m007;
shapes = (
{
closed = 1;
nodes = (
(264.216,747.264,l),
(264.216,825.104,l),
(186.376,825.104,l),
(186.376,747.264,l)
);
},
{
closed = 1;
nodes = (
(181.928,-189.04,l),
(259.768,151.232,l),
(186.376,151.232,l),
(133,-189.04,l)
);
}
);
width = 398;
},
{
layerId = m001;
shapes = (
{
closed = 1;
nodes = (
(459.204,709.039,l),
(459.204,994.823,l),
(152.014,994.823,l),
(152.014,709.039,l)
);
},
{
closed = 1;
nodes = (
(341.749,-242.555,l),
(465.459,244.501,l),
(138.253,244.501,l),
(65,-242.555,l)
);
}
);
width = 531;
}
);
unicode = 59;
},
{
glyphname = less;
layers = (
{
layerId = m007;
shapes = (
{
closed = 1;
nodes = (
(1080.424,231.296,l),
(195.272,640.512,l),
(1080.424,1049.728,l),
(1080.424,1114.224,l),
(133,667.2,l),
(133,613.824,l),
(1080.424,166.8,l)
);
}
);
width = 1214;
},
{
layerId = m001;
shapes = (
{
closed = 1;
nodes = (
(1139.331,413.247,l),
(477.413,689.44,l),
(1139.331,965.633,l),
(1139.331,1326.755,l),
(65,849.151,l),
(65,529.729,l),
(1139.331,52.125,l)
);
}
);
width = 1204;
}
);
unicode = 60;
},
{
glyphname = greater;
layers = (
{
layerId = m007;
shapes = (
{
closed = 1;
nodes = (
(1080.424,613.824,l),
(1080.424,667.2,l),
(133,1114.224,l),
(133,1049.728,l),
(1018.152,640.512,l),
(133,231.296,l),
(133,166.8,l)
);
}
);
width = 1214;
},
{
layerId = m001;
shapes = (
{
closed = 1;
nodes = (
(1139.331,529.729,l),
(1139.331,849.151,l),
(65,1326.755,l),
(65,965.633,l),
(726.918,689.44,l),
(65,413.247,l),
(65,52.125,l)
);
}
);
width = 1204;
}
);
unicode = 62;
},
{
glyphname = lessthanorequalto;
layers = (
{
layerId = m007;
shapes = (
{
closed = 1;
nodes = (
(1080.424,231.296,l),
(195.272,640.512,l),
(1080.424,1049.728,l),
(1080.424,1114.224,l),
(133,667.2,l),
(133,613.824,l),
(1080.424,166.8,l)
);
},
{
closed = 1;
nodes = (
(1080.424,0,l),
(1080.424,55.6,l),
(133,55.6,l),
(133,0,l)
);
}
);
width = 1214;
},
{
layerId = m001;
shapes = (
{
closed = 1;
nodes = (
(1139.331,631.894,l),
(477.413,892.797,l),
(1139.331,1153.7,l),
(1139.331,1476.597,l),
(65,1021.928,l),
(65,763.666,l),
(1139.331,308.997,l)
);
},
{
closed = 1;
nodes = (
(1139.331,0,l),
(1139.331,260.486,l),
(65,260.486,l),
(65,0,l)
);
}
);
width = 1204;
}
);
unicode = 8804;
},
{
glyphname = greaterthanorequalto;
layers = (
{
layerId = m007;
shapes = (
{
closed = 1;
nodes = (
(1080.424,613.824,l),
(1080.424,667.2,l),
(133,1114.224,l),
(133,1049.728,l),
(1018.152,640.512,l),
(133,231.296,l),
(133,166.8,l)
);
},
{
closed = 1;
nodes = (
(1080.424,0,l),
(1080.424,55.6,l),
(133,55.6,l),
(133,0,l)
);
}
);
width = 1214;
},
{
layerId = m001;
shapes = (
{
closed = 1;
nodes = (
(1139.331,763.666,l),
(1139.331,1021.928,l),
(65,1476.597,l),
(65,1153.7,l),
(726.918,892.797,l),
(65,631.894,l),
(65,308.997,l)
);
},
{
closed = 1;
nodes = (
(1139.331,0,l),
(1139.331,260.486,l),
(65,260.486,l),
(65,0,l)
);
}
);
width = 1204;
}
);
unicode = 8805;
},
{
glyphname = equal;
layers = (
{
layerId = m007;
shapes = (
{
closed = 1;
nodes = (
(964.776,658.304,l),
(964.776,713.904,l),
(133,713.904,l),
(133,658.304,l)
);
},
{
closed = 1;
nodes = (
(964.776,389.2,l),
(964.776,447.024,l),
(133,447.024,l),
(133,389.2,l)
);
}
);
width = 1099;
},
{
layerId = m001;
shapes = (
{
closed = 1;
nodes = (
(942.646,688.884,l),
(942.646,957.015,l),
(65,957.015,l),
(65,688.884,l)
);
},
{
closed = 1;
nodes = (
(942.646,286.757,l),
(942.646,555.583,l),
(65,555.583,l),
(65,286.757,l)
);
}
);
width = 1007;
}
);
unicode = 61;
},
{
glyphname = notequalto;
layers = (
{
layerId = m007;
shapes = (
{
closed = 1;
nodes = (
(428.792,93.408,l),
(533.32,389.2,l),
(964.776,389.2,l),
(964.776,447.024,l),
(553.336,447.024,l),
(628.952,658.304,l),
(964.776,658.304,l),
(964.776,713.904,l),
(648.968,713.904,l),
(753.496,1007.472,l),
(693.448,1007.472,l),
(588.92,713.904,l),
(133,713.904,l),
(133,658.304,l),
(568.904,658.304,l),
(493.288,447.024,l),
(133,447.024,l),
(133,389.2,l),
(473.272,389.2,l),
(368.744,93.408,l)
);
}
);
width = 1099;
},
{
layerId = m001;
shapes = (
{
closed = 1;
nodes = (
(414.307,78.118,l),
(479.081,286.757,l),
(942.646,286.757,l),
(942.646,555.583,l),
(555.67,555.583,l),
(597.648,688.884,l),
(942.646,688.884,l),
(942.646,957.015,l),
(672.708,957.015,l),
(735.953,1157.314,l),
(568.875,1157.314,l),
(505.63,957.015,l),
(65,957.015,l),
(65,688.884,l),
(430.57,688.884,l),
(388.592,555.583,l),
(65,555.583,l),
(65,286.757,l),
(312.003,286.757,l),
(247.229,78.118,l)
);
}
);
width = 1007;
}
);
unicode = 8800;
},
{
glyphname = plusminus;
layers = (
{
layerId = m007;
shapes = (
{
closed = 1;
nodes = (
(571.128,157.904,l),
(571.128,520.416,l),
(949.208,520.416,l),
(949.208,576.016,l),
(571.128,576.016,l),
(571.128,954.096,l),
(508.856,954.096,l),
(508.856,576.016,l),
(133,576.016,l),
(133,520.416,l),
(508.856,520.416,l),
(508.856,157.904,l)
);
},
{
closed = 1;
nodes = (
(949.208,0,l),
(949.208,55.6,l),
(133,55.6,l),
(133,0,l)
);
}
);
width = 1083;
},
{
layerId = m001;
shapes = (
{
closed = 1;
nodes = (
(666.731,387.254,l),
(666.731,661.084,l),
(968.361,661.084,l),
(968.361,959.795,l),
(666.731,959.795,l),
(666.731,1238.49,l),
(365.935,1238.49,l),
(365.935,959.795,l),
(65,959.795,l),
(65,661.084,l),
(365.935,661.084,l),
(365.935,387.254,l)
);
},
{
closed = 1;
nodes = (
(968.361,0,l),
(968.361,298.711,l),
(65,298.711,l),
(65,0,l)
);
}
);
width = 1033;
}
);
unicode = 177;
},
{
glyphname = multiply;
layers = (
{
layerId = m007;
shapes = (
{
closed = 1;
nodes = (
(749.048,280.224,l),
(482.168,547.104,l),
(749.048,816.208,l),
(706.792,858.464,l),
(437.688,591.584,l),
(173.032,858.464,l),
(133,818.432,l),
(399.88,553.776,l),
(144.12,295.792,l),
(186.376,253.536,l),
(444.36,509.296,l),
(711.24,242.416,l)
);
}
);
width = 883;
},
{
layerId = m001;
shapes = (
{
closed = 1;
nodes = (
(882.876,335.268,l),
(661.866,556.278,l),
(882.876,777.983,l),
(693.836,967.023,l),
(470.602,747.542,l),
(254.874,970.081,l),
(65,780.207,l),
(286.01,559.892,l),
(73.062,347.778,l),
(263.631,158.738,l),
(477.274,370.157,l),
(696.755,149.147,l)
);
}
);
width = 947;
}
);
unicode = 215;
},
{
glyphname = divide;
layers = (
{
layerId = m007;
shapes = (
{
closed = 1;
nodes = (
(580.024,842.896,l),
(580.024,931.856,l),
(499.96,931.856,l),
(499.96,842.896,l)
);
},
{
closed = 1;
nodes = (
(949.208,520.416,l),
(949.208,576.016,l),
(133,576.016,l),
(133,520.416,l)
);
},
{
closed = 1;
nodes = (
(580.024,180.144,l),
(580.024,269.104,l),
(499.96,269.104,l),
(499.96,180.144,l)
);
}
);
width = 1083;
},
{
layerId = m001;
shapes = (
{
closed = 1;
nodes = (
(628.228,914.759,l),
(628.228,1156.619,l),
(372.329,1156.619,l),
(372.329,914.759,l)
);
},
{
closed = 1;
nodes = (
(937.781,476.075,l),
(937.781,774.786,l),
(65,774.786,l),
(65,476.075,l)
);
},
{
closed = 1;
nodes = (
(628.228,100.636,l),
(628.228,342.496,l),
(372.329,342.496,l),
(372.329,100.636,l)
);
}
);
width = 1002;
}
);
unicode = 247;
},
{
glyphname = at;
layers = (
{
layerId = m007;
shapes = (
{
closed = 1;
nodes = (
(1062.632,-293.568,o),
(1245,-253.536,q),
(1245,-195.712,l),
(1102.664,-237.968,o),
(860.248,-237.968,qs),
(560.008,-237.968,o),
(193.048,64.496,o),
(193.048,418.112,qs),
(193.048,778.4,o),
(546.664,1112,o),
(902.504,1112,qs),
(1218.312,1112,o),
(1514.104,840.672,o),
(1514.104,569.344,qs),
(1514.104,353.616,o),
(1376.216,166.8,o),
(1227.208,166.8,q),
(1227.208,582.688,l),
(1227.208,758.384,o),
(1071.528,907.392,o),
(886.936,907.392,qs),
(795.752,907.392,o),
(640.072,885.152,o),
(584.472,860.688,q),
(584.472,802.864,l),
(711.24,851.792,o),
(869.144,851.792,qs),
(998.136,851.792,o),
(1122.68,798.416,o),
(1164.936,687.216,o),
(1164.936,578.24,qs),
(1164.936,478.16,l),
(815.768,478.16,l),
(473.272,478.16,o),
(473.272,206.832,qs),
(473.272,75.616,o),
(651.192,-44.48,o),
(795.752,-44.48,qs),
(1042.616,-44.48,o),
(1176.056,108.976,q),
(1218.312,108.976,l),
(1400.68,108.976,o),
(1574.152,346.944,o),
(1574.152,569.344,qs),
(1574.152,860.688,o),
(1242.776,1167.6,o),
(902.504,1167.6,qs),
(522.2,1167.6,o),
(133,800.64,o),
(133,418.112,qs),
(133,33.36,o),
(531.096,-293.568,o),
(864.696,-293.568,qs)
);
},
{
closed = 1;
nodes = (
(675.656,11.12,o),
(533.32,102.304,o),
(533.32,206.832,qs),
(533.32,318.032,o),
(657.864,420.336,o),
(817.992,420.336,qs),
(1164.936,420.336,l),
(1164.936,173.472,l),
(1095.992,88.96,o),
(926.968,11.12,o),
(809.096,11.12,qs)
);
}
);
width = 1708;
},
{
layerId = m001;
shapes = (
{
closed = 1;
nodes = (
(1063.437,-293.568,o),
(1245.805,-253.536,q),
(1245.805,-35.167,l),
(1103.469,-77.423,o),
(861.053,-77.423,qs),
(602.096,-77.423,o),
(328.405,159.294,o),
(328.405,415.054,qs),
(328.405,688.189,o),
(610.158,951.455,o),
(886.49,951.455,qs),
(1121.261,951.455,o),
(1358.951,747.403,o),
(1358.951,546.409,qs),
(1358.951,417.834,o),
(1294.455,299.823,o),
(1228.013,299.823,q),
(1228.013,533.76,l),
(1228.013,695.695,o),
(1061.63,843.174,o),
(881.625,843.174,qs),
(793.499,843.174,o),
(625.587,816.347,o),
(568.458,791.883,q),
(568.458,637.732,l),
(695.226,679.015,o),
(825.608,679.015,qs),
(896.498,679.015,o),
(973.643,654.69,o),
(1006.725,609.237,o),
(1006.725,564.479,qs),
(1006.725,528.617,l),
(792.109,528.617,l),
(471.019,528.617,o),
(471.019,275.637,qs),
(471.019,150.537,o),
(627.533,27.383,o),
(750.687,27.383,qs),
(931.804,27.383,o),
(1043.838,112.034,q),
(1164.073,112.034,l),
(1392.311,112.034,o),
(1622.356,345.415,o),
(1622.356,564.757,qs),
(1622.356,849.985,o),
(1232.878,1167.6,o),
(886.49,1167.6,qs),
(503.128,1167.6,o),
(65,796.053,o),
(65,418.112,qs),
(65,57.824,o),
(493.676,-293.568,o),
(865.501,-293.568,qs)
);
},
{
closed = 1;
nodes = (
(780.433,180.839,o),
(717.605,227.682,o),
(717.605,277.166,qs),
(717.605,331.793,o),
(779.46,383.64,o),
(852.435,383.64,qs),
(1006.725,383.64,l),
(1006.725,256.038,l),
(974.477,217.396,o),
(894.135,180.839,o),
(838.952,180.839,qs)
);
}
);
width = 1687;
}
);
unicode = 64;
},
{
glyphname = A;
layers = (
{
layerId = m007;
shapes = (
{
closed = 1;
nodes = (
(197.496,0,l),
(364.296,444.8,l),
(1082.648,444.8,l),
(1249.448,0,l),
(1311.72,0,l),
(773.512,1432.256,l),
(673.432,1432.256,l),
(133,0,l)
);
},
{
closed = 1;
nodes = (
(722.36,1396.672,l),
(1060.408,500.4,l),
(384.312,500.4,l)
);
}
);
width = 1446;
},
{
layerId = m001;
shapes = (
{
closed = 1;
nodes = (
(470.463,0,l),
(592.922,322.48,l),
(1048.286,322.48,l),
(1170.745,0,l),
(1575.513,0,l),
(1028.131,1432.256,l),
(613.077,1432.256,l),
(65,0,l)
);
},
{
closed = 1;
nodes = (
(819.492,1060.292,l),
(1000.053,592.14,l),
(638.931,592.14,l)
);
}
);
width = 1640;
}
);
unicode = 65;
},
{
glyphname = B;
layers = (
{
layerId = m007;
shapes = (
{
closed = 1;
nodes = (
(822.96,0,l),
(1029.792,0,o),
(1227.728,193.488,o),
(1227.728,402.544,qs),
(1227.728,553.776,o),
(1094.288,722.8,o),
(971.968,745.04,q),
(1167.68,827.328,o),
(1167.68,1063.072,qs),
(1167.68,1247.664,o),
(983.088,1432.256,o),
(776.256,1432.256,qs),
(178,1432.256,l),
(178,0,l)
);
},
{
closed = 1;
nodes = (
(240.272,1376.656,l),
(765.136,1376.656,l),
(960.848,1376.656,o),
(1107.632,1223.2,o),
(1107.632,1063.072,qs),
(1107.632,778.4,o),
(809.616,771.728,qs),
(240.272,771.728,l)
);
},
{
closed = 1;
nodes = (
(240.272,716.128,l),
(794.048,716.128,l),
(916.368,716.128,o),
(1080.944,660.528,o),
(1169.904,522.64,o),
(1167.68,402.544,qs),
(1167.68,217.952,o),
(1007.552,55.6,o),
(831.856,55.6,qs),
(240.272,55.6,l)
);
}
);
width = 1361;
},
{
layerId = m001;
shapes = (
{
closed = 1;
nodes = (
(900.744,0,l),
(1128.982,0,o),
(1372.788,219.481,o),
(1372.788,423.95,qs),
(1372.788,552.247,o),
(1268.399,695.278,o),
(1167.485,731.279,q),
(1320.385,825.799,o),
(1320.385,1038.608,qs),
(1320.385,1230.845,o),
(1097.568,1432.256,o),
(880.033,1432.256,qs),
(109,1432.256,l),
(109,0,l)
);
},
{
closed = 1;
nodes = (
(475.543,1164.125,l),
(777.173,1164.125,l),
(875.029,1164.125,o),
(957.595,1085.59,o),
(957.595,1004.97,qs),
(957.595,850.263,o),
(791.073,848.178,qs),
(475.543,848.178,l)
);
},
{
closed = 1;
nodes = (
(475.543,601.453,l),
(786.208,601.453,l),
(848.897,601.453,o),
(933.965,570.317,o),
(977.055,499.705,o),
(976.36,442.298,qs),
(976.36,350.975,o),
(889.624,268.131,o),
(798.023,268.131,qs),
(475.543,268.131,l)
);
}
);
width = 1430;
}
);
unicode = 66;
},
{
glyphname = C;
layers = (
{
layerId = m007;
shapes = (
{
closed = 1;
nodes = (
(878.04,-22.24,o),
(1080.424,4.448,o),
(1164.936,31.136,q),
(1164.936,88.96,l),
(993.688,33.36,o),
(775.736,33.36,qs),
(468.824,33.36,o),
(330.936,204.608,qs),
(197.496,371.408,o),
(193.048,669.424,qs),
(193.048,1018.592,o),
(453.256,1398.896,o),
(769.064,1398.896,qs),
(998.136,1398.896,o),
(1164.936,1334.4,q),
(1164.936,1392.224,l),
(1084.872,1423.36,o),
(882.488,1454.496,o),
(762.392,1454.496,qs),
(426.568,1454.496,o),
(133,1040.832,o),
(133,669.424,qs),
(133,349.168,o),
(442.136,-22.24,o),
(762.392,-22.24,qs)
);
}
);
width = 1299;
},
{
layerId = m001;
shapes = (
{
closed = 1;
nodes = (
(975.172,-22.24,o),
(1182.143,12.093,o),
(1286.532,47.955,q),
(1286.532,388.644,l),
(1092.349,307.051,o),
(878.984,307.051,qs),
(674.515,307.051,o),
(568.736,403.378,qs),
(462.818,496.786,o),
(461.428,701.533,qs),
(461.428,916.149,o),
(662.005,1125.205,o),
(873.841,1125.205,qs),
(1090.681,1125.205,o),
(1283.474,1040.832,q),
(1283.474,1381.521,l),
(1186.591,1418.773,o),
(976.562,1454.496,o),
(847.292,1454.496,qs),
(453.366,1454.496,o),
(65,1068.354,o),
(65,701.533,qs),
(65,350.697,o),
(459.76,-22.24,o),
(850.35,-22.24,qs)
);
}
);
width = 1351;
}
);
unicode = 67;
},
{
glyphname = D;
layers = (
{
layerId = m007;
shapes = (
{
closed = 1;
nodes = (
(696.192,0,l),
(1000.88,0,o),
(1249.968,331.376,o),
(1249.968,705.008,qs),
(1249.968,967.44,o),
(1140.992,1283.248,o),
(898.576,1432.256,o),
(696.192,1432.256,qs),
(178,1432.256,l),
(178,0,l)
);
},
{
closed = 1;
nodes = (
(240.272,1376.656,l),
(673.952,1376.656,l),
(896.352,1376.656,o),
(1120.976,1209.856,o),
(1189.92,929.632,o),
(1189.92,705.008,qs),
(1189.92,509.296,o),
(1127.648,253.536,o),
(1000.88,113.424,o),
(811.84,55.6,o),
(673.952,55.6,qs),
(240.272,55.6,l)
);
}
);
width = 1383;
},
{
layerId = m001;
shapes = (
{
closed = 1;
nodes = (
(738.809,0,l),
(1080.193,0,o),
(1422.55,340.55,o),
(1422.55,706.537,qs),
(1422.55,964.382,o),
(1266.175,1284.777,o),
(962.599,1432.256,o),
(738.809,1432.256,qs),
(109,1432.256,l),
(109,0,l)
);
},
{
closed = 1;
nodes = (
(498.478,1112.139,l),
(689.047,1112.139,l),
(824.294,1112.139,o),
(967.881,1032.492,o),
(1027.651,860.827,o),
(1027.651,706.537,qs),
(1027.651,582.688,o),
(983.727,420.197,o),
(899.771,333.6,o),
(776.478,298.711,o),
(689.047,298.711,qs),
(498.478,298.711,l)
);
}
);
width = 1480;
}
);
unicode = 68;
},
{
glyphname = E;
layers = (
{
layerId = m007;
shapes = (
{
closed = 1;
nodes = (
(1085.392,0,l),
(1085.392,55.6,l),
(240.272,55.6,l),
(240.272,689.44,l),
(1007.552,689.44,l),
(1007.552,745.04,l),
(240.272,745.04,l),
(240.272,1376.656,l),
(1085.392,1376.656,l),
(1085.392,1432.256,l),
(178,1432.256,l),
(178,0,l)
);
}
);
width = 1197;
},
{
layerId = m001;
shapes = (
{
closed = 1;
nodes = (
(1179.995,0,l),
(1179.995,283.421,l),
(498.478,283.421,l),
(498.478,570.178,l),
(1097.568,570.178,l),
(1097.568,862.773,l),
(498.478,862.773,l),
(498.478,1148.835,l),
(1179.995,1148.835,l),
(1179.995,1432.256,l),
(109,1432.256,l),
(109,0,l)
);
}
);
width = 1223;
}
);
unicode = 69;
},
{
glyphname = F;
layers = (
{
layerId = m007;
shapes = (
{
closed = 1;
nodes = (
(240.272,0,l),
(240.272,689.44,l),
(965.296,689.44,l),
(965.296,745.04,l),
(240.272,745.04,l),
(240.272,1376.656,l),
(1045.36,1376.656,l),
(1045.36,1432.256,l),
(178,1432.256,l),
(178,0,l)
);
}
);
width = 1112;
},
{
layerId = m001;
shapes = (
{
closed = 1;
nodes = (
(498.478,0,l),
(498.478,570.178,l),
(1084.363,570.178,l),
(1084.363,862.773,l),
(498.478,862.773,l),
(498.478,1148.835,l),
(1167.485,1148.835,l),
(1167.485,1432.256,l),
(109,1432.256,l),
(109,0,l)
);
}
);
width = 1188;
}
);
unicode = 70;
},
{
glyphname = G;
layers = (
{
layerId = m007;
shapes = (
{
closed = 1;
nodes = (
(946.984,-22.24,o),
(1193.848,40.032,o),
(1260.568,82.288,q),
(1260.568,742.816,l),
(766.84,742.816,l),
(766.84,684.992,l),
(1198.296,684.992,l),
(1198.296,106.752,l),
(1004.808,33.36,o),
(777.96,33.36,qs),
(622.28,33.36,o),
(399.88,120.096,o),
(330.936,204.608,qs),
(193.048,375.856,o),
(193.048,669.424,qs),
(193.048,1018.592,o),
(455.48,1398.896,o),
(771.288,1398.896,qs),
(982.568,1398.896,o),
(1164.936,1343.296,q),
(1164.936,1401.12,l),
(991.464,1454.496,o),
(762.392,1454.496,qs),
(428.792,1454.496,o),
(133,1038.608,o),
(133,669.424,qs),
(133,349.168,o),
(444.36,-22.24,o),
(764.616,-22.24,qs)
);
}
);
width = 1394;
},
{
layerId = m001;
shapes = (
{
closed = 1;
nodes = (
(1019.652,-22.24,o),
(1294.038,50.735,o),
(1385.222,106.752,q),
(1385.222,822.324,l),
(761.529,822.324,l),
(761.529,581.02,l),
(1059.962,581.02,l),
(1059.962,340.689,l),
(958.214,307.051,o),
(836.867,307.051,qs),
(690.361,307.051,o),
(526.063,422.838,o),
(504.518,556.278,q),
(461.428,721.41,o),
(531.762,855.962,q),
(566.929,986.483,o),
(737.621,1126.734,o),
(888.297,1125.205,qs),
(1125.57,1125.205,o),
(1303.351,1060.431,q),
(1303.351,1393.475,l),
(1120.705,1454.496,o),
(861.053,1454.496,qs),
(464.764,1454.496,o),
(65,1066.13,o),
(65,701.533,qs),
(65,352.226,o),
(455.868,-22.24,o),
(835.755,-22.24,qs)
);
}
);
width = 1465;
}
);
unicode = 71;
},
{
glyphname = H;
layers = (
{
layerId = m007;
shapes = (
{
closed = 1;
nodes = (
(240.272,0,l),
(240.272,689.44,l),
(1132.096,689.44,l),
(1132.096,0,l),
(1194.368,0,l),
(1194.368,1432.256,l),
(1132.096,1432.256,l),
(1132.096,745.04,l),
(240.272,745.04,l),
(240.272,1432.256,l),
(178,1432.256,l),
(178,0,l)
);
}
);
width = 1372;
},
{
layerId = m001;
shapes = (
{
closed = 1;
nodes = (
(498.478,0,l),
(498.478,536.54,l),
(1023.342,536.54,l),
(1023.342,0,l),
(1412.82,0,l),
(1412.82,1432.256,l),
(1023.342,1432.256,l),
(1023.342,896.411,l),
(498.478,896.411,l),
(498.478,1432.256,l),
(109,1432.256,l),
(109,0,l)
);
}
);
width = 1522;
}
);
unicode = 72;
},
{
glyphname = I;
layers = (
{
layerId = m007;
shapes = (
{
closed = 1;
nodes = (
(240.272,0,l),
(240.272,1432.256,l),
(178,1432.256,l),
(178,0,l)
);
}
);
width = 418;
},
{
layerId = m001;
shapes = (
{
closed = 1;
nodes = (
(498.478,0,l),
(498.478,1432.256,l),
(109,1432.256,l),
(109,0,l)
);
}
);
width = 608;
}
);
unicode = 73;
},
{
glyphname = J;
layers = (
{
layerId = m007;
shapes = (
{
closed = 1;
nodes = (
(519.936,-22.24,o),
(702.304,157.904,o),
(702.304,340.272,qs),
(702.304,1432.256,l),
(640.032,1432.256,l),
(640.032,340.272,l),
(640.032,180.144,o),
(491.024,35.584,o),
(315.328,35.584,qs),
(155.2,35.584,o),
(44,88.96,q),
(44,31.136,l),
(164.096,-22.24,o),
(324.224,-22.24,qs)
);
}
);
width = 870;
},
{
layerId = m001;
shapes = (
{
closed = 1;
nodes = (
(615.314,-22.24,o),
(887.893,208.361,o),
(887.893,436.599,qs),
(887.893,1432.256,l),
(498.415,1432.256,l),
(498.415,526.81,l),
(498.415,409.494,o),
(393.748,309.275,o),
(270.038,309.275,qs),
(123.671,309.275,o),
(14,355.006,q),
(14,29.607,l),
(160.089,-22.24,o),
(349.268,-22.24,qs)
);
}
);
width = 986;
}
);
unicode = 74;
},
{
glyphname = K;
layers = (
{
layerId = m007;
shapes = (
{
closed = 1;
nodes = (
(240.272,0,l),
(240.272,535.984,l),
(518.272,822.88,l),
(1047.584,0,l),
(1118.752,0,l),
(562.752,865.136,l),
(1112.08,1432.256,l),
(1027.568,1432.256,l),
(240.272,620.496,l),
(240.272,1432.256,l),
(178,1432.256,l),
(178,0,l)
);
}
);
width = 1252;
},
{
layerId = m001;
shapes = (
{
closed = 1;
nodes = (
(498.478,0,l),
(498.478,424.367,l),
(655.687,599.646,l),
(1022.925,0,l),
(1436.589,0,l),
(895.879,846.788,l),
(1403.924,1432.256,l),
(960.097,1432.256,l),
(498.478,903.361,l),
(498.478,1432.256,l),
(109,1432.256,l),
(109,0,l)
);
}
);
width = 1478;
}
);
unicode = 75;
},
{
glyphname = L;
layers = (
{
layerId = m007;
shapes = (
{
closed = 1;
nodes = (
(1063.152,0,l),
(1063.152,55.6,l),
(240.272,55.6,l),
(240.272,1432.256,l),
(178,1432.256,l),
(178,0,l)
);
}
);
width = 1152;
},
{
layerId = m001;
shapes = (
{
closed = 1;
nodes = (
(1157.755,0,l),
(1157.755,298.711,l),
(498.478,298.711,l),
(498.478,1432.256,l),
(109,1432.256,l),
(109,0,l)
);
}
);
width = 1186;
}
);
unicode = 76;
},
{
glyphname = M;
layers = (
{
layerId = m007;
shapes = (
{
closed = 1;
nodes = (
(240.272,0,l),
(240.272,1363.312,l),
(785.152,251.312,l),
(856.32,251.312,l),
(1398.976,1363.312,l),
(1398.976,0,l),
(1461.248,0,l),
(1461.248,1432.256,l),
(1370.064,1432.256,l),
(820.736,304.688,l),
(269.184,1432.256,l),
(178,1432.256,l),
(178,0,l)
);
}
);
width = 1639;
},
{
layerId = m001;
shapes = (
{
closed = 1;
nodes = (
(498.478,0,l),
(498.478,771.589,l),
(755.906,246.725,l),
(966.213,246.725,l),
(1222.946,771.589,l),
(1222.946,0,l),
(1612.424,0,l),
(1612.424,1432.256,l),
(1232.259,1432.256,l),
(861.824,673.177,l),
(489.165,1432.256,l),
(109,1432.256,l),
(109,0,l)
);
}
);
width = 1722;
}
);
unicode = 77;
},
{
glyphname = N;
layers = (
{
layerId = m007;
shapes = (
{
closed = 1;
nodes = (
(240.272,0,l),
(240.272,1347.744,l),
(1196.592,0,l),
(1265.536,0,l),
(1265.536,1432.256,l),
(1203.264,1432.256,l),
(1203.264,84.512,l),
(246.944,1432.256,l),
(178,1432.256,l),
(178,0,l)
);
}
);
width = 1443;
},
{
layerId = m001;
shapes = (
{
closed = 1;
nodes = (
(498.478,0,l),
(498.478,806.478,l),
(1071.019,0,l),
(1404.48,0,l),
(1404.48,1432.256,l),
(1015.002,1432.256,l),
(1015.002,625.778,l),
(440.932,1432.256,l),
(109,1432.256,l),
(109,0,l)
);
}
);
width = 1514;
}
);
unicode = 78;
},
{
glyphname = O;
layers = (
{
layerId = m007;
shapes = (
{
closed = 1;
nodes = (
(1073.752,-22.24,o),
(1382.888,360.288,o),
(1382.888,702.784,qs),
(1382.888,1089.76,o),
(1082.648,1454.496,o),
(757.944,1454.496,qs),
(433.24,1454.496,o),
(133,1089.76,o),
(133,702.784,qs),
(133,360.288,o),
(442.136,-22.24,o),
(757.944,-22.24,qs)
);
},
{
closed = 1;
nodes = (
(475.496,33.36,o),
(193.048,373.632,o),
(193.048,702.784,qs),
(193.048,958.544,o),
(317.592,1261.008,o),
(564.456,1398.896,o),
(757.944,1398.896,qs),
(951.432,1398.896,o),
(1198.296,1261.008,o),
(1322.84,958.544,o),
(1322.84,702.784,qs),
(1322.84,373.632,o),
(1040.392,33.36,o),
(757.944,33.36,qs)
);
}
);
width = 1517;
},
{
layerId = m001;
shapes = (
{
closed = 1;
nodes = (
(1144.891,-22.24,o),
(1510.6,337.353,o),
(1510.6,711.958,qs),
(1510.6,1101.992,o),
(1149.2,1454.496,o),
(787.8,1454.496,qs),
(426.4,1454.496,o),
(65,1101.992,o),
(65,711.958,qs),
(65,337.353,o),
(430.709,-22.24,o),
(787.8,-22.24,qs)
);
},
{
closed = 1;
nodes = (
(618.498,308.58,o),
(461.428,503.597,o),
(461.428,711.958,qs),
(461.428,863.746,o),
(530.928,1042.361,o),
(672.291,1123.676,o),
(787.8,1123.676,qs),
(903.309,1123.676,o),
(1044.672,1042.361,o),
(1114.172,863.746,o),
(1114.172,711.958,qs),
(1114.172,503.597,o),
(957.102,308.58,o),
(787.8,308.58,qs)
);
}
);
width = 1575;
}
);
unicode = 79;
},
{
glyphname = P;
layers = (
{
layerId = m007;
shapes = (
{
closed = 1;
nodes = (
(240.272,0,l),
(240.272,580.464,l),
(705.088,580.464,l),
(845.2,580.464,o),
(1049.808,680.544,o),
(1156.56,869.584,o),
(1156.56,1003.024,qs),
(1156.56,1205.408,o),
(938.608,1432.256,o),
(713.984,1432.256,qs),
(178,1432.256,l),
(178,0,l)
);
},
{
closed = 1;
nodes = (
(240.272,1376.656,l),
(720.656,1376.656,l),
(907.472,1376.656,o),
(1096.512,1185.392,o),
(1096.512,1003.024,qs),
(1096.512,831.776,o),
(898.576,636.064,o),
(709.536,636.064,qs),
(240.272,636.064,l)
);
}
);
width = 1245;
},
{
layerId = m001;
shapes = (
{
closed = 1;
nodes = (
(498.478,0,l),
(498.478,401.571,l),
(821.097,401.571,l),
(978.028,401.571,o),
(1214.745,532.231,o),
(1341.374,765.612,o),
(1341.374,914.342,qs),
(1341.374,1145.777,o),
(1082.139,1432.256,o),
(829.993,1432.256,qs),
(109,1432.256,l),
(109,0,l)
);
},
{
closed = 1;
nodes = (
(498.478,1125.9,l),
(744.925,1125.9,l),
(846.117,1125.9,o),
(946.475,1018.731,o),
(946.475,914.342,qs),
(946.475,818.015,o),
(838.75,707.927,o),
(735.334,707.927,qs),
(498.478,707.927,l)
);
}
);
width = 1362;
}
);
unicode = 80;
},
{
glyphname = Q;
layers = (
{
layerId = m007;
shapes = (
{
closed = 1;
nodes = (
(1042.616,-382.528,o),
(1131.576,-360.288,q),
(1131.576,-302.464,l),
(1042.616,-324.704,o),
(973.672,-324.704,qs),
(858.024,-324.704,o),
(771.288,-186.816,o),
(771.288,-22.24,q),
(1080.424,-15.568,o),
(1382.888,362.512,o),
(1382.888,702.784,qs),
(1382.888,1089.76,o),
(1082.648,1454.496,o),
(757.944,1454.496,qs),
(433.24,1454.496,o),
(133,1089.76,o),
(133,702.784,qs),
(133,384.752,o),
(406.552,-2.224,o),
(711.24,-20.016,q),
(711.24,-189.04,o),
(824.664,-382.528,o),
(973.672,-382.528,qs)
);
},
{
closed = 1;
nodes = (
(475.496,33.36,o),
(193.048,373.632,o),
(193.048,702.784,qs),
(193.048,958.544,o),
(317.592,1261.008,o),
(564.456,1398.896,o),
(757.944,1398.896,qs),
(951.432,1398.896,o),
(1198.296,1261.008,o),
(1322.84,958.544,o),
(1322.84,702.784,qs),
(1322.84,373.632,o),
(1040.392,33.36,o),
(757.944,33.36,qs)
);
}
);
width = 1517;
},
{
layerId = m001;
shapes = (
{
closed = 1;
nodes = (
(1127.516,-382.528,o),
(1237.882,-351.114,q),
(1237.882,-128.158,l),
(1156.567,-153.456,o),
(1078.449,-153.456,qs),
(1007.142,-153.456,o),
(937.225,-87.431,o),
(931.109,-13.066,q),
(1218.839,16.541,o),
(1510.6,373.215,o),
(1510.6,711.958,qs),
(1510.6,1101.992,o),
(1149.2,1454.496,o),
(787.8,1454.496,qs),
(426.4,1454.496,o),
(65,1101.992,o),
(65,711.958,qs),
(65,389.339,o),
(337.023,28.356,o),
(614.189,-9.313,q),
(620.305,-182.924,o),
(796.418,-382.528,o),
(985.18,-382.528,qs)
);
},
{
closed = 1;
nodes = (
(618.498,308.58,o),
(461.428,503.597,o),
(461.428,711.958,qs),
(461.428,863.746,o),
(530.928,1042.361,o),
(672.291,1123.676,o),
(787.8,1123.676,qs),
(903.309,1123.676,o),
(1044.672,1042.361,o),
(1114.172,863.746,o),
(1114.172,711.958,qs),
(1114.172,503.597,o),
(957.102,308.58,o),
(787.8,308.58,qs)
);
}
);
width = 1575;
}
);
unicode = 81;
},
{
glyphname = R;
layers = (
{
layerId = m007;
shapes = (
{
closed = 1;
nodes = (
(240.272,0,l),
(240.272,607.152,l),
(611.68,607.152,l),
(751.792,607.152,o),
(865.216,540.432,o),
(903.024,449.248,qs),
(1098.736,0,l),
(1161.008,0,l),
(963.072,462.592,l),
(931.936,531.536,o),
(880.784,598.256,o),
(829.632,618.272,q),
(991.984,642.736,o),
(1156.56,849.568,o),
(1156.56,1023.04,qs),
(1156.56,1218.752,o),
(958.624,1432.256,o),
(747.344,1432.256,qs),
(178,1432.256,l),
(178,0,l)
);
},
{
closed = 1;
nodes = (
(240.272,1376.656,l),
(754.016,1376.656,l),
(925.264,1376.656,o),
(1096.512,1200.96,o),
(1096.512,1023.04,qs),
(1096.512,662.752,o),
(725.104,662.752,qs),
(240.272,662.752,l)
);
}
);
width = 1294;
},
{
layerId = m001;
shapes = (
{
closed = 1;
nodes = (
(498.478,0,l),
(498.478,440.491,l),
(629.833,440.491,l),
(690.437,440.491,o),
(744.23,405.88,o),
(763.69,359.037,qs),
(921.177,0,l),
(1325.945,0,l),
(1147.886,412.135,l),
(1130.511,450.499,o),
(1096.178,495.813,o),
(1064.903,511.242,q),
(1193.617,572.402,o),
(1341.374,788.408,o),
(1341.374,935.887,qs),
(1341.374,1162.179,o),
(1089.923,1432.256,o),
(840.418,1432.256,qs),
(109,1432.256,l),
(109,0,l)
);
},
{
closed = 1;
nodes = (
(498.478,1125.9,l),
(755.35,1125.9,l),
(851.677,1125.9,o),
(946.475,1034.299,o),
(946.475,935.887,qs),
(946.475,746.847,o),
(740.199,746.847,qs),
(498.478,746.847,l)
);
}
);
width = 1408;
}
);
unicode = 82;
},
{
glyphname = S;
layers = (
{
layerId = m007;
shapes = (
{
closed = 1;
nodes = (
(826.888,-22.24,o),
(1091.544,164.576,o),
(1091.544,355.84,qs),
(1091.544,462.592,o),
(1002.584,609.376,o),
(800.2,713.904,o),
(626.728,751.712,qs),
(571.128,765.056,o),
(524.424,776.176,q),
(335.384,827.328,o),
(193.048,956.32,o),
(193.048,1078.64,qs),
(193.048,1240.992,o),
(422.12,1398.896,o),
(648.968,1398.896,qs),
(855.8,1398.896,o),
(1002.584,1347.744,q),
(1002.584,1403.344,l),
(949.208,1423.36,o),
(742.376,1454.496,o),
(631.176,1454.496,qs),
(379.864,1454.496,o),
(133,1252.112,o),
(133,1078.64,qs),
(133,929.632,o),
(333.16,760.608,o),
(580.024,707.232,qs),
(697.896,682.768,o),
(775.736,656.08,qs),
(911.4,609.376,o),
(1031.496,471.488,o),
(1031.496,355.84,qs),
(1031.496,31.136,o),
(571.128,31.136,qs),
(459.928,31.136,o),
(264.216,62.272,o),
(173.032,91.184,q),
(173.032,35.584,l),
(253.096,6.672,o),
(446.584,-22.24,o),
(571.128,-22.24,qs)
);
}
);
width = 1225;
},
{
layerId = m001;
shapes = (
{
closed = 1;
nodes = (
(867.447,-22.24,o),
(1174.915,201.272,o),
(1174.915,406.297,qs),
(1174.915,531.397,o),
(1102.774,698.058,o),
(915.68,822.463,o),
(743.737,866.387,qs),
(715.659,873.615,o),
(679.658,883.206,qs),
(551.778,919.068,o),
(461.428,977.726,o),
(461.428,1032.77,qs),
(461.428,1107.969,o),
(614.05,1172.604,o),
(721.636,1171.075,qs),
(907.062,1171.075,o),
(1093.6,1095.459,q),
(1093.6,1391.112,l),
(1017.289,1415.715,o),
(760,1454.496,o),
(653.387,1454.496,qs),
(357.734,1454.496,o),
(65,1236.822,o),
(65,1029.712,qs),
(65,857.769,o),
(236.109,674.984,o),
(456.98,601.731,q),
(518.279,584.912,o),
(586.945,562.811,q),
(688.971,526.81,o),
(775.429,459.256,o),
(775.429,404.768,qs),
(775.429,260.486,o),
(533.708,258.957,qs),
(425.566,258.957,o),
(185.513,316.086,o),
(86.684,358.759,q),
(86.684,64.635,l),
(175.922,23.491,o),
(429.041,-22.24,o),
(573.462,-22.24,qs)
);
}
);
width = 1239;
}
);
unicode = 83;
},
{
glyphname = T;
layers = (
{
layerId = m007;
shapes = (
{
closed = 1;
nodes = (
(665.016,0,l),
(665.016,1376.656,l),
(1176.536,1376.656,l),
(1176.536,1432.256,l),
(89,1432.256,l),
(89,1376.656,l),
(602.744,1376.656,l),
(602.744,0,l)
);
}
);
width = 1265;
},
{
layerId = m001;
shapes = (
{
closed = 1;
nodes = (
(828.779,0,l),
(828.779,1148.835,l),
(1239.385,1148.835,l),
(1239.385,1432.256,l),
(28,1432.256,l),
(28,1148.835,l),
(439.301,1148.835,l),
(439.301,0,l)
);
}
);
width = 1267;
}
);
unicode = 84;
},
{
glyphname = U;
layers = (
{
layerId = m007;
shapes = (
{
closed = 1;
nodes = (
(1014.344,-22.24,o),
(1292.344,249.088,o),
(1292.344,513.744,qs),
(1292.344,1432.256,l),
(1230.072,1432.256,l),
(1230.072,487.056,l),
(1230.072,262.432,o),
(972.088,35.584,o),
(729.672,35.584,qs),
(489.48,35.584,o),
(229.272,262.432,o),
(229.272,487.056,qs),
(229.272,1432.256,l),
(167,1432.256,l),
(167,513.744,l),
(167,249.088,o),
(445,-22.24,o),
(729.672,-22.24,qs)
);
}
);
width = 1459;
},
{
layerId = m001;
shapes = (
{
closed = 1;
nodes = (
(1070.722,-22.24,o),
(1434.346,275.081,o),
(1434.346,548.911,qs),
(1434.346,1432.256,l),
(1044.868,1432.256,l),
(1044.868,587.97,l),
(1044.868,448.97,o),
(903.088,309.275,o),
(766.173,309.275,qs),
(629.953,309.275,o),
(487.478,448.97,o),
(487.478,587.97,qs),
(487.478,1432.256,l),
(98,1432.256,l),
(98,548.911,l),
(98,275.081,o),
(461.624,-22.24,o),
(766.173,-22.24,qs)
);
}
);
width = 1532;
}
);
unicode = 85;
},
{
glyphname = V;
layers = (
{
layerId = m007;
shapes = (
{
closed = 1;
nodes = (
(773.512,0,l),
(1311.72,1432.256,l),
(1247.224,1432.256,l),
(722.36,35.584,l),
(197.496,1432.256,l),
(133,1432.256,l),
(673.432,0,l)
);
}
);
width = 1446;
},
{
layerId = m001;
shapes = (
{
closed = 1;
nodes = (
(1028.131,0,l),
(1575.513,1432.256,l),
(1170.05,1432.256,l),
(819.492,448.414,l),
(470.463,1432.256,l),
(65,1432.256,l),
(613.077,0,l)
);
}
);
width = 1640;
}
);
unicode = 86;
},
{
glyphname = W;
layers = (
{
layerId = m007;
shapes = (
{
closed = 1;
nodes = (
(568.904,0,l),
(949.208,1267.68,l),
(1302.824,0,l),
(1402.904,0,l),
(1734.28,1432.256,l),
(1672.008,1432.256,l),
(1349.528,44.48,l),
(958.104,1432.256,l),
(904.728,1432.256,l),
(904.728,1303.264,l),
(519.976,44.48,l),
(197.496,1432.256,l),
(133,1432.256,l),
(466.6,0,l)
);
}
);
width = 1868;
},
{
layerId = m001;
shapes = (
{
closed = 1;
nodes = (
(753.189,0,l),
(998.941,784.516,l),
(1227.179,0,l),
(1581.073,0,l),
(1912.449,1432.256,l),
(1533.674,1432.256,l),
(1348.804,620.913,l),
(1116.396,1432.256,l),
(798.503,1432.256,l),
(798.503,1225.285,l),
(621.695,622.442,l),
(445.999,1432.256,l),
(65,1432.256,l),
(398.6,0,l)
);
}
);
width = 1980;
}
);
unicode = 87;
},
{
glyphname = X;
layers = (
{
layerId = m007;
shapes = (
{
closed = 1;
nodes = (
(197.496,0,l),
(662.312,664.976,l),
(1127.128,0,l),
(1191.624,0,l),
(697.896,705.008,l),
(1191.624,1432.256,l),
(1127.128,1432.256,l),
(662.312,740.592,l),
(197.496,1432.256,l),
(133,1432.256,l),
(624.504,705.008,l),
(133,0,l)
);
}
);
width = 1326;
},
{
layerId = m001;
shapes = (
{
closed = 1;
nodes = (
(533.152,0,l),
(825.191,408.104,l),
(1118.759,0,l),
(1586.911,0,l),
(1059.545,723.356,l),
(1568.563,1432.256,l),
(1106.527,1432.256,l),
(825.191,1034.16,l),
(545.384,1432.256,l),
(83.348,1432.256,l),
(591.671,723.356,l),
(65,0,l)
);
}
);
width = 1651;
}
);
unicode = 88;
},
{
glyphname = Y;
layers = (
{
layerId = m007;
shapes = (
{
closed = 1;
nodes = (
(704.568,0,l),
(704.568,538.208,l),
(1213.864,1432.256,l),
(1149.368,1432.256,l),
(673.432,596.032,l),
(197.496,1432.256,l),
(133,1432.256,l),
(642.296,538.208,l),
(642.296,0,l)
);
}
);
width = 1348;
},
{
layerId = m001;
shapes = (
{
closed = 1;
nodes = (
(961.89,0,l),
(961.89,525.976,l),
(1477.302,1432.256,l),
(1071.839,1432.256,l),
(767.151,857.491,l),
(462.463,1432.256,l),
(57,1432.256,l),
(572.412,525.976,l),
(572.412,0,l)
);
}
);
width = 1534;
}
);
unicode = 89;
},
{
glyphname = Z;
layers = (
{
layerId = m007;
shapes = (
{
closed = 1;
nodes = (
(1131.576,0,l),
(1131.576,55.6,l),
(210.84,55.6,l),
(1120.456,1374.432,l),
(1120.456,1432.256,l),
(170.808,1432.256,l),
(170.808,1376.656,l),
(1049.288,1376.656,l),
(133,48.928,l),
(133,0,l)
);
}
);
width = 1254;
},
{
layerId = m001;
shapes = (
{
closed = 1;
nodes = (
(1234.824,0,l),
(1234.824,298.711,l),
(581.663,298.711,l),
(1222.175,1204.713,l),
(1222.175,1432.256,l),
(98.221,1432.256,l),
(98.221,1112.139,l),
(712.184,1112.139,l),
(65,197.241,l),
(65,0,l)
);
}
);
width = 1288;
}
);
unicode = 90;
},
{
glyphname = bracketleft;
layers = (
{
layerId = m007;
shapes = (
{
closed = 1;
nodes = (
(602.264,-220.176,l),
(606.712,-164.576,l),
(195.272,-164.576,l),
(195.272,1514.544,l),
(606.712,1514.544,l),
(602.264,1570.144,l),
(133,1570.144,l),
(133,-220.176,l)
);
}
);
width = 718;
},
{
layerId = m001;
shapes = (
{
closed = 1;
nodes = (
(777.375,-220.176,l),
(787.939,78.535,l),
(454.478,78.535,l),
(454.478,1271.433,l),
(786.41,1271.433,l),
(775.846,1570.144,l),
(65,1570.144,l),
(65,-220.176,l)
);
}
);
width = 830;
}
);
unicode = 91;
},
{
glyphname = backslash;
layers = (
{
layerId = m007;
shapes = (
{
closed = 1;
nodes = (
(755.72,-120.096,l),
(193.048,1472.288,l),
(133,1472.288,l),
(695.672,-120.096,l)
);
}
);
width = 890;
},
{
layerId = m001;
shapes = (
{
closed = 1;
nodes = (
(1030.216,-120.096,l),
(469.073,1472.288,l),
(65,1472.288,l),
(627.672,-120.096,l)
);
}
);
width = 1094;
}
);
unicode = 92;
},
{
glyphname = bracketright;
layers = (
{
layerId = m007;
shapes = (
{
closed = 1;
nodes = (
(584.712,-220.176,l),
(584.712,1570.144,l),
(115.448,1570.144,l),
(111,1514.544,l),
(522.44,1514.544,l),
(522.44,-164.576,l),
(111,-164.576,l),
(115.448,-220.176,l)
);
}
);
width = 718;
},
{
layerId = m001;
shapes = (
{
closed = 1;
nodes = (
(764.939,-220.176,l),
(764.939,1570.144,l),
(54.093,1570.144,l),
(43.529,1271.433,l),
(375.461,1271.433,l),
(375.461,78.535,l),
(42,78.535,l),
(52.564,-220.176,l)
);
}
);
width = 830;
}
);
unicode = 93;
},
{
glyphname = a;
layers = (
{
layerId = m007;
shapes = (
{
closed = 1;
nodes = (
(648.968,-22.24,o),
(860.248,57.824,o),
(935.864,144.56,q),
(944.76,0,l),
(993.688,0,l),
(993.688,709.456,l),
(993.688,905.168,o),
(804.648,1076.416,o),
(593.368,1076.416,qs),
(493.288,1076.416,o),
(317.592,1049.728,o),
(250.872,1023.04,q),
(250.872,965.216,l),
(404.328,1020.816,o),
(573.352,1020.816,qs),
(717.912,1020.816,o),
(871.368,958.544,o),
(931.416,825.104,o),
(931.416,705.008,qs),
(931.416,569.344,l),
(511.08,569.344,l),
(333.16,569.344,o),
(133,435.904,o),
(133,266.88,qs),
(133,120.096,o),
(335.384,-22.24,o),
(497.736,-22.24,qs)
);
},
{
closed = 1;
nodes = (
(193.048,33.36,o),
(193.048,266.88,qs),
(193.048,411.44,o),
(359.848,513.744,o),
(515.528,511.52,qs),
(931.416,511.52,l),
(931.416,211.28,l),
(791.304,33.36,o),
(513.304,33.36,qs)
);
}
);
width = 1161;
},
{
layerId = m001;
shapes = (
{
closed = 1;
nodes = (
(559.562,-22.24,o),
(741.791,37.947,o),
(805.175,97.161,q),
(823.245,0,l),
(1162.683,0,l),
(1162.683,654.412,l),
(1162.683,868.472,o),
(883.432,1076.416,o),
(629.34,1076.416,qs),
(510.912,1076.416,o),
(278.643,1042.083,o),
(193.575,1004.692,q),
(193.575,787.852,l),
(368.437,843.452,o),
(549.693,843.452,qs),
(636.151,843.452,o),
(742.208,811.76,o),
(791.553,751.712,o),
(791.553,701.95,qs),
(791.553,651.91,l),
(498.124,651.91,l),
(283.508,651.91,o),
(65,486.361,o),
(65,309.692,qs),
(65,141.502,o),
(270.442,-22.24,o),
(434.323,-22.24,qs)
);
},
{
closed = 1;
nodes = (
(424.732,196.963,o),
(424.732,320.395,qs),
(424.732,391.563,o),
(510.495,447.997,o),
(594.312,447.302,qs),
(791.553,447.302,l),
(791.553,286.201,l),
(715.659,196.963,o),
(578.327,196.963,qs)
);
}
);
width = 1260;
}
);
unicode = 97;
},
{
glyphname = b;
layers = (
{
layerId = m007;
shapes = (
{
closed = 1;
nodes = (
(856.32,-22.24,o),
(1098.736,253.536,o),
(1098.736,535.984,qs),
(1098.736,816.208,o),
(860.768,1076.416,o),
(633.92,1076.416,qs),
(516.048,1076.416,o),
(324.784,1020.816,o),
(240.272,956.32,q),
(240.272,1498.976,l),
(178,1498.976,l),
(178,0,l),
(229.152,0,l),
(238.048,126.768,l),
(318.112,51.152,o),
(504.928,-22.24,o),
(629.472,-22.24,qs)
);
},
{
closed = 1;
nodes = (
(391.504,33.36,o),
(240.272,191.264,q),
(240.272,891.824,l),
(398.176,1020.816,o),
(613.904,1020.816,qs),
(831.856,1020.816,o),
(1038.688,791.744,o),
(1038.688,535.984,qs),
(1038.688,286.896,o),
(838.528,33.36,o),
(618.352,33.36,qs)
);
}
);
width = 1232;
},
{
layerId = m001;
shapes = (
{
closed = 1;
nodes = (
(1021.257,-22.24,o),
(1280.492,258.123,o),
(1280.492,535.984,qs),
(1280.492,811.621,o),
(1034.879,1076.416,o),
(778.98,1076.416,qs),
(700.862,1076.416,o),
(552.41,1045.28,o),
(498.478,1011.364,q),
(498.478,1498.976,l),
(109,1498.976,l),
(109,0,l),
(446.075,0,l),
(465.674,87.014,l),
(533.506,32.804,o),
(689.742,-22.24,o),
(791.351,-22.24,qs)
);
},
{
closed = 1;
nodes = (
(579.376,259.652,o),
(498.478,331.932,q),
(498.478,731.279,l),
(575.345,794.524,o),
(679.456,794.524,qs),
(782.733,794.524,o),
(884.064,672.482,o),
(884.064,529.868,qs),
(884.064,389.339,o),
(784.818,259.652,o),
(680.846,259.652,qs)
);
}
);
width = 1345;
}
);
unicode = 98;
},
{
glyphname = c;
layers = (
{
layerId = m007;
shapes = (
{
closed = 1;
nodes = (
(800.2,-22.24,o),
(924.744,31.136,q),
(924.744,88.96,l),
(791.304,33.36,o),
(651.192,33.36,qs),
(406.552,33.36,o),
(193.048,273.552,o),
(193.048,527.088,qs),
(193.048,773.952,o),
(435.464,1020.816,o),
(664.536,1020.816,qs),
(804.648,1020.816,o),
(924.744,965.216,q),
(924.744,1023.04,l),
(864.696,1051.952,o),
(751.272,1076.416,o),
(657.864,1076.416,qs),
(408.776,1076.416,o),
(133,800.64,o),
(133,527.088,qs),
(133,262.432,o),
(375.416,-22.24,o),
(635.624,-22.24,qs)
);
}
);
width = 992;
},
{
layerId = m001;
shapes = (
{
closed = 1;
nodes = (
(900.39,-22.24,o),
(1061.63,47.955,q),
(1061.63,335.129,l),
(911.371,259.652,o),
(763.614,259.652,qs),
(606.127,259.652,o),
(461.428,388.227,o),
(461.428,527.088,qs),
(461.428,665.393,o),
(612.104,794.524,o),
(764.726,794.524,qs),
(927.773,794.524,o),
(1058.572,731.279,q),
(1058.572,1006.221,l),
(977.118,1044.307,o),
(801.005,1076.416,o),
(680.075,1076.416,qs),
(392.762,1076.416,o),
(65,802.169,o),
(65,527.088,qs),
(65,257.845,o),
(386.924,-22.24,o),
(676.183,-22.24,qs)
);
}
);
width = 1105;
}
);
unicode = 99;
},
{
glyphname = d;
layers = (
{
layerId = m007;
shapes = (
{
closed = 1;
nodes = (
(726.808,-22.24,o),
(913.624,51.152,o),
(993.688,126.768,q),
(1002.584,0,l),
(1053.736,0,l),
(1053.736,1498.976,l),
(991.464,1498.976,l),
(991.464,956.32,l),
(904.728,1023.04,o),
(737.928,1076.416,o),
(620.056,1076.416,qs),
(370.968,1076.416,o),
(137.448,771.728,o),
(133,513.744,qs),
(133,240.192,o),
(390.984,-22.24,o),
(602.264,-22.24,qs)
);
},
{
closed = 1;
nodes = (
(408.776,33.36,o),
(193.048,273.552,o),
(193.048,513.744,qs),
(193.048,769.504,o),
(422.12,1020.816,o),
(640.072,1020.816,qs),
(753.496,1020.816,o),
(918.072,956.32,o),
(991.464,891.824,q),
(991.464,191.264,l),
(915.848,113.424,o),
(726.808,33.36,o),
(613.384,33.36,qs)
);
}
);
width = 1232;
},
{
layerId = m001;
shapes = (
{
closed = 1;
nodes = (
(657.279,-22.24,o),
(810.457,32.804,o),
(879.818,87.014,q),
(899.417,0,l),
(1236.492,0,l),
(1236.492,1498.976,l),
(847.014,1498.976,l),
(847.014,1011.364,l),
(790.858,1044.446,o),
(650.051,1076.416,o),
(573.462,1076.416,qs),
(333.548,1076.416,o),
(66.39,777.844,o),
(65,499.983,qs),
(65,229.489,o),
(326.042,-22.24,o),
(554.141,-22.24,qs)
);
},
{
closed = 1;
nodes = (
(554.836,259.652,o),
(462.957,375.995,o),
(461.428,503.041,qs),
(461.428,647.184,o),
(571.238,794.524,o),
(672.986,794.524,qs),
(726.779,794.524,o),
(810.318,763.666,o),
(847.014,731.279,q),
(847.014,331.932,l),
(805.036,295.375,o),
(719.968,259.652,o),
(664.646,259.652,qs)
);
}
);
width = 1345;
}
);
unicode = 100;
},
{
glyphname = e;
layers = (
{
layerId = m007;
shapes = (
{
closed = 1;
nodes = (
(737.928,-22.24,o),
(878.04,4.448,o),
(946.984,31.136,q),
(946.984,88.96,l),
(880.264,60.048,o),
(742.376,33.36,o),
(673.432,33.36,qs),
(415.448,33.36,o),
(201.944,246.864,o),
(195.272,484.832,q),
(1018.152,484.832,l),
(1018.152,667.2,l),
(1018.152,847.344,o),
(813.544,1076.416,o),
(604.488,1076.416,qs),
(353.176,1076.416,o),
(137.448,798.416,o),
(133,535.984,qs),
(133,246.864,o),
(377.64,-22.24,o),
(662.312,-22.24,qs)
);
},
{
closed = 1;
nodes = (
(195.272,771.728,o),
(384.312,1023.04,o),
(604.488,1020.816,qs),
(784.632,1020.816,o),
(955.88,829.552,o),
(955.88,658.304,qs),
(955.88,542.656,l),
(195.272,542.656,l)
);
}
);
width = 1152;
},
{
layerId = m001;
shapes = (
{
closed = 1;
nodes = (
(815.183,-22.24,o),
(1024.1,13.622,o),
(1103.747,49.484,q),
(1103.747,266.324,l),
(1043.143,241.999,o),
(870.088,212.253,o),
(784.325,212.253,qs),
(621.139,212.253,o),
(447.389,311.082,o),
(422.369,414.498,q),
(1162.683,414.498,l),
(1162.683,595.337,l),
(1162.683,827.467,o),
(869.393,1076.416,o),
(623.641,1076.416,qs),
(355.51,1076.416,o),
(69.448,796.887,o),
(65,526.81,qs),
(65,259.096,o),
(393.735,-22.24,o),
(681.465,-22.24,qs)
);
},
{
closed = 1;
nodes = (
(422.369,722.8,o),
(524.256,841.089,o),
(635.873,840.394,qs),
(736.509,840.394,o),
(826.72,745.457,o),
(826.72,667.478,qs),
(826.72,617.577,l),
(422.369,617.577,l)
);
}
);
width = 1227;
}
);
unicode = 101;
},
{
glyphname = f;
layers = (
{
layerId = m007;
shapes = (
{
closed = 1;
nodes = (
(318.072,0,l),
(318.072,996.352,l),
(618.312,996.352,l),
(622.76,1054.176,l),
(318.072,1054.176,l),
(318.072,1261.008,l),
(318.072,1374.432,o),
(431.496,1478.96,o),
(562.712,1478.96,qs),
(627.208,1478.96,o),
(696.152,1454.496,q),
(696.152,1512.32,l),
(636.104,1534.56,o),
(544.92,1534.56,qs),
(404.808,1534.56,o),
(255.8,1392.224,o),
(255.8,1256.56,qs),
(255.8,1054.176,l),
(89,1054.176,l),
(89,996.352,l),
(255.8,996.352,l),
(255.8,0,l)
);
}
);
width = 745;
},
{
layerId = m001;
shapes = (
{
closed = 1;
nodes = (
(570.227,0,l),
(570.227,770.06,l),
(806.249,770.06,l),
(822.929,1054.176,l),
(570.227,1054.176,l),
(570.227,1132.572,l),
(570.227,1198.597,o),
(642.368,1261.842,o),
(718.54,1261.842,qs),
(789.152,1261.842,o),
(851.98,1238.907,q),
(851.98,1486.327,l),
(744.533,1534.56,o),
(579.957,1534.56,qs),
(387.859,1534.56,o),
(180.749,1320.361,o),
(180.749,1140.356,qs),
(180.749,1054.176,l),
(43,1054.176,l),
(43,770.06,l),
(180.749,770.06,l),
(180.749,0,l)
);
}
);
width = 883;
}
);
unicode = 102;
},
{
glyphname = g;
layers = (
{
layerId = m007;
shapes = (
{
closed = 1;
nodes = (
(1047.895,1054.176,l),
(1047.895,-106.752,l),
(1047.895,-206.832,o),
(930.023,-355.84,o),
(716.519,-435.904,o),
(576.407,-435.904,qs),
(451.863,-435.904,o),
(233.911,-409.216,o),
(158.295,-382.528,q),
(158.295,-324.704,l),
(247.255,-351.392,o),
(467.431,-380.304,o),
(574.183,-380.304,qs),
(756.551,-380.304,o),
(985.623,-226.848,o),
(985.623,-106.752,qs),
(983.399,97.856,l),
(898.887,35.584,o),
(729.863,-22.24,o),
(609.767,-22.24,qs),
(362.903,-22.24,o),
(122.711,278,o),
(127.159,533.76,qs),
(127.159,1076.416,o),
(596.423,1076.416,qs),
(847.735,1076.416,o),
(987.847,927.408,q),
(996.743,1054.176,l)
);
},
{
closed = 1;
nodes = (
(187.207,280.224,o),
(405.159,33.36,o),
(625.335,33.36,qs),
(738.759,33.36,o),
(903.335,100.08,o),
(985.623,162.352,q),
(985.623,862.912,l),
(834.391,1020.816,o),
(607.543,1020.816,qs),
(385.143,1020.816,o),
(187.207,782.848,o),
(187.207,533.76,qs)
);
}
);
width = 1225;
},
{
layerId = m001;
shapes = (
{
closed = 1;
nodes = (
(1234.507,1054.176,l),
(1234.507,-37.947,l),
(1236.036,-167.078,o),
(1038.656,-331.376,o),
(753.289,-405.324,o),
(616.235,-405.324,qs),
(484.046,-405.324,o),
(180.47,-377.107,o),
(109.441,-351.948,q),
(109.441,-122.876,l),
(192.285,-149.564,o),
(472.092,-178.476,o),
(592.605,-178.476,qs),
(706.168,-178.476,o),
(898.544,-90.767,o),
(898.544,-37.947,qs),
(897.849,61.16,l),
(834.743,29.468,o),
(644.313,-22.24,o),
(570.087,-22.24,qs),
(321.694,-22.24,o),
(61.625,267.297,o),
(63.015,538.347,qs),
(63.015,1076.416,o),
(552.156,1076.416,qs),
(746.895,1076.416,o),
(877.833,967.162,q),
(897.432,1054.176,l)
);
},
{
closed = 1;
nodes = (
(459.443,391.841,o),
(564.249,259.652,o),
(668.221,259.652,qs),
(722.014,259.652,o),
(805.553,292.734,o),
(845.029,322.897,q),
(845.029,722.244,l),
(770.247,794.524,o),
(662.661,794.524,qs),
(557.994,794.524,o),
(459.443,672.76,o),
(459.443,533.76,qs)
);
}
);
width = 1343;
}
);
unicode = 103;
},
{
glyphname = h;
layers = (
{
layerId = m007;
shapes = (
{
closed = 1;
nodes = (
(240.272,0,l),
(240.272,847.344,l),
(324.784,927.408,o),
(531.616,1020.816,o),
(651.712,1020.816,qs),
(849.648,1020.816,o),
(989.76,880.704,o),
(989.76,705.008,qs),
(989.76,0,l),
(1052.032,0,l),
(1052.032,705.008,l),
(1052.032,898.496,o),
(876.336,1076.416,o),
(685.072,1076.416,qs),
(540.512,1076.416,o),
(331.456,996.352,o),
(240.272,916.288,q),
(240.272,1498.976,l),
(178,1498.976,l),
(178,0,l)
);
}
);
width = 1219;
},
{
layerId = m001;
shapes = (
{
closed = 1;
nodes = (
(498.478,0,l),
(498.478,702.089,l),
(535.591,739.341,o),
(639.98,786.879,o),
(694.329,786.879,qs),
(782.177,786.879,o),
(850.426,717.101,o),
(850.426,636.203,qs),
(850.426,0,l),
(1239.904,0,l),
(1239.904,666.783,l),
(1239.904,878.619,o),
(1041.273,1076.416,o),
(827.074,1076.416,qs),
(728.384,1076.416,o),
(559.082,1026.932,o),
(498.478,983.564,q),
(498.478,1498.976,l),
(109,1498.976,l),
(109,0,l)
);
}
);
width = 1338;
}
);
unicode = 104;
},
{
glyphname = i;
layers = (
{
layerId = m007;
shapes = (
{
closed = 1;
nodes = (
(255.84,1356.64,l),
(255.84,1454.496,l),
(178,1454.496,l),
(178,1356.64,l)
);
},
{
closed = 1;
nodes = (
(246.944,0,l),
(246.944,1054.176,l),
(184.672,1056.4,l),
(184.672,0,l)
);
}
);
width = 434;
},
{
layerId = m001;
shapes = (
{
closed = 1;
nodes = (
(529.336,1208.327,l),
(529.336,1494.25,l),
(109,1494.25,l),
(109,1208.327,l)
);
},
{
closed = 1;
nodes = (
(526.556,0,l),
(526.556,1054.176,l),
(111.085,1054.871,l),
(111.085,0,l)
);
}
);
width = 639;
}
);
unicode = 105;
},
{
glyphname = j;
layers = (
{
layerId = m007;
shapes = (
{
closed = 1;
nodes = (
(398.576,1356.64,l),
(398.576,1454.496,l),
(320.736,1454.496,l),
(320.736,1356.64,l)
);
},
{
closed = 1;
nodes = (
(240.672,-520.416,o),
(389.68,-373.632,o),
(389.68,-244.64,qs),
(389.68,1054.176,l),
(327.408,1054.176,l),
(327.408,-244.64,l),
(327.408,-251.312,o),
(327.408,-257.984,qs),
(325.184,-360.288,o),
(211.76,-464.816,o),
(91.664,-464.816,qs),
(27.168,-464.816,o),
(-44,-440.352,q),
(-44,-498.176,l),
(22.72,-520.416,o),
(111.68,-520.416,qs)
);
}
);
width = 572;
},
{
layerId = m001;
shapes = (
{
closed = 1;
nodes = (
(657.926,1208.327,l),
(657.926,1494.25,l),
(237.59,1494.25,l),
(237.59,1208.327,l)
);
},
{
closed = 1;
nodes = (
(457.21,-520.416,o),
(655.146,-315.53,o),
(655.146,-142.197,qs),
(655.146,1054.176,l),
(239.675,1054.176,l),
(239.675,-117.733,l),
(239.675,-121.347,o),
(239.675,-126.49,qs),
(240.509,-190.569,o),
(189.774,-247.698,o),
(120.135,-247.698,qs),
(51.052,-247.698,o),
(-14,-224.763,q),
(-14,-472.183,l),
(110.822,-520.416,o),
(259.413,-520.416,qs)
);
}
);
width = 766;
}
);
unicode = 106;
},
{
glyphname = k;
layers = (
{
layerId = m007;
shapes = (
{
closed = 1;
nodes = (
(240.272,0,l),
(240.272,431.456,l),
(435.984,611.6,l),
(874.112,0,l),
(940.832,0,l),
(478.24,649.408,l),
(914.144,1054.176,l),
(834.08,1054.176,l),
(240.272,507.072,l),
(240.272,1498.976,l),
(178,1498.976,l),
(178,0,l)
);
}
);
width = 1032;
},
{
layerId = m001;
shapes = (
{
closed = 1;
nodes = (
(498.478,0,l),
(498.478,315.252,l),
(593.276,409.772,l),
(869.33,0,l),
(1281.604,0,l),
(835.831,614.241,l),
(1257.974,1054.176,l),
(817.066,1054.176,l),
(498.478,737.951,l),
(498.478,1498.976,l),
(109,1498.976,l),
(109,0,l)
);
}
);
width = 1326;
}
);
unicode = 107;
},
{
glyphname = l;
layers = (
{
layerId = m007;
shapes = (
{
closed = 1;
nodes = (
(360.368,-22.24,o),
(411.52,-17.792,o),
(431.536,-11.12,q),
(431.536,46.704,l),
(395.952,35.584,o),
(335.904,35.584,qs),
(286.976,35.584,o),
(240.272,95.632,o),
(240.272,169.024,qs),
(240.272,1498.976,l),
(178,1498.976,l),
(178,177.92,l),
(178,68.944,o),
(262.512,-22.24,o),
(340.352,-22.24,qs)
);
}
);
width = 509;
},
{
layerId = m001;
shapes = (
{
closed = 1;
nodes = (
(523.776,-22.24,o),
(623.856,-5.56,o),
(688.213,20.989,q),
(688.213,268.409,l),
(643.455,251.173,o),
(581.878,251.173,qs),
(537.537,251.173,o),
(498.478,295.931,o),
(498.478,349.446,qs),
(498.478,1498.976,l),
(109,1498.976,l),
(109,303.298,l),
(109,131.633,o),
(268.433,-22.24,o),
(450.245,-22.24,qs)
);
}
);
width = 720;
}
);
unicode = 108;
},
{
glyphname = m;
layers = (
{
layerId = m007;
shapes = (
{
closed = 1;
nodes = (
(240.272,0,l),
(240.272,847.344,l),
(324.784,922.96,o),
(536.064,1020.816,o),
(638.368,1020.816,qs),
(802.944,1020.816,o),
(920.816,865.136,o),
(916.368,696.112,q),
(916.368,0,l),
(978.64,0,l),
(978.64,696.112,l),
(978.64,793.968,o),
(960.848,865.136,q),
(1116.528,1020.816,o),
(1341.152,1020.816,qs),
(1505.728,1020.816,o),
(1652.512,878.48,o),
(1652.512,707.232,qs),
(1652.512,0,l),
(1714.784,0,l),
(1714.784,709.456,l),
(1714.784,896.272,o),
(1541.312,1076.416,o),
(1361.168,1076.416,qs),
(1116.528,1076.416,o),
(938.608,918.512,q),
(905.248,996.352,o),
(765.136,1076.416,o),
(642.816,1076.416,qs),
(427.088,1076.416,o),
(240.272,916.288,q),
(229.152,1054.176,l),
(178,1054.176,l),
(178,0,l)
);
}
);
width = 1882;
},
{
layerId = m001;
shapes = (
{
closed = 1;
nodes = (
(483.188,0,l),
(483.188,705.147,l),
(521.83,742.538,o),
(613.848,786.879,o),
(659.579,786.879,qs),
(727.828,786.879,o),
(781.482,719.881,o),
(780.092,648.713,qs),
(780.092,0,l),
(1140.519,0,l),
(1140.519,659.416,l),
(1140.519,691.525,o),
(1134.959,718.352,q),
(1200.428,786.879,o),
(1296.616,786.879,qs),
(1374.039,786.879,o),
(1436.728,720.993,o),
(1436.728,643.014,qs),
(1436.728,0,l),
(1818.561,0,l),
(1818.561,688.05,l),
(1818.561,885.569,o),
(1646.618,1076.416,o),
(1461.887,1076.416,qs),
(1246.298,1076.416,o),
(1083.668,959.795,q),
(1048.779,1019.287,o),
(928.544,1076.416,o),
(827.63,1076.416,qs),
(640.953,1076.416,o),
(478.601,966.745,q),
(467.481,1054.176,l),
(109,1054.176,l),
(109,0,l)
);
}
);
width = 1917;
}
);
unicode = 109;
},
{
glyphname = n;
layers = (
{
layerId = m007;
shapes = (
{
closed = 1;
nodes = (
(240.272,0,l),
(240.272,847.344,l),
(324.784,927.408,o),
(531.616,1020.816,o),
(651.712,1020.816,qs),
(849.648,1020.816,o),
(989.76,880.704,o),
(989.76,705.008,qs),
(989.76,0,l),
(1052.032,0,l),
(1052.032,705.008,l),
(1052.032,898.496,o),
(876.336,1076.416,o),
(685.072,1076.416,qs),
(540.512,1076.416,o),
(331.456,996.352,o),
(240.272,916.288,q),
(229.152,1054.176,l),
(178,1054.176,l),
(178,0,l)
);
}
);
width = 1219;
},
{
layerId = m001;
shapes = (
{
closed = 1;
nodes = (
(498.478,0,l),
(498.478,702.089,l),
(535.591,739.341,o),
(639.98,786.879,o),
(694.329,786.879,qs),
(782.177,786.879,o),
(850.426,718.63,o),
(850.426,639.261,qs),
(850.426,0,l),
(1239.904,0,l),
(1239.904,686.66,l),
(1239.904,886.264,o),
(1065.737,1076.416,o),
(877.531,1076.416,qs),
(757.435,1076.416,o),
(556.024,1019.287,o),
(483.188,969.803,q),
(472.068,1054.176,l),
(109,1054.176,l),
(109,0,l)
);
}
);
width = 1338;
}
);
unicode = 110;
},
{
glyphname = o;
layers = (
{
layerId = m007;
shapes = (
{
closed = 1;
nodes = (
(866.92,-22.24,o),
(1093.768,251.312,o),
(1093.768,527.088,qs),
(1093.768,800.64,o),
(862.472,1076.416,o),
(613.384,1076.416,qs),
(364.296,1076.416,o),
(133,800.64,o),
(133,527.088,qs),
(133,253.536,o),
(364.296,-22.24,o),
(613.384,-22.24,qs)
);
},
{
closed = 1;
nodes = (
(459.928,33.36,o),
(275.336,142.336,o),
(193.048,362.512,o),
(193.048,527.088,qs),
(193.048,780.624,o),
(388.76,1020.816,o),
(613.384,1020.816,qs),
(766.84,1020.816,o),
(951.432,911.84,o),
(1033.72,691.664,o),
(1033.72,527.088,qs),
(1033.72,362.512,o),
(951.432,142.336,o),
(766.84,33.36,o),
(613.384,33.36,qs)
);
}
);
width = 1228;
},
{
layerId = m001;
shapes = (
{
closed = 1;
nodes = (
(979.342,-22.24,o),
(1278.053,251.312,o),
(1278.053,527.088,qs),
(1278.053,800.64,o),
(976.423,1076.416,o),
(670.762,1076.416,qs),
(363.572,1076.416,o),
(65,800.64,o),
(65,527.088,qs),
(65,253.536,o),
(363.572,-22.24,o),
(670.762,-22.24,qs)
);
},
{
closed = 1;
nodes = (
(596.814,259.652,o),
(503.962,315.113,o),
(461.428,434.375,o),
(461.428,527.088,qs),
(461.428,669.007,o),
(560.813,794.524,o),
(670.762,794.524,qs),
(746.239,794.524,o),
(839.091,739.063,o),
(881.625,621.33,o),
(881.625,527.088,qs),
(881.625,432.846,o),
(839.091,315.113,o),
(746.239,259.652,o),
(670.762,259.652,qs)
);
}
);
width = 1342;
}
);
unicode = 111;
},
{
glyphname = p;
layers = (
{
layerId = m007;
shapes = (
{
closed = 1;
nodes = (
(240.272,-480.384,l),
(240.272,97.856,l),
(324.784,35.584,o),
(496.032,-22.24,o),
(616.128,-22.24,qs),
(862.992,-22.24,o),
(1103.184,278,o),
(1098.736,533.76,qs),
(1098.736,1076.416,o),
(629.472,1076.416,qs),
(378.16,1076.416,o),
(238.048,927.408,q),
(229.152,1054.176,l),
(178,1054.176,l),
(178,-480.384,l)
);
},
{
closed = 1;
nodes = (
(487.136,33.36,o),
(322.56,100.08,o),
(240.272,162.352,q),
(240.272,862.912,l),
(391.504,1020.816,o),
(618.352,1020.816,qs),
(840.752,1020.816,o),
(1038.688,782.848,o),
(1038.688,533.76,qs),
(1038.688,280.224,o),
(820.736,33.36,o),
(600.56,33.36,qs)
);
}
);
width = 1232;
},
{
layerId = m001;
shapes = (
{
closed = 1;
nodes = (
(498.478,-455.92,l),
(498.478,42.812,l),
(556.997,12.649,o),
(697.665,-22.24,o),
(773.42,-22.24,qs),
(1020.284,-22.24,o),
(1281.882,267.297,o),
(1280.492,538.347,qs),
(1280.492,1076.416,o),
(791.351,1076.416,qs),
(596.612,1076.416,o),
(465.674,967.162,q),
(446.075,1054.176,l),
(109,1054.176,l),
(109,-455.92,l)
);
},
{
closed = 1;
nodes = (
(621.493,259.652,o),
(537.954,292.734,o),
(498.478,322.897,q),
(498.478,722.244,l),
(573.26,794.524,o),
(680.846,794.524,qs),
(785.513,794.524,o),
(884.064,672.76,o),
(884.064,533.76,qs),
(884.064,391.841,o),
(779.258,259.652,o),
(675.286,259.652,qs)
);
}
);
width = 1345;
}
);
unicode = 112;
},
{
glyphname = q;
layers = (
{
layerId = m007;
shapes = (
{
closed = 1;
nodes = (
(985.623,-480.384,l),
(985.623,97.856,l),
(901.111,35.584,o),
(729.863,-22.24,o),
(609.767,-22.24,qs),
(362.903,-22.24,o),
(122.711,278,o),
(127.159,533.76,qs),
(127.159,1076.416,o),
(596.423,1076.416,qs),
(845.511,1076.416,o),
(987.847,927.408,q),
(996.743,1054.176,l),
(1047.895,1054.176,l),
(1047.895,-480.384,l)
);
},
{
closed = 1;
nodes = (
(738.759,33.36,o),
(903.335,100.08,o),
(985.623,162.352,q),
(985.623,862.912,l),
(834.391,1020.816,o),
(607.543,1020.816,qs),
(385.143,1020.816,o),
(187.207,782.848,o),
(187.207,533.76,qs),
(187.207,280.224,o),
(405.159,33.36,o),
(625.335,33.36,qs)
);
}
);
width = 1225;
},
{
layerId = m001;
shapes = (
{
closed = 1;
nodes = (
(845.029,-455.92,l),
(845.029,42.812,l),
(786.51,12.649,o),
(645.842,-22.24,o),
(570.087,-22.24,qs),
(323.223,-22.24,o),
(61.625,267.297,o),
(63.015,538.347,qs),
(63.015,1076.416,o),
(552.156,1076.416,qs),
(744.671,1076.416,o),
(877.833,967.162,q),
(897.432,1054.176,l),
(1234.507,1054.176,l),
(1234.507,-455.92,l)
);
},
{
closed = 1;
nodes = (
(722.014,259.652,o),
(805.553,292.734,o),
(845.029,322.897,q),
(845.029,722.244,l),
(770.247,794.524,o),
(662.661,794.524,qs),
(557.994,794.524,o),
(459.443,672.76,o),
(459.443,533.76,qs),
(459.443,391.841,o),
(564.249,259.652,o),
(668.221,259.652,qs)
);
}
);
width = 1343;
}
);
unicode = 113;
},
{
glyphname = r;
layers = (
{
layerId = m007;
shapes = (
{
closed = 1;
nodes = (
(240.272,0,l),
(240.272,836.224,l),
(413.744,956.32,o),
(640.592,1018.592,q),
(640.592,1076.416,l),
(538.288,1051.952,o),
(324.784,956.32,o),
(240.272,896.272,q),
(229.152,1054.176,l),
(178,1054.176,l),
(178,0,l)
);
}
);
width = 696;
},
{
layerId = m001;
shapes = (
{
closed = 1;
nodes = (
(498.478,0,l),
(498.478,698.614,l),
(635.254,766.724,o),
(863.631,786.184,q),
(863.631,1076.416,l),
(765.914,1068.771,o),
(569.229,1006.777,o),
(498.478,963.548,q),
(487.358,1054.176,l),
(109,1054.176,l),
(109,0,l)
);
}
);
width = 896;
}
);
unicode = 114;
},
{
glyphname = s;
layers = (
{
layerId = m007;
shapes = (
{
closed = 1;
nodes = (
(646.744,-22.24,o),
(838.008,108.976,o),
(838.008,257.984,qs),
(838.008,393.648,o),
(648.968,524.864,o),
(475.496,573.792,q),
(353.176,613.824,o),
(246.424,662.752,o),
(193.048,742.816,o),
(193.048,813.984,qs),
(193.048,918.512,o),
(257.544,969.664,qs),
(286.456,994.128,o),
(399.88,1018.592,o),
(479.944,1020.816,q),
(491.064,1020.816,o),
(502.184,1020.816,qs),
(568.904,1020.816,o),
(695.672,1003.024,o),
(757.944,985.232,q),
(757.944,1043.056,l),
(702.344,1060.848,o),
(571.128,1076.416,o),
(493.288,1076.416,qs),
(302.024,1076.416,o),
(133,945.2,o),
(133,811.76,qs),
(133,689.44,o),
(286.456,573.792,o),
(404.328,538.208,qs),
(439.912,527.088,o),
(457.704,520.416,qs),
(475.496,513.744,o),
(506.632,504.848,q),
(611.16,469.264,o),
(648.968,451.472,q),
(717.912,422.56,o),
(777.96,338.048,o),
(777.96,257.984,qs),
(777.96,146.784,o),
(648.968,40.032,o),
(506.632,33.36,q),
(484.392,33.36,o),
(459.928,33.36,qs),
(382.088,33.36,o),
(235.304,53.376,o),
(164.136,75.616,q),
(164.136,17.792,l),
(226.408,0,o),
(382.088,-22.24,o),
(466.6,-22.24,qs)
);
}
);
width = 972;
},
{
layerId = m001;
shapes = (
{
closed = 1;
nodes = (
(756.108,-22.24,o),
(1014.648,147.201,o),
(1014.648,306.912,qs),
(1014.648,441.047,o),
(869.949,576.85,o),
(699.535,625.778,qs),
(638.375,644.404,o),
(571.377,668.868,o),
(522.588,701.533,o),
(508.827,726.831,q),
(464.486,768.67,o),
(481.583,798.416,q),
(490.618,819.822,o),
(579.578,833.583,o),
(648.939,834.278,qs),
(658.53,834.278,o),
(665.063,834.278,qs),
(731.783,834.278,o),
(883.015,805.783,o),
(949.874,778.817,q),
(949.874,1029.295,l),
(889.687,1050.145,o),
(665.202,1076.416,o),
(569.014,1076.416,qs),
(312.003,1076.416,o),
(65,914.62,o),
(65,756.716,qs),
(65,642.041,o),
(181.76,515.69,o),
(299.632,469.403,qs),
(327.571,458.283,o),
(354.537,448.553,qs),
(369.271,443.41,o),
(388.175,437.572,q),
(442.246,418.807,o),
(496.873,402.544,qs),
(561.23,382.806,o),
(618.22,342.635,o),
(618.22,306.912,qs),
(618.22,261.459,o),
(544.272,220.454,o),
(460.038,219.898,qs),
(446.972,219.898,o),
(436.269,219.898,qs),
(361.487,219.898,o),
(155.072,261.32,o),
(80.846,294.263,q),
(80.846,42.256,l),
(152.292,15.29,o),
(382.893,-22.24,o),
(511.746,-22.24,qs)
);
}
);
width = 1079;
}
);
unicode = 115;
},
{
glyphname = t;
layers = (
{
layerId = m007;
shapes = (
{
closed = 1;
nodes = (
(587.176,-22.24,o),
(671.688,0,q),
(671.688,57.824,l),
(598.296,33.36,o),
(547.144,33.36,qs),
(322.52,33.36,o),
(322.52,253.536,qs),
(322.52,996.352,l),
(636.104,996.352,l),
(640.552,1054.176,l),
(322.52,1054.176,l),
(322.52,1369.984,l),
(260.248,1369.984,l),
(260.248,1054.176,l),
(89,1054.176,l),
(89,996.352,l),
(260.248,996.352,l),
(260.248,253.536,l),
(260.248,124.544,o),
(402.584,-22.24,o),
(527.128,-22.24,qs)
);
}
);
width = 738;
},
{
layerId = m001;
shapes = (
{
closed = 1;
nodes = (
(705.069,-22.24,o),
(830.864,25.993,q),
(830.864,273.413,l),
(766.646,250.478,o),
(700.204,250.478,qs),
(558.146,250.478,o),
(558.146,383.501,qs),
(558.146,770.06,l),
(796.809,770.06,l),
(805.844,1054.176,l),
(558.146,1054.176,l),
(558.146,1325.643,l),
(168.668,1325.643,l),
(168.668,1054.176,l),
(28,1054.176,l),
(28,770.06,l),
(168.668,770.06,l),
(168.668,363.624,l),
(168.668,171.943,o),
(370.635,-22.24,o),
(560.926,-22.24,qs)
);
}
);
width = 852;
}
);
unicode = 116;
},
{
glyphname = u;
layers = (
{
layerId = m007;
shapes = (
{
closed = 1;
nodes = (
(698.536,-22.24,o),
(889.8,55.6,o),
(978.76,137.888,q),
(989.88,0,l),
(1041.032,0,l),
(1041.032,1054.176,l),
(978.76,1054.176,l),
(978.76,206.832,l),
(900.92,126.768,o),
(707.432,33.36,o),
(589.56,33.36,qs),
(404.968,33.36,o),
(229.272,211.28,o),
(229.272,386.976,qs),
(229.272,1054.176,l),
(167,1054.176,l),
(167,386.976,l),
(167,191.264,o),
(367.16,-22.24,o),
(556.2,-22.24,qs)
);
}
);
width = 1219;
},
{
layerId = m001;
shapes = (
{
closed = 1;
nodes = (
(600.485,-22.24,o),
(784.104,32.665,o),
(854.716,84.373,q),
(865.836,0,l),
(1228.904,0,l),
(1228.904,1054.176,l),
(839.426,1054.176,l),
(839.426,352.087,l),
(805.927,314.835,o),
(704.179,267.297,o),
(650.525,267.297,qs),
(568.376,267.297,o),
(487.478,347.361,o),
(487.478,426.73,qs),
(487.478,1054.176,l),
(98,1054.176,l),
(98,386.976,l),
(98,189.735,o),
(302.747,-22.24,o),
(485.671,-22.24,qs)
);
}
);
width = 1338;
}
);
unicode = 117;
},
{
glyphname = v;
layers = (
{
layerId = m007;
shapes = (
{
closed = 1;
nodes = (
(633.4,0,l),
(1042.616,1054.176,l),
(980.344,1054.176,l),
(586.696,35.584,l),
(197.496,1054.176,l),
(133,1054.176,l),
(544.44,0,l)
);
}
);
width = 1176;
},
{
layerId = m001;
shapes = (
{
closed = 1;
nodes = (
(892.606,0,l),
(1307.938,1054.176,l),
(903.17,1054.176,l),
(685.357,402.544,l),
(470.463,1054.176,l),
(65,1054.176,l),
(481.027,0,l)
);
}
);
width = 1372;
}
);
unicode = 118;
},
{
glyphname = w;
layers = (
{
layerId = m007;
shapes = (
{
closed = 1;
nodes = (
(491.064,0,l),
(786.856,914.064,l),
(1075.976,0,l),
(1156.04,0,l),
(1427.368,1054.176,l),
(1365.096,1054.176,l),
(1116.008,44.48,l),
(797.976,1054.176,l),
(744.6,1054.176,l),
(744.6,947.424,l),
(451.032,44.48,l),
(197.496,1054.176,l),
(133,1054.176,l),
(406.552,0,l)
);
}
);
width = 1561;
},
{
layerId = m001;
shapes = (
{
closed = 1;
nodes = (
(698.284,0,l),
(870.227,519.582,l),
(1040.085,0,l),
(1390.782,0,l),
(1668.226,1054.176,l),
(1297.096,1054.176,l),
(1161.154,490.948,l),
(997.551,1054.176,l),
(714.825,1054.176,l),
(714.825,907.67,l),
(577.215,490.948,l),
(436.825,1054.176,l),
(65,1054.176,l),
(343.139,0,l)
);
}
);
width = 1732;
}
);
unicode = 119;
},
{
glyphname = x;
layers = (
{
layerId = m007;
shapes = (
{
closed = 1;
nodes = (
(177.72,0,l),
(540.232,495.952,l),
(904.968,0,l),
(973.912,0,l),
(578.04,535.984,l),
(958.344,1054.176,l),
(889.4,1054.176,l),
(540.232,580.464,l),
(191.064,1054.176,l),
(122.12,1054.176,l),
(506.872,535.984,l),
(111,0,l)
);
}
);
width = 1085;
},
{
layerId = m001;
shapes = (
{
closed = 1;
nodes = (
(474.506,0,l),
(667.299,258.957,l),
(860.787,0,l),
(1285.988,0,l),
(879.413,535.984,l),
(1268.891,1054.176,l),
(848.277,1054.176,l),
(667.299,811.343,l),
(486.321,1054.176,l),
(65.707,1054.176,l),
(456.575,535.984,l),
(50,0,l)
);
}
);
width = 1336;
}
);
unicode = 120;
},
{
glyphname = y;
layers = (
{
layerId = m007;
shapes = (
{
closed = 1;
nodes = (
(186.376,-380.304,o),
(257.544,-391.424,o),
(297.576,-391.424,qs),
(422.12,-391.424,o),
(584.472,-171.248,o),
(653.416,-2.224,qs),
(660.088,13.344,o),
(662.312,20.016,q),
(1131.576,1054.176,l),
(1069.304,1054.176,l),
(622.28,73.392,l),
(197.496,1054.176,l),
(133,1054.176,l),
(591.144,4.448,l),
(588.92,0,o),
(586.696,-8.896,q),
(528.872,-155.68,o),
(397.656,-335.824,o),
(293.128,-335.824,qs),
(219.736,-335.824,o),
(157.464,-311.36,q),
(157.464,-369.184,l)
);
}
);
width = 1221;
},
{
layerId = m001;
shapes = (
{
closed = 1;
nodes = (
(240.696,-372.659,o),
(357.734,-391.424,o),
(443.636,-391.424,qs),
(638.514,-391.424,o),
(900.251,-151.371,o),
(990.601,65.052,qs),
(997.273,80.62,o),
(1001.026,93.408,q),
(1396.898,1054.176,l),
(992.13,1054.176,l),
(731.644,386.837,l),
(471.992,1054.176,l),
(65,1054.176,l),
(539.963,24.325,l),
(537.739,21.406,o),
(537.044,18.626,q),
(499.097,-48.65,o),
(399.99,-118.706,o),
(318.397,-118.706,qs),
(245.005,-118.706,o),
(184.262,-95.771,q),
(184.262,-349.307,l)
);
}
);
width = 1417;
}
);
unicode = 121;
},
{
glyphname = z;
layers = (
{
layerId = m007;
shapes = (
{
closed = 1;
nodes = (
(920.296,0,l),
(920.296,57.824,l),
(201.944,57.824,l),
(906.952,1000.8,l),
(906.952,1054.176,l),
(166.36,1054.176,l),
(166.36,996.352,l),
(840.232,996.352,l),
(133,51.152,l),
(133,0,l)
);
}
);
width = 1054;
},
{
layerId = m001;
shapes = (
{
closed = 1;
nodes = (
(1038.834,0,l),
(1038.834,284.116,l),
(571.238,284.116,l),
(1022.432,823.436,l),
(1022.432,1054.176,l),
(83.07,1054.176,l),
(83.07,753.241,l),
(529.121,753.241,l),
(65,210.168,l),
(65,0,l)
);
}
);
width = 1103;
}
);
unicode = 122;
},
{
glyphname = braceleft;
layers = (
{
layerId = m007;
shapes = (
{
closed = 1;
nodes = (
(489.08,-231.296,l),
(377.88,-231.296,o),
(268.904,-137.888,o),
(268.904,-26.688,qs),
(268.904,418.112,l),
(268.904,522.64,o),
(204.408,622.72,o),
(111,633.84,q),
(111,693.888,l),
(204.408,705.008,o),
(268.904,807.312,o),
(268.904,909.616,qs),
(268.904,1354.416,l),
(268.904,1465.616,o),
(377.88,1559.024,o),
(489.08,1559.024,qs),
(522.44,1559.024,l),
(522.44,1501.2,l),
(489.08,1501.2,l),
(330.064,1502.312,o),
(331.176,1338.848,qs),
(331.176,867.36,l),
(331.176,807.312,o),
(302.264,747.264,qs),
(271.128,682.768,o),
(191.064,662.752,q),
(273.352,642.736,o),
(302.264,580.464,qs),
(331.176,520.416,o),
(331.176,460.368,qs),
(331.176,-11.12,l),
(334.512,-176.808,o),
(489.08,-173.472,qs),
(522.44,-173.472,l),
(522.44,-231.296,l)
);
}
);
width = 612;
},
{
layerId = m001;
shapes = (
{
closed = 1;
nodes = (
(469.008,-231.296,l),
(322.641,-231.296,o),
(172.382,-72.141,o),
(172.382,78.813,qs),
(172.382,372.242,l),
(172.382,458.422,o),
(112.473,540.154,o),
(42,549.745,q),
(42,776.454,l),
(112.473,786.045,o),
(172.382,870.001,o),
(172.382,955.486,qs),
(172.382,1248.915,l),
(172.382,1401.398,o),
(322.641,1559.024,o),
(469.008,1559.024,qs),
(704.196,1559.024,l),
(704.196,1259.618,l),
(643.314,1259.618,l),
(546.223,1259.966,o),
(546.57,1158.426,qs),
(546.57,873.476,l),
(546.57,806.879,o),
(522.002,755.168,qs),
(493.675,696.71,o),
(438.567,662.752,q),
(491.804,632.033,o),
(519.187,578.171,qs),
(546.57,525.003,o),
(546.57,452.723,qs),
(546.57,169.302,l),
(547.612,67.068,o),
(643.314,68.11,qs),
(704.196,68.11,l),
(704.196,-231.296,l)
);
}
);
width = 725;
}
);
unicode = 123;
},
{
glyphname = bar;
layers = (
{
layerId = m007;
shapes = (
{
closed = 1;
nodes = (
(195.272,-266.88,l),
(195.272,1634.64,l),
(133,1634.64,l),
(133,-266.88,l)
);
}
);
width = 329;
},
{
layerId = m001;
shapes = (
{
closed = 1;
nodes = (
(454.478,-266.88,l),
(454.478,1634.64,l),
(65,1634.64,l),
(65,-266.88,l)
);
}
);
width = 519;
}
);
unicode = 124;
},
{
glyphname = braceright;
layers = (
{
layerId = m007;
shapes = (
{
closed = 1;
nodes = (
(144.36,-231.296,l),
(255.56,-231.296,o),
(364.536,-137.888,o),
(364.536,-26.688,qs),
(364.536,418.112,l),
(364.536,522.64,o),
(429.032,622.72,o),
(522.44,633.84,q),
(522.44,693.888,l),
(429.032,705.008,o),
(364.536,807.312,o),
(364.536,909.616,qs),
(364.536,1354.416,l),
(364.536,1465.616,o),
(255.56,1559.024,o),
(144.36,1559.024,qs),
(111,1559.024,l),
(111,1501.2,l),
(144.36,1501.2,l),
(303.376,1502.312,o),
(302.264,1338.848,qs),
(302.264,867.36,l),
(302.264,807.312,o),
(331.176,747.264,qs),
(362.312,682.768,o),
(442.376,662.752,q),
(360.088,642.736,o),
(331.176,580.464,qs),
(302.264,520.416,o),
(302.264,460.368,qs),
(302.264,-11.12,l),
(298.928,-176.808,o),
(144.36,-173.472,qs),
(111,-173.472,l),
(111,-231.296,l)
);
}
);
width = 612;
},
{
layerId = m001;
shapes = (
{
closed = 1;
nodes = (
(277.188,-231.296,l),
(423.555,-231.296,o),
(573.814,-72.141,o),
(573.814,78.813,qs),
(573.814,372.242,l),
(573.814,458.422,o),
(633.723,540.154,o),
(704.196,549.745,q),
(704.196,776.454,l),
(633.723,786.045,o),
(573.814,870.001,o),
(573.814,955.486,qs),
(573.814,1248.915,l),
(573.814,1401.398,o),
(423.555,1559.024,o),
(277.188,1559.024,qs),
(42,1559.024,l),
(42,1259.618,l),
(102.882,1259.618,l),
(199.974,1259.966,o),
(199.626,1158.426,qs),
(199.626,873.476,l),
(199.626,806.879,o),
(224.194,755.168,qs),
(252.521,696.71,o),
(307.629,662.752,q),
(254.392,632.033,o),
(227.009,578.171,qs),
(199.626,525.003,o),
(199.626,452.723,qs),
(199.626,169.302,l),
(198.584,67.068,o),
(102.882,68.11,qs),
(42,68.11,l),
(42,-231.296,l)
);
}
);
width = 725;
}
);
unicode = 125;
},
{
glyphname = asciitilde;
layers = (
{
layerId = m007;
shapes = (
{
closed = 1;
nodes = (
(998.136,562.672,o),
(1131.576,624.944,o),
(1171.608,680.544,q),
(1171.608,753.936,l),
(1116.008,682.768,o),
(998.136,618.272,o),
(915.848,618.272,qs),
(853.576,618.272,o),
(733.48,660.528,o),
(660.088,700.56,qs),
(586.696,738.368,o),
(459.928,780.624,o),
(390.984,780.624,qs),
(310.92,780.624,o),
(173.032,716.128,o),
(133,662.752,q),
(133,589.36,l),
(188.6,660.528,o),
(308.696,725.024,o),
(390.984,725.024,qs),
(455.48,725.024,o),
(577.8,682.768,o),
(653.416,644.96,q),
(724.584,604.928,o),
(849.128,562.672,o),
(915.848,562.672,qs)
);
}
);
width = 1305;
},
{
layerId = m001;
shapes = (
{
closed = 1;
nodes = (
(956.129,440.352,o),
(1095.685,496.508,o),
(1134.188,550.579,q),
(1134.188,883.901,l),
(1080.117,815.791,o),
(956.129,755.882,o),
(870.783,755.882,qs),
(808.511,755.882,o),
(686.886,793.551,o),
(607.378,830.525,qs),
(527.87,865.275,o),
(399.573,902.944,o),
(330.629,902.944,qs),
(247.507,902.944,o),
(103.503,844.564,o),
(65,792.717,q),
(65,459.395,l),
(119.071,527.505,o),
(245.283,587.414,o),
(330.629,587.414,qs),
(395.125,587.414,o),
(518.974,549.745,o),
(600.706,514.995,q),
(677.99,478.021,o),
(804.063,440.352,o),
(870.783,440.352,qs)
);
}
);
width = 1198;
}
);
unicode = 126;
},
{
glyphname = cent;
layers = (
{
layerId = m007;
shapes = (
{
closed = 1;
nodes = (
(390.009,36.016,o),
(193.048,286.896,o),
(193.048,527.088,qs),
(200.609,1001.555,o),
(628.781,1019.868,qs),
(788.02,1025.983,o),
(924.744,965.216,q),
(924.744,1023.04,l),
(822.892,1077.899,o),
(653.416,1076.416,q),
(653.416,1245.44,l),
(595.592,1245.44,l),
(595.592,1074.192,l),
(375.416,1058.624,o),
(133,780.624,o),
(133,527.088,qs),
(133,271.328,o),
(355.4,-8.896,o),
(595.592,-20.016,q),
(595.592,-191.264,l),
(653.416,-191.264,l),
(653.416,-22.24,l),
(795.752,-20.016,o),
(924.744,31.136,q),
(924.744,88.96,l),
(777.081,30.445,o),
(624.504,33.36,qs)
);
}
);
width = 1059;
},
{
layerId = m001;
shapes = (
{
closed = 1;
nodes = (
(602.486,260.482,o),
(461.428,390.868,o),
(461.428,527.088,qs),
(463.791,788.505,o),
(753.552,794.228,qs),
(917.225,797.668,o),
(1058.572,731.279,q),
(1058.572,1006.221,l),
(948.764,1058.531,o),
(807.121,1068.771,q),
(807.121,1245.44,l),
(467.961,1245.44,l),
(467.961,1049.728,l),
(279.894,1009.696,o),
(65,748.515,o),
(65,527.088,qs),
(65,304.966,o),
(273.639,43.09,o),
(467.961,4.448,q),
(467.961,-191.264,l),
(807.121,-191.264,l),
(807.121,-14.595,l),
(942.577,-3.197,o),
(1061.63,47.955,q),
(1061.63,335.129,l),
(915.336,258.741,o),
(755.274,259.652,qs)
);
}
);
width = 1126;
}
);
unicode = 162;
},
{
glyphname = sterling;
layers = (
{
layerId = m007;
shapes = (
{
closed = 1;
nodes = (
(993.688,0,l),
(993.688,57.824,l),
(339.832,57.824,l),
(406.552,106.752,o),
(406.552,249.088,qs),
(406.552,731.696,l),
(915.848,731.696,l),
(915.848,789.52,l),
(406.552,789.52,l),
(406.552,1140.912,l),
(406.552,1267.68,o),
(564.456,1398.896,o),
(711.24,1398.896,qs),
(769.064,1398.896,o),
(886.936,1378.88,o),
(918.072,1361.088,q),
(918.072,1418.912,l),
(849.128,1454.496,o),
(695.672,1454.496,qs),
(551.112,1454.496,o),
(446.584,1376.656,qs),
(344.28,1296.592,o),
(344.28,1138.688,qs),
(344.28,789.52,l),
(177.48,789.52,l),
(177.48,731.696,l),
(344.28,731.696,l),
(344.28,246.864,l),
(344.28,57.824,o),
(195.272,57.824,qs),
(133,57.824,l),
(133,0,l)
);
}
);
width = 1128;
},
{
layerId = m001;
shapes = (
{
closed = 1;
nodes = (
(993.688,0,l),
(993.688,57.824,l),
(339.832,57.824,l),
(406.552,106.752,o),
(406.552,249.088,qs),
(406.552,731.696,l),
(915.848,731.696,l),
(915.848,789.52,l),
(406.552,789.52,l),
(406.552,1140.912,l),
(406.552,1267.68,o),
(564.456,1398.896,o),
(711.24,1398.896,qs),
(769.064,1398.896,o),
(886.936,1378.88,o),
(918.072,1361.088,q),
(918.072,1418.912,l),
(849.128,1454.496,o),
(695.672,1454.496,qs),
(551.112,1454.496,o),
(446.584,1376.656,qs),
(344.28,1296.592,o),
(344.28,1138.688,qs),
(344.28,789.52,l),
(177.48,789.52,l),
(177.48,731.696,l),
(344.28,731.696,l),
(344.28,246.864,l),
(344.28,57.824,o),
(195.272,57.824,qs),
(133,57.824,l),
(133,0,l)
);
}
);
width = 1128;
}
);
unicode = 163;
},
{
glyphname = currency;
layers = (
{
layerId = m007;
shapes = (
{
closed = 1;
nodes = (
(357.624,309.136,l),
(413.224,257.984,o),
(555.56,200.16,o),
(633.4,200.16,qs),
(786.856,200.16,o),
(906.952,309.136,q),
(1098.216,162.352,l),
(1131.576,206.832,l),
(942.536,349.168,l),
(1029.272,460.368,o),
(1029.272,598.256,qs),
(1029.272,740.592,o),
(942.536,845.12,q),
(1131.576,989.68,l),
(1098.216,1034.16,l),
(904.728,885.152,l),
(789.08,996.352,o),
(631.176,996.352,qs),
(473.272,996.352,o),
(357.624,885.152,q),
(166.36,1034.16,l),
(133,989.68,l),
(322.04,845.12,l),
(235.304,742.816,o),
(235.304,598.256,qs),
(235.304,453.696,o),
(322.04,351.392,q),
(133,206.832,l),
(166.36,162.352,l)
);
},
{
closed = 1;
nodes = (
(491.064,255.76,o),
(295.352,458.144,o),
(295.352,598.256,qs),
(295.352,740.592,o),
(491.064,940.752,o),
(631.176,940.752,qs),
(771.288,940.752,o),
(969.224,740.592,o),
(969.224,598.256,qs),
(969.224,458.144,o),
(771.288,255.76,o),
(631.176,255.76,qs)
);
}
);
width = 1265;
},
{
layerId = m001;
shapes = (
{
closed = 1;
nodes = (
(416.531,226.57,l),
(466.015,196.824,o),
(577.771,164.993,o),
(637.263,164.993,qs),
(760.139,164.993,o),
(857.3,228.099,q),
(1040.919,87.431,l),
(1205.773,289.398,l),
(1033.552,421.031,l),
(1079.005,507.767,o),
(1079.005,598.256,qs),
(1079.005,696.251,o),
(1033.552,776.315,q),
(1208.831,904.056,l),
(1040.919,1107.552,l),
(858.134,966.189,l),
(763.892,1029.99,o),
(635.039,1029.99,qs),
(510.773,1029.99,o),
(415.002,967.718,q),
(234.441,1110.61,l),
(66.529,905.585,l),
(237.221,776.315,l),
(193.297,692.359,o),
(193.297,598.256,qs),
(193.297,504.153,o),
(237.221,420.197,q),
(65,292.456,l),
(234.441,85.902,l)
);
},
{
closed = 1;
nodes = (
(562.203,422.421,o),
(459.76,528.478,o),
(459.76,599.785,qs),
(459.76,674.845,o),
(562.203,778.678,o),
(635.039,778.678,qs),
(709.404,778.678,o),
(812.542,674.845,o),
(812.542,599.785,qs),
(812.542,526.949,o),
(709.404,422.421,o),
(635.039,422.421,qs)
);
}
);
width = 1273;
}
);
unicode = 164;
},
{
glyphname = yen;
layers = (
{
layerId = m007;
shapes = (
{
closed = 1;
nodes = (
(684.552,0,l),
(684.552,278,l),
(1060.408,278,l),
(1060.408,333.6,l),
(684.552,333.6,l),
(684.552,520.416,l),
(1060.408,520.416,l),
(1060.408,576.016,l),
(704.568,576.016,l),
(1173.832,1432.256,l),
(1109.336,1432.256,l),
(653.416,596.032,l),
(195.272,1432.256,l),
(133,1432.256,l),
(597.816,576.016,l),
(244.2,576.016,l),
(244.2,520.416,l),
(620.056,520.416,l),
(620.056,333.6,l),
(244.2,333.6,l),
(244.2,278,l),
(620.056,278,l),
(620.056,0,l)
);
}
);
width = 1308;
},
{
layerId = m001;
shapes = (
{
closed = 1;
nodes = (
(963.635,0,l),
(963.635,170.97,l),
(1266.099,170.97,l),
(1266.099,361.122,l),
(963.635,361.122,l),
(963.635,489.836,l),
(1266.099,489.836,l),
(1266.099,679.988,l),
(1050.927,679.988,l),
(1472.792,1432.256,l),
(1067.329,1432.256,l),
(768.896,857.491,l),
(469.768,1432.256,l),
(65,1432.256,l),
(485.475,679.988,l),
(267.94,679.988,l),
(267.94,489.836,l),
(573.462,489.836,l),
(573.462,361.122,l),
(267.94,361.122,l),
(267.94,170.97,l),
(573.462,170.97,l),
(573.462,0,l)
);
}
);
width = 1537;
}
);
unicode = 165;
},
{
glyphname = "rialsign-arab.isol";
layers = (
{
layerId = m007;
shapes = (
{
closed = 1;
nodes = (
(1645,-521,l),
(1645,-461,l),
(2509.444,-461,l),
(2756.582,-461,o),
(2957.026,-240.425,o),
(2957.026,6.712,cs),
(2957.026,610.281,l),
(3015.654,610.281,l),
(3015.654,3.837,l),
(3015.654,-274.778,o),
(2788.843,-521,o),
(2509.444,-521,cs)
);
},
{
closed = 1;
nodes = (
(1266.895,1353,l),
(1266.895,-24.288,l),
(1266.895,-302.902,o),
(1070.281,-549.124,o),
(749.967,-549.124,cs),
(688.268,-549.124,l),
(367.954,-549.124,o),
(171.34,-302.902,o),
(171.34,-24.288,cs),
(171.34,381.111,l),
(229.902,381.111,l),
(229.902,-21.412,l),
(229.902,-268.549,o),
(400.216,-489.124,o),
(688.268,-489.124,cs),
(749.967,-489.124,l),
(1038.02,-489.124,o),
(1208.333,-268.549,o),
(1208.333,-21.412,cs),
(1208.333,1412.941,l),
(1707.562,1412.941,l),
(1707.562,328.758,l),
(1707.562,179.967,o),
(1826.876,60,o),
(1975.667,60,cs),
(2190.83,60,l),
(2339.556,60,o),
(2459.588,179.967,o),
(2459.588,328.758,cs),
(2459.588,631.765,l),
(2518.15,631.765,l),
(2518.15,325.948,l),
(2518.15,145.614,o),
(2371.882,0,o),
(2190.83,0,cs),
(1975.667,0,l),
(1792.458,0,o),
(1649,146.268,o),
(1649,325.948,cs),
(1649,1353,l)
);
}
);
width = 3187;
},
{
layerId = m001;
shapes = (
{
closed = 1;
nodes = (
(1724.902,-498,l),
(1724.902,-188,l),
(2631.569,-188,l),
(2782.627,-188,o),
(2905.294,-13.373,o),
(2905.294,137.686,cs),
(2905.294,753.216,l),
(3224.706,753.216,l),
(3224.706,94.549,l),
(3224.706,-220.667,o),
(2958.549,-498,o),
(2631.569,-498,cs)
);
},
{
closed = 1;
nodes = (
(1433.333,1145,l),
(1433.333,83.686,l),
(1433.333,-231.529,o),
(1200.118,-508.863,o),
(819.412,-508.863,cs),
(733.922,-508.863,l),
(353.216,-508.863,o),
(120,-231.529,o),
(120,83.686,cs),
(120,536.667,l),
(438.431,536.667,l),
(438.431,126.824,l),
(438.431,-24.235,o),
(529.137,-168.863,o),
(733.922,-168.863,cs),
(819.412,-168.863,l),
(1024.196,-168.863,o),
(1114.902,-24.235,o),
(1114.902,126.824,cs),
(1114.902,1454.118,l),
(1932.431,1454.118,l),
(1932.431,451.373,l),
(1932.431,389.51,o),
(1972.137,340,o),
(2034,340,cs),
(2236.353,340,l),
(2297.235,340,o),
(2347.725,389.51,o),
(2347.725,451.373,cs),
(2347.725,796.471,l),
(2666.157,796.471,l),
(2666.157,409.216,l),
(2666.157,182.216,o),
(2474.137,0,o),
(2236.353,0,cs),
(2034,0,l),
(1763.863,0,o),
(1614,192.02,o),
(1614,409.216,cs),
(1613.902,1145,l)
);
}
);
width = 3345;
}
);
unicode = 65020;
},
{
glyphname = brokenbar;
layers = (
{
layerId = m007;
shapes = (
{
closed = 1;
nodes = (
(195.272,989.68,l),
(195.272,1634.64,l),
(133,1634.64,l),
(133,989.68,l)
);
},
{
closed = 1;
nodes = (
(195.272,-266.88,l),
(195.272,378.08,l),
(133,378.08,l),
(133,-266.88,l)
);
}
);
width = 329;
},
{
layerId = m001;
shapes = (
{
closed = 1;
nodes = (
(454.478,864.302,l),
(454.478,1634.64,l),
(65,1634.64,l),
(65,864.302,l)
);
},
{
closed = 1;
nodes = (
(454.478,-266.88,l),
(454.478,503.458,l),
(65,503.458,l),
(65,-266.88,l)
);
}
);
width = 519;
}
);
unicode = 166;
},
{
glyphname = section;
layers = (
{
layerId = m007;
shapes = (
{
closed = 1;
nodes = (
(1091.544,-22.24,o),
(1091.544,355.84,qs),
(1091.544,444.8,o),
(1058.184,513.744,q),
(1091.544,600.48,o),
(1091.544,669.424,qs),
(1091.544,771.728,o),
(1013.704,882.928,o),
(829.112,951.872,o),
(626.728,998.576,qs),
(370.968,1060.848,o),
(193.048,1187.616,o),
(193.048,1325.504,qs),
(193.048,1487.856,o),
(422.12,1645.76,o),
(648.968,1645.76,qs),
(855.8,1645.76,o),
(1002.584,1594.608,q),
(1002.584,1650.208,l),
(949.208,1670.224,o),
(742.376,1701.36,o),
(631.176,1701.36,qs),
(133,1704.696,o),
(133,1325.504,qs),
(133,1229.872,o),
(168.584,1167.6,q),
(133,1100.88,o),
(133,1034.16,qs),
(133,891.824,o),
(324.264,767.28,o),
(580.024,707.232,qs),
(831.336,651.632,o),
(1031.496,504.848,o),
(1031.496,355.84,qs),
(1031.496,31.136,o),
(571.128,31.136,qs),
(359.848,31.136,o),
(173.032,91.184,q),
(173.032,35.584,l),
(333.16,-22.24,o),
(571.128,-22.24,qs)
);
},
{
closed = 1;
nodes = (
(964.776,631.616,o),
(769.064,720.576,o),
(626.728,751.712,qs),
(368.744,811.76,o),
(193.048,914.064,o),
(193.048,1034.16,qs),
(193.048,1083.088,o),
(208.616,1116.448,q),
(175.683,1064.628,o),
(613.384,945.2,q),
(855.8,891.824,o),
(1031.496,798.416,o),
(1031.496,669.424,qs),
(1031.496,620.496,o),
(1015.928,573.792,q)
);
}
);
width = 1225;
},
{
layerId = m001;
shapes = (
{
closed = 1;
nodes = (
(1174.179,-14.595,o),
(1174.944,392.536,qs),
(1174.944,486.083,o),
(1126.294,550.44,q),
(1175.708,618.828,o),
(1174.944,724.468,qs),
(1174.944,828.301,o),
(1109.336,965.494,o),
(929.331,1065.018,o),
(743.766,1113.251,qs),
(587.391,1154.117,o),
(461.457,1216.667,o),
(461.457,1279.634,qs),
(461.457,1354.833,o),
(612.55,1417.939,o),
(721.665,1417.939,qs),
(887.978,1418.704,o),
(1093.629,1342.323,q),
(1093.629,1637.976,l),
(1037.195,1656.463,o),
(793.284,1699.831,o),
(653.416,1701.36,qs),
(66.558,1702.403,o),
(66.558,1310.214,qs),
(65.793,1210.76,o),
(112.845,1146.194,q),
(65.029,1080.239,o),
(65.029,992.877,qs),
(63.5,835.251,o),
(223.801,675.922,o),
(457.009,601.731,qs),
(615.052,555.305,o),
(775.458,478.855,o),
(775.458,404.768,qs),
(775.458,258.193,o),
(533.737,258.957,qs),
(312.518,259.722,o),
(86.713,358.759,q),
(86.713,64.635,l),
(279.714,-21.476,o),
(573.491,-22.24,qs)
);
},
{
closed = 1;
nodes = (
(857.051,723.356,o),
(719.441,778.678,o),
(641.323,796.053,qs),
(504.13,828.579,o),
(380.42,892.658,o),
(380.42,954.652,qs),
(380.42,979.116,o),
(388.343,998.715,q),
(419.334,955.764,o),
(627.979,900.859,q),
(764.894,870.418,o),
(894.72,801.474,o),
(894.72,738.229,qs),
(894.72,713.765,o),
(885.268,691.525,q)
);
}
);
width = 1239;
}
);
unicode = 167;
},
{
glyphname = guilsinglleft;
layers = (
{
layerId = m007;
shapes = (
{
closed = 1;
nodes = (
(711.24,255.76,l),
(195.272,640.512,l),
(711.24,1025.264,l),
(680.104,1069.744,l),
(133,667.2,l),
(133,613.824,l),
(680.104,211.28,l)
);
}
);
width = 845;
},
{
layerId = m001;
shapes = (
{
closed = 1;
nodes = (
(808.372,336.797,l),
(408.608,632.867,l),
(808.372,928.937,l),
(661.032,1143.136,l),
(65,703.896,l),
(65,561.838,l),
(661.032,122.598,l)
);
}
);
width = 873;
}
);
unicode = 8249;
},
{
glyphname = guilsinglright;
layers = (
{
layerId = m007;
shapes = (
{
closed = 1;
nodes = (
(711.24,613.824,l),
(711.24,667.2,l),
(164.136,1069.744,l),
(133,1025.264,l),
(648.968,640.512,l),
(133,255.76,l),
(164.136,211.28,l)
);
}
);
width = 845;
},
{
layerId = m001;
shapes = (
{
closed = 1;
nodes = (
(808.372,561.838,l),
(808.372,703.896,l),
(212.34,1143.136,l),
(65,928.937,l),
(464.764,632.867,l),
(65,336.797,l),
(212.34,122.598,l)
);
}
);
width = 873;
}
);
unicode = 8250;
},
{
glyphname = guillemetleft;
layers = (
{
layerId = m007;
shapes = (
{
closed = 1;
nodes = (
(1111.56,255.76,l),
(595.592,640.512,l),
(1111.56,1025.264,l),
(1080.424,1069.744,l),
(533.32,667.2,l),
(533.32,613.824,l),
(1080.424,211.28,l)
);
},
{
closed = 1;
nodes = (
(711.24,255.76,l),
(195.272,640.512,l),
(711.24,1025.264,l),
(680.104,1069.744,l),
(133,667.2,l),
(133,613.824,l),
(680.104,211.28,l)
);
}
);
width = 1245;
},
{
layerId = m001;
shapes = (
{
closed = 1;
nodes = (
(1422.752,336.797,l),
(1022.988,632.867,l),
(1422.752,928.937,l),
(1275.412,1143.136,l),
(679.38,703.896,l),
(679.38,561.838,l),
(1275.412,122.598,l)
);
},
{
closed = 1;
nodes = (
(808.372,336.797,l),
(408.608,632.867,l),
(808.372,928.937,l),
(661.032,1143.136,l),
(65,703.896,l),
(65,561.838,l),
(661.032,122.598,l)
);
}
);
width = 1487;
}
);
unicode = 171;
},
{
glyphname = guillemetright;
layers = (
{
layerId = m007;
shapes = (
{
closed = 1;
nodes = (
(1111.56,613.824,l),
(1111.56,667.2,l),
(564.456,1069.744,l),
(533.32,1025.264,l),
(1049.288,640.512,l),
(533.32,255.76,l),
(564.456,211.28,l)
);
},
{
closed = 1;
nodes = (
(711.24,613.824,l),
(711.24,667.2,l),
(164.136,1069.744,l),
(133,1025.264,l),
(648.968,640.512,l),
(133,255.76,l),
(164.136,211.28,l)
);
}
);
width = 1245;
},
{
layerId = m001;
shapes = (
{
closed = 1;
nodes = (
(1422.752,561.838,l),
(1422.752,703.896,l),
(826.72,1143.136,l),
(679.38,928.937,l),
(1079.144,632.867,l),
(679.38,336.797,l),
(826.72,122.598,l)
);
},
{
closed = 1;
nodes = (
(808.372,561.838,l),
(808.372,703.896,l),
(212.34,1143.136,l),
(65,928.937,l),
(464.764,632.867,l),
(65,336.797,l),
(212.34,122.598,l)
);
}
);
width = 1487;
}
);
unicode = 187;
},
{
glyphname = copyright;
layers = (
{
layerId = m007;
shapes = (
{
closed = 1;
nodes = (
(1053.736,166.8,o),
(1173.832,224.624,q),
(1173.832,282.448,l),
(1022.6,222.4,o),
(880.264,222.4,qs),
(644.52,222.4,o),
(393.208,469.264,o),
(393.208,713.904,qs),
(393.208,951.872,o),
(673.432,1203.184,o),
(893.608,1203.184,qs),
(1047.064,1203.184,o),
(1173.832,1143.136,q),
(1173.832,1200.96,l),
(1062.632,1258.784,o),
(886.936,1258.784,qs),
(336.496,1253.224,o),
(333.16,713.904,qs),
(325.376,173.472,o),
(864.696,166.8,qs)
);
},
{
closed = 1;
nodes = (
(1071.528,-22.24,o),
(1411.8,175.696,o),
(1609.736,515.968,o),
(1609.736,716.128,qs),
(1609.736,916.288,o),
(1411.8,1256.56,o),
(1071.528,1454.496,o),
(871.368,1454.496,qs),
(671.208,1454.496,o),
(330.936,1256.56,o),
(133,916.288,o),
(133,716.128,qs),
(133,515.968,o),
(330.936,175.696,o),
(671.208,-22.24,o),
(871.368,-22.24,qs)
);
},
{
closed = 1;
nodes = (
(686.776,35.584,o),
(375.416,220.176,o),
(190.824,531.536,o),
(190.824,716.128,qs),
(190.824,900.72,o),
(375.416,1212.08,o),
(686.776,1396.672,o),
(871.368,1396.672,qs),
(1055.96,1396.672,o),
(1367.32,1212.08,o),
(1551.912,900.72,o),
(1551.912,716.128,qs),
(1551.912,531.536,o),
(1367.32,220.176,o),
(1055.96,35.584,o),
(871.368,35.584,qs)
);
}
);
width = 1744;
},
{
layerId = m001;
shapes = (
{
closed = 1;
nodes = (
(984.972,267.714,o),
(1098.187,350.002,q),
(1098.187,530.146,l),
(992.825,462.453,o),
(870.366,462.453,qs),
(763.058,462.453,o),
(620.305,576.294,o),
(620.305,716.962,qs),
(620.305,854.016,o),
(773.622,972.305,o),
(876.065,972.305,qs),
(989.767,972.305,o),
(1095.129,912.257,q),
(1095.129,1083.227,l),
(986.987,1164.751,o),
(812.82,1167.044,qs),
(372.937,1167.105,o),
(367.603,716.962,qs),
(368.773,267.31,o),
(807.399,267.714,qs)
);
},
{
closed = 1;
nodes = (
(1003.528,-22.24,o),
(1343.8,175.696,o),
(1541.736,515.968,o),
(1541.736,716.128,qs),
(1541.736,916.288,o),
(1343.8,1256.56,o),
(1003.528,1454.496,o),
(803.368,1454.496,qs),
(603.208,1454.496,o),
(262.936,1256.56,o),
(65,916.288,o),
(65,716.128,qs),
(65,515.968,o),
(262.936,175.696,o),
(603.208,-22.24,o),
(803.368,-22.24,qs)
);
},
{
closed = 1;
nodes = (
(655.472,176.252,o),
(412.917,316.503,o),
(271.137,562.116,o),
(271.137,716.128,qs),
(271.137,870.14,o),
(412.917,1115.753,o),
(655.472,1256.004,o),
(803.368,1256.004,qs),
(951.264,1256.004,o),
(1193.819,1115.753,o),
(1335.599,870.14,o),
(1335.599,716.128,qs),
(1335.599,562.116,o),
(1193.819,316.503,o),
(951.264,176.252,o),
(803.368,176.252,qs)
);
}
);
width = 1606;
}
);
unicode = 169;
},
{
glyphname = registered;
layers = (
{
layerId = m007;
shapes = (
{
closed = 1;
nodes = (
(1071.528,-22.24,o),
(1411.8,175.696,o),
(1609.736,515.968,o),
(1609.736,716.128,qs),
(1609.736,916.288,o),
(1411.8,1256.56,o),
(1071.528,1454.496,o),
(871.368,1454.496,qs),
(671.208,1454.496,o),
(330.936,1256.56,o),
(133,916.288,o),
(133,716.128,qs),
(133,515.968,o),
(330.936,175.696,o),
(671.208,-22.24,o),
(871.368,-22.24,qs)
);
},
{
closed = 1;
nodes = (
(686.776,35.584,o),
(375.416,220.176,o),
(190.824,531.536,o),
(190.824,716.128,qs),
(190.824,900.72,o),
(375.416,1212.08,o),
(686.776,1396.672,o),
(871.368,1396.672,qs),
(1055.96,1396.672,o),
(1367.32,1212.08,o),
(1551.912,900.72,o),
(1551.912,716.128,qs),
(1551.912,531.536,o),
(1367.32,220.176,o),
(1055.96,35.584,o),
(871.368,35.584,qs)
);
},
{
closed = 1;
nodes = (
(588.92,195.712,l),
(588.92,624.944,l),
(842.456,624.944,l),
(946.984,624.944,o),
(1029.272,582.688,o),
(1055.96,518.192,qs),
(1198.296,195.712,l),
(1260.568,195.712,l),
(1116.008,529.312,l),
(1095.992,578.24,o),
(1055.96,629.392,o),
(1018.152,642.736,q),
(1256.12,680.544,o),
(1256.12,931.856,qs),
(1256.12,1074.192,o),
(1100.44,1227.648,o),
(944.76,1227.648,qs),
(526.648,1227.648,l),
(526.648,195.712,l)
);
},
{
closed = 1;
nodes = (
(588.92,1172.048,l),
(946.984,1172.048,l),
(1075.976,1172.048,o),
(1196.072,1060.848,o),
(1196.072,931.856,qs),
(1196.072,798.416,o),
(1058.184,682.768,o),
(926.968,682.768,qs),
(588.92,682.768,l)
);
}
);
width = 1744;
},
{
layerId = m001;
shapes = (
{
closed = 1;
nodes = (
(1003.528,-22.24,o),
(1343.8,175.696,o),
(1541.736,515.968,o),
(1541.736,716.128,qs),
(1541.736,916.288,o),
(1343.8,1256.56,o),
(1003.528,1454.496,o),
(803.368,1454.496,qs),
(603.208,1454.496,o),
(262.936,1256.56,o),
(65,916.288,o),
(65,716.128,qs),
(65,515.968,o),
(262.936,175.696,o),
(603.208,-22.24,o),
(803.368,-22.24,qs)
);
},
{
closed = 1;
nodes = (
(655.472,176.252,o),
(412.917,316.503,o),
(271.137,562.116,o),
(271.137,716.128,qs),
(271.137,870.14,o),
(412.917,1115.753,o),
(655.472,1256.004,o),
(803.368,1256.004,qs),
(951.264,1256.004,o),
(1193.819,1115.753,o),
(1335.599,870.14,o),
(1335.599,716.128,qs),
(1335.599,562.116,o),
(1193.819,316.503,o),
(951.264,176.252,o),
(803.368,176.252,qs)
);
},
{
closed = 1;
nodes = (
(698.284,319.561,l),
(698.284,577.545,l),
(783.63,577.545,l),
(822.411,577.545,o),
(858.829,555.166,o),
(868.698,527.366,qs),
(943.758,319.561,l),
(1145.169,319.561,l),
(1060.24,547.66,l),
(1049.398,572.124,o),
(1030.772,601.87,o),
(1012.841,609.098,q),
(1182.004,669.841,o),
(1182.004,850.819,qs),
(1182.004,976.336,o),
(1040.085,1122.147,o),
(902.753,1122.147,qs),
(487.699,1122.147,l),
(487.699,319.561,l)
);
},
{
closed = 1;
nodes = (
(698.284,962.575,l),
(854.52,962.575,l),
(914.707,962.575,o),
(972.114,909.477,o),
(972.114,850.819,qs),
(972.114,790.771,o),
(906.089,736.283,o),
(843.678,736.283,qs),
(698.284,736.283,l)
);
}
);
width = 1606;
}
);
unicode = 174;
},
{
glyphname = ordfeminine;
layers = (
{
layerId = m007;
shapes = (
{
closed = 1;
nodes = (
(493.288,845.12,o),
(584.472,938.528,q),
(588.92,858.464,l),
(642.296,858.464,l),
(642.296,1249.888,l),
(642.296,1356.64,o),
(517.752,1454.496,o),
(399.88,1454.496,qs),
(344.28,1454.496,o),
(248.648,1441.152,o),
(208.616,1425.584,q),
(208.616,1369.984,l),
(297.576,1401.12,o),
(386.536,1401.12,qs),
(502.184,1401.12,o),
(582.248,1329.952,o),
(582.248,1240.992,qs),
(582.248,1194.288,l),
(357.624,1194.288,l),
(133,1194.288,o),
(133,1011.92,qs),
(133,927.408,o),
(250.872,845.12,o),
(344.28,845.12,qs)
);
},
{
closed = 1;
nodes = (
(190.824,898.496,o),
(190.824,1011.92,qs),
(190.824,1078.64,o),
(268.664,1140.912,o),
(355.4,1140.912,qs),
(582.248,1140.912,l),
(582.248,998.576,l),
(537.768,945.2,o),
(433.24,898.496,o),
(355.4,898.496,qs)
);
}
);
width = 776;
},
{
layerId = m001;
shapes = (
{
closed = 1;
nodes = (
(399.295,845.12,o),
(476.718,911.006,q),
(487.282,858.464,l),
(684.384,858.464,l),
(684.384,1220.837,l),
(684.384,1339.821,o),
(523.144,1454.496,o),
(382.337,1454.496,qs),
(317.563,1454.496,o),
(185.235,1433.507,o),
(139.087,1414.881,q),
(139.087,1287.418,l),
(240.279,1318.554,o),
(336.884,1318.554,qs),
(409.72,1318.554,o),
(469.907,1284.082,o),
(469.907,1244.05,qs),
(469.907,1224.868,l),
(309.501,1224.868,l),
(65,1224.868,o),
(65,1031.797,qs),
(65,938.111,o),
(181.343,845.12,o),
(273.222,845.12,qs)
);
},
{
closed = 1;
nodes = (
(272.666,973.417,o),
(272.666,1037.913,qs),
(272.666,1072.524,o),
(316.868,1105.745,o),
(362.321,1105.745,qs),
(469.907,1105.745,l),
(469.907,1023.04,l),
(448.362,997.186,o),
(392.762,973.417,o),
(353.147,973.417,qs)
);
}
);
width = 749;
}
);
unicode = 170;
},
{
glyphname = macron;
layers = (
{
layerId = m007;
shapes = (
{
closed = 1;
nodes = (
(726.808,1265.456,l),
(726.808,1321.056,l),
(133,1321.056,l),
(133,1265.456,l)
);
}
);
width = 861;
},
{
layerId = m001;
shapes = (
{
closed = 1;
nodes = (
(722.186,1242.521,l),
(722.186,1473.956,l),
(3,1473.956,l),
(3,1242.521,l)
);
}
);
width = 723;
}
);
unicode = 175;
},
{
glyphname = mu;
layers = (
{
layerId = m007;
shapes = (
{
closed = 1;
nodes = (
(240.272,-318.032,l),
(240.272,144.56,l),
(339.24,-18.904,o),
(567.2,-22.24,qs),
(831.856,-24.464,o),
(989.76,137.888,q),
(1000.88,0,l),
(1052.032,0,l),
(1052.032,1054.176,l),
(989.76,1054.176,l),
(989.76,206.832,l),
(820.736,33.36,o),
(600.56,33.36,qs),
(240.272,33.36,o),
(240.272,386.976,qs),
(240.272,1054.176,l),
(178,1054.176,l),
(178,-318.032,l)
);
}
);
width = 1230;
},
{
layerId = m001;
shapes = (
{
closed = 1;
nodes = (
(498.478,-318.032,l),
(498.478,29.885,l),
(569.16,-21.198,o),
(677.093,-5.421,qs),
(796.494,10.703,o),
(865.716,84.373,q),
(876.836,0,l),
(1239.904,0,l),
(1239.904,1054.176,l),
(850.426,1054.176,l),
(850.426,352.087,l),
(768.555,267.297,o),
(661.525,267.297,qs),
(498.478,267.297,o),
(498.478,426.73,qs),
(498.478,1054.176,l),
(109,1054.176,l),
(109,-318.032,l)
);
}
);
width = 1349;
}
);
unicode = 181;
},
{
glyphname = paragraph;
layers = (
{
layerId = m007;
shapes = (
{
closed = 1;
nodes = (
(831.336,-171.248,l),
(831.336,1521.216,l),
(1124.904,1521.216,l),
(1124.904,-171.248,l),
(1187.176,-171.248,l),
(1187.176,1579.04,l),
(729.032,1579.04,l),
(133,1579.04,o),
(133,1060.848,qs),
(133,763.388,o),
(508.856,562.672,o),
(769.064,562.672,q),
(769.064,-171.248,l)
);
}
);
width = 1321;
},
{
layerId = m001;
shapes = (
{
closed = 1;
nodes = (
(885.656,-171.248,l),
(885.656,1294.924,l),
(1056.904,1294.924,l),
(1056.904,-171.248,l),
(1385.222,-171.248,l),
(1385.222,1579.04,l),
(627.394,1579.04,l),
(65,1579.04,o),
(65,1060.848,qs),
(65,795.115,o),
(352.174,562.672,o),
(563.454,562.672,q),
(563.454,-171.248,l)
);
}
);
width = 1449;
}
);
unicode = 182;
},
{
glyphname = asciicircum;
layers = (
{
layerId = m007;
shapes = (
{
closed = 1;
nodes = (
(197.496,894.048,l),
(466.6,1341.072,l),
(735.704,894.048,l),
(800.2,894.048,l),
(499.96,1387.776,l),
(433.24,1387.776,l),
(133,894.048,l)
);
}
);
width = 934;
},
{
layerId = m001;
shapes = (
{
closed = 1;
nodes = (
(424.593,834.417,l),
(579.022,1107.135,l),
(734.98,834.417,l),
(1093.044,834.417,l),
(704.122,1387.776,l),
(437.103,1387.776,l),
(65,834.417,l)
);
}
);
width = 1157;
}
);
unicode = 94;
},
{
glyphname = underscore;
layers = (
{
layerId = m007;
shapes = (
{
closed = 1;
nodes = (
(1109.336,-55.6,l),
(1109.336,0,l),
(133,0,l),
(133,-55.6,l)
);
}
);
width = 1243;
},
{
layerId = m001;
shapes = (
{
closed = 1;
nodes = (
(1100.967,-252.841,l),
(1100.967,0,l),
(65,0,l),
(65,-252.841,l)
);
}
);
width = 1165;
}
);
unicode = 95;
},
{
glyphname = germandbls;
layers = (
{
layerId = m007;
shapes = (
{
closed = 1;
nodes = (
(803.064,-22.24,qs),
(718.552,-22.24,o),
(547.304,0,o),
(482.808,26.688,q),
(482.808,84.512,l),
(553.976,55.6,o),
(718.552,33.36,o),
(803.064,33.36,qs),
(983.208,33.36,o),
(1170.024,209.056,o),
(1170.024,395.872,qs),
(1170.024,558.224,o),
(1012.12,716.128,o),
(820.856,716.128,qs),
(594.008,716.128,l),
(594.008,780.624,l),
(1085.512,1085.312,l),
(1092.184,1256.56,o),
(827.528,1396.672,o),
(669.624,1396.672,qs),
(449.448,1396.672,o),
(229.272,1207.632,o),
(229.272,998.576,qs),
(229.272,0,l),
(167,0,l),
(167,1007.472,l),
(167,1232.096,o),
(431.656,1454.496,o),
(669.624,1454.496,qs),
(925.384,1454.496,o),
(1147.784,1232.096,o),
(1147.784,1060.848,q),
(680.744,771.728,l),
(834.2,771.728,l),
(1038.808,771.728,o),
(1230.072,576.016,o),
(1230.072,395.872,qs),
(1230.072,184.592,o),
(1012.12,-22.24,o)
);
}
);
width = 1363;
},
{
layerId = m001;
shapes = (
{
closed = 1;
nodes = (
(886.964,-22.24,qs),
(802.452,-22.24,o),
(640.378,3.058,o),
(589.643,26.688,q),
(589.643,275.637,l),
(628.702,260.486,o),
(736.705,245.891,o),
(782.992,245.891,qs),
(880.57,245.891,o),
(969.53,332.905,o),
(969.53,420.336,qs),
(969.53,492.477,o),
(883.489,566.286,o),
(779.378,566.286,qs),
(625.922,566.286,l),
(625.922,750.044,l),
(943.12,995.101,l),
(945.205,1070.022,o),
(812.043,1139.8,o),
(709.183,1139.8,qs),
(579.218,1139.8,o),
(464.543,1025.681,o),
(464.543,920.597,qs),
(464.543,0,l),
(98,0,l),
(98,927.964,l),
(102.587,1220.246,o),
(436.048,1454.496,o),
(709.183,1454.496,qs),
(1034.895,1453.349,o),
(1286.728,1192.342,o),
(1306.605,956.876,q),
(990.936,709.039,l),
(1055.71,709.039,l),
(1202.216,709.039,o),
(1365.958,536.262,o),
(1365.958,375.995,qs),
(1365.958,170.831,o),
(1115.897,-22.24,o)
);
}
);
width = 1431;
}
);
unicode = 223;
},
{
glyphname = infinity;
layers = (
{
layerId = m007;
shapes = (
{
closed = 1;
nodes = (
(575.576,331.376,o),
(755.72,458.144,o),
(809.096,569.344,q),
(862.472,458.144,o),
(1042.616,331.376,o),
(1158.264,331.376,qs),
(1305.048,331.376,o),
(1485.192,487.056,o),
(1485.192,631.616,qs),
(1485.192,776.176,o),
(1305.048,931.856,o),
(1158.264,931.856,qs),
(1042.616,931.856,o),
(862.472,805.088,o),
(809.096,693.888,q),
(755.72,805.088,o),
(575.576,931.856,o),
(459.928,931.856,qs),
(313.144,931.856,o),
(133,776.176,o),
(133,631.616,qs),
(133,487.056,o),
(313.144,331.376,o),
(459.928,331.376,qs)
);
},
{
closed = 1;
nodes = (
(330.936,386.976,o),
(193.048,515.968,o),
(193.048,631.616,qs),
(193.048,747.264,o),
(330.936,876.256,o),
(459.928,876.256,qs),
(575.576,876.256,o),
(726.808,756.16,o),
(782.408,633.84,q),
(686.776,386.976,o),
(459.928,386.976,qs)
);
},
{
closed = 1;
nodes = (
(1047.064,386.976,o),
(891.384,509.296,o),
(835.784,629.392,q),
(889.16,751.712,o),
(1044.84,876.256,o),
(1158.264,876.256,qs),
(1287.256,876.256,o),
(1425.144,747.264,o),
(1425.144,631.616,qs),
(1425.144,515.968,o),
(1287.256,386.976,o),
(1158.264,386.976,qs)
);
}
);
width = 1619;
},
{
layerId = m001;
shapes = (
{
closed = 1;
nodes = (
(539.685,259.513,o),
(703.01,340.411,o),
(753.328,410.328,q),
(806.704,340.411,o),
(966.971,259.513,o),
(1062.742,259.513,qs),
(1235.519,259.513,o),
(1441.656,445.773,o),
(1441.656,625.5,qs),
(1441.656,805.227,o),
(1235.519,991.487,o),
(1062.742,991.487,qs),
(968.5,991.487,o),
(808.233,909.06,o),
(753.328,839.143,q),
(701.481,909.06,o),
(539.685,991.487,o),
(443.914,991.487,qs),
(271.137,991.487,o),
(65,805.227,o),
(65,625.5,qs),
(65,445.773,o),
(271.137,259.513,o),
(443.914,259.513,qs)
);
},
{
closed = 1;
nodes = (
(399.017,506.238,o),
(334.521,567.954,o),
(334.521,625.5,qs),
(334.521,683.046,o),
(399.017,744.762,o),
(460.733,744.762,qs),
(516.75,744.762,o),
(596.119,684.297,o),
(628.784,623.137,q),
(569.848,506.238,o),
(460.733,506.238,qs)
);
},
{
closed = 1;
nodes = (
(992.825,506.238,o),
(910.537,564.34,o),
(877.872,621.747,q),
(909.842,682.907,o),
(990.601,744.762,o),
(1045.923,744.762,qs),
(1107.639,744.762,o),
(1172.135,683.046,o),
(1172.135,625.5,qs),
(1172.135,567.954,o),
(1107.639,506.238,o),
(1045.923,506.238,qs)
);
}
);
width = 1506;
}
);
unicode = 8734;
},
{
glyphname = "percentsign-arab";
layers = (
{
layerId = m007;
shapes = (
{
closed = 1;
nodes = (
(254.157,-11.242,l),
(207.869,14.856,l),
(971.941,1246.444,l),
(1018.229,1220.281,l)
);
},
{
closed = 1;
nodes = (
(230.294,1145.922,cs),
(197.327,1145.922,o),
(171.34,1119.869,o),
(171.34,1086.902,cs),
(171.34,1054,o),
(197.327,1027.948,o),
(230.294,1027.948,cs),
(263.131,1027.948,o),
(289.248,1054.065,o),
(289.248,1086.902,cs),
(289.248,1119.869,o),
(263.261,1145.922,o)
);
},
{
closed = 1;
nodes = (
(995.869,207.255,cs),
(962.902,207.255,o),
(936.915,181.203,o),
(936.915,148.235,cs),
(936.915,115.268,o),
(962.902,89.281,o),
(995.869,89.281,cs),
(1028.771,89.281,o),
(1054.824,115.333,o),
(1054.824,148.235,cs),
(1054.824,181.203,o),
(1028.837,207.255,o)
);
}
);
width = 1226;
},
{
layerId = m001;
shapes = (
{
closed = 1;
nodes = (
(424.353,-28.627,l),
(206.039,68.843,l),
(873.118,1448.667,l),
(1091.431,1350.216,l)
);
},
{
closed = 1;
nodes = (
(304.412,1340.824,cs),
(201.902,1340.824,o),
(120.098,1258.039,o),
(120.098,1155.529,cs),
(120.098,1054,o),
(201.902,971.216,o),
(304.412,971.216,cs),
(404.961,971.216,o),
(488.725,1054.98,o),
(488.725,1155.529,cs),
(488.725,1258.039,o),
(406.922,1340.824,o)
);
},
{
closed = 1;
nodes = (
(994.039,448.824,cs),
(891.529,448.824,o),
(809.725,366.039,o),
(809.725,263.529,cs),
(809.725,161.02,o),
(891.529,79.216,o),
(994.039,79.216,cs),
(1095.569,79.216,o),
(1178.353,162,o),
(1178.353,263.529,cs),
(1178.353,366.039,o),
(1096.549,448.824,o)
);
}
);
width = 1298;
}
);
unicode = 1642;
},
{
glyphname = "fivepointedstar-arab";
layers = (
{
layerId = m007;
shapes = (
{
closed = 1;
nodes = (
(554.366,767.052,l),
(673.954,1130.948,l),
(793.608,767.052,l),
(1176.634,767.052,l),
(867,539.81,l),
(986.588,175.915,l),
(673.954,401.092,l),
(361.32,175.915,l),
(480.974,539.81,l),
(171.34,767.052,l)
);
}
);
width = 1348;
},
{
layerId = m001;
shapes = (
{
closed = 1;
nodes = (
(531.49,823.784,l),
(659.314,1214.216,l),
(788.118,823.784,l),
(1199.51,823.784,l),
(867,579.157,l),
(994.824,188.725,l),
(659.314,430.373,l),
(323.804,188.725,l),
(452.608,579.157,l),
(120.098,823.784,l)
);
}
);
width = 1319;
}
);
unicode = 1645;
},
{
glyphname = arabiccomma;
layers = (
{
layerId = m007;
shapes = (
{
closed = 1;
nodes = (
(409.7,94.608,cs),
(409.7,33.837,o),
(360.582,-5,o),
(300.026,-5,cs),
(239.406,-5,o),
(191.007,44.118,o),
(191.007,103.954,cs),
(191.007,356.248,l),
(190.072,487.039,o),
(284.752,599.242,o),
(414.412,619.895,c),
(423.948,622.007,l),
(432.366,567.235,l),
(421.674,566.059,l),
(319.837,548.974,o),
(245.824,461.484,o),
(246.758,359.712,cs),
(246.758,145.458,l),
(328.719,210.882,o),
(409.7,164.183,o)
);
}
);
width = 625;
},
{
layerId = m001;
shapes = (
{
closed = 1;
nodes = (
(600.49,229.118,cs),
(600.49,101.549,o),
(493.725,-5,o),
(355.392,-5,cs),
(216.078,-5,o),
(120.098,101.765,o),
(120.098,229.314,cs),
(120.098,415.725,l),
(120.078,599.588,o),
(252.275,756.627,o),
(433.176,786.431,cs),
(534.216,804.098,l),
(576.49,542.529,l),
(444.098,524.882,l),
(414.549,520.608,o),
(396.353,496.255,o),
(396.373,467.686,cs),
(396.373,431.863,l),
(505.784,433.235,o),
(600.49,362.745,o)
);
}
);
width = 721;
}
);
unicode = 1548;
},
{
glyphname = "decimalseparator-arab";
layers = (
{
layerId = m007;
shapes = (
{
closed = 1;
nodes = (
(47.458,-402.092,l),
(0,-380.386,l),
(345.68,380.431,l),
(393.072,359.725,l)
);
}
);
width = 564;
},
{
layerId = m001;
shapes = (
{
closed = 1;
nodes = (
(193.863,-431.373,l),
(0,-343.784,l),
(383.196,498.471,l),
(576.078,411.882,l)
);
}
);
width = 696;
}
);
unicode = 1643;
},
{
glyphname = "thousandsseparator-arab";
layers = (
{
layerId = m007;
shapes = (
{
closed = 1;
nodes = (
(120.83,-208.105,l),
(96.275,-162.974,l),
(119.307,-150.229,l),
(188.869,-112.078,o),
(227.516,-31.928,o),
(227.516,67.105,cs),
(227.516,239.941,l),
(279.02,239.941,l),
(279.02,67.105,l),
(279.02,-53.268,o),
(229.301,-148.641,o),
(143.863,-195.359,cs)
);
}
);
width = 450;
},
{
layerId = m001;
shapes = (
{
closed = 1;
nodes = (
(146.451,-321.569,l),
(44.118,-134.608,l),
(137.608,-83.431,l),
(187.039,-57.176,o),
(192.745,11.078,o),
(192.745,40.569,cs),
(192.745,281.118,l),
(405.294,281.118,l),
(405.294,40.569,l),
(405.294,-99.02,o),
(345.51,-213.608,o),
(239.941,-270.392,cs)
);
}
);
width = 525;
}
);
unicode = 1644;
},
{
glyphname = "symboldotaccentmod-arab";
layers = (
{
layerId = m000;
shapes = (
{
closed = 1;
nodes = (
(-88.964,46.947,l),
(0,135.91,l),
(88.964,46.947,l),
(0,-42.017,l)
);
}
);
},
{
layerId = m001;
shapes = (
{
closed = 1;
nodes = (
(-162,259,l),
(162,259,l),
(162,0,l),
(-162,0,l)
);
}
);
},
{
layerId = m002;
shapes = (
{
closed = 1;
nodes = (
(-67.619,102.624,l),
(67.619,102.624,l),
(67.619,0,l),
(-67.619,0,l)
);
}
);
},
{
layerId = m003;
shapes = (
{
closed = 1;
nodes = (
(-200,133,l),
(0,333,l),
(200,133,l),
(0,-67,l)
);
}
);
},
{
layerId = m004;
shapes = (
{
closed = 1;
nodes = (
(-113.333,178.366,l),
(113.333,178.366,l),
(113.333,0,l),
(-113.333,0,l)
);
}
);
},
{
layerId = m005;
shapes = (
{
closed = 1;
nodes = (
(-113.333,178.366,l),
(113.333,178.366,l),
(113.333,0,l),
(-113.333,0,l)
);
}
);
},
{
layerId = m006;
shapes = (
{
closed = 1;
nodes = (
(-142.745,88.627,l),
(0,231.373,l),
(142.745,88.627,l),
(0,-54.118,l)
);
}
);
},
{
layerId = m007;
shapes = (
{
closed = 1;
nodes = (
(-67.619,102.624,l),
(67.619,102.624,l),
(67.619,0,l),
(-67.619,0,l)
);
}
);
},
{
layerId = m008;
shapes = (
{
closed = 1;
nodes = (
(-162,259,l),
(162,259,l),
(162,0,l),
(-162,0,l)
);
}
);
}
);
unicode = 64434;
},
{
glyphname = "symboldotbelowmod-arab";
layers = (
{
layerId = m000;
shapes = (
{
closed = 1;
nodes = (
(-88.964,-46.947,l),
(0,42.017,l),
(88.964,-46.947,l),
(0,-135.91,l)
);
}
);
},
{
layerId = m001;
shapes = (
{
closed = 1;
nodes = (
(-162,0,l),
(162,0,l),
(162,-259,l),
(-162,-259,l)
);
}
);
},
{
layerId = m002;
shapes = (
{
closed = 1;
nodes = (
(-67.619,0,l),
(67.619,0,l),
(67.619,-102.624,l),
(-67.619,-102.624,l)
);
}
);
},
{
layerId = m003;
shapes = (
{
closed = 1;
nodes = (
(-200,-133,l),
(0,67,l),
(200,-133,l),
(0,-333,l)
);
}
);
},
{
layerId = m005;
shapes = (
{
closed = 1;
nodes = (
(-113.333,0,l),
(113.333,0,l),
(113.333,-178.366,l),
(-113.333,-178.366,l)
);
}
);
},
{
layerId = m006;
shapes = (
{
closed = 1;
nodes = (
(-142.745,-88.627,l),
(0,54.118,l),
(142.745,-88.627,l),
(0,-231.373,l)
);
}
);
},
{
layerId = m004;
shapes = (
{
closed = 1;
nodes = (
(-113.333,0,l),
(113.333,0,l),
(113.333,-178.366,l),
(-113.333,-178.366,l)
);
}
);
},
{
layerId = m007;
shapes = (
{
closed = 1;
nodes = (
(-67.619,0,l),
(67.619,0,l),
(67.619,-102.624,l),
(-67.619,-102.624,l)
);
}
);
},
{
layerId = m008;
shapes = (
{
closed = 1;
nodes = (
(-162,0,l),
(162,0,l),
(162,-259,l),
(-162,-259,l)
);
}
);
}
);
unicode = 64435;
},
{
glyphname = "symboltwodotsabovemod-arab";
layers = (
{
layerId = m000;
shapes = (
{
closed = 1;
nodes = (
(170.747,134.726,l),
(258.964,46.51,l),
(170.747,-41.707,l),
(82.53,46.51,l)
);
},
{
closed = 1;
nodes = (
(-82.53,46.723,l),
(-170.747,-41.494,l),
(-258.964,46.723,l),
(-170.747,134.939,l)
);
}
);
},
{
layerId = m002;
shapes = (
{
closed = 1;
nodes = (
(0,74.865,l),
(254.706,74.865,l),
(254.706,0,l),
(0,0,l)
);
},
{
closed = 1;
nodes = (
(0,0,l),
(-254.706,0,l),
(-254.706,74.865,l),
(0,74.865,l)
);
}
);
},
{
layerId = m001;
shapes = (
{
closed = 1;
nodes = (
(40,239,l),
(313,239,l),
(313,0,l),
(40,0,l)
);
},
{
closed = 1;
nodes = (
(-40,0,l),
(-313,0,l),
(-313,239,l),
(-40,239,l)
);
}
);
},
{
layerId = m003;
shapes = (
{
closed = 1;
nodes = (
(180,300.609,l),
(370,110.609,l),
(180,-79.391,l),
(-10,110.609,l)
);
},
{
closed = 1;
nodes = (
(10,110,l),
(-180,-80,l),
(-370,110,l),
(-180,300,l)
);
}
);
},
{
layerId = m006;
shapes = (
{
closed = 1;
nodes = (
(175.229,224.76,l),
(312.745,87.244,l),
(175.229,-50.272,l),
(37.712,87.244,l)
);
},
{
closed = 1;
nodes = (
(-37.712,87.059,l),
(-175.229,-50.458,l),
(-312.745,87.059,l),
(-175.229,224.575,l)
);
}
);
},
{
layerId = m005;
shapes = (
{
closed = 1;
nodes = (
(0,164.052,l),
(282.941,164.052,l),
(282.941,0,l),
(0,0,l)
);
},
{
closed = 1;
nodes = (
(0,0,l),
(-282.941,0,l),
(-282.941,164.052,l),
(0,164.052,l)
);
}
);
},
{
layerId = m004;
shapes = (
{
closed = 1;
nodes = (
(63.856,167.908,l),
(263.856,167.908,l),
(263.856,0,l),
(63.856,0,l)
);
},
{
closed = 1;
nodes = (
(-63.856,0,l),
(-263.856,0,l),
(-263.856,167.908,l),
(-63.856,167.908,l)
);
}
);
},
{
layerId = m007;
shapes = (
{
closed = 1;
nodes = (
(86.265,101.13,l),
(217.694,101.13,l),
(217.694,0,l),
(86.265,0,l)
);
},
{
closed = 1;
nodes = (
(-86.265,0,l),
(-217.694,0,l),
(-217.694,101.13,l),
(-86.265,101.13,l)
);
}
);
},
{
layerId = m008;
shapes = (
{
closed = 1;
nodes = (
(-6.265,262.735,l),
(310.012,262.735,l),
(310.012,0,l),
(-6.265,0,l)
);
},
{
closed = 1;
nodes = (
(6.265,0,l),
(-310.012,0,l),
(-310.012,262.735,l),
(6.265,262.735,l)
);
}
);
}
);
unicode = 64436;
},
{
glyphname = "symboltwodotsbelowmod-arab";
layers = (
{
layerId = m000;
shapes = (
{
closed = 1;
nodes = (
(82.53,-46.723,l),
(170.747,41.494,l),
(258.964,-46.723,l),
(170.747,-134.939,l)
);
},
{
closed = 1;
nodes = (
(-82.53,-46.745,l),
(-170.747,-134.962,l),
(-258.964,-46.745,l),
(-170.747,41.471,l)
);
}
);
},
{
layerId = m001;
shapes = (
{
closed = 1;
nodes = (
(40,0,l),
(313,0,l),
(313,-239,l),
(40,-239,l)
);
},
{
closed = 1;
nodes = (
(-40,-239,l),
(-313,-239,l),
(-313,0,l),
(-40,0,l)
);
}
);
},
{
layerId = m002;
shapes = (
{
closed = 1;
nodes = (
(0,0,l),
(254.706,0,l),
(254.706,-74.865,l),
(0,-74.865,l)
);
},
{
closed = 1;
nodes = (
(0,-74.865,l),
(-254.706,-74.865,l),
(-254.706,0,l),
(0,0,l)
);
}
);
},
{
layerId = m003;
shapes = (
{
closed = 1;
nodes = (
(-10,-110,l),
(180,80,l),
(370,-110,l),
(180,-300,l)
);
},
{
closed = 1;
nodes = (
(10,-110.304,l),
(-180,-300.304,l),
(-370,-110.304,l),
(-180,79.696,l)
);
}
);
},
{
layerId = m005;
shapes = (
{
closed = 1;
nodes = (
(0,0,l),
(282.941,0,l),
(282.941,-164.052,l),
(0,-164.052,l)
);
},
{
closed = 1;
nodes = (
(0,-164.052,l),
(-282.941,-164.052,l),
(-282.941,0,l),
(0,0,l)
);
}
);
},
{
layerId = m006;
shapes = (
{
closed = 1;
nodes = (
(37.712,-67.059,l),
(175.229,70.458,l),
(312.745,-67.059,l),
(175.229,-204.575,l)
);
},
{
closed = 1;
nodes = (
(-37.712,-67.218,l),
(-175.229,-204.734,l),
(-312.745,-67.218,l),
(-175.229,70.298,l)
);
}
);
},
{
layerId = m004;
shapes = (
{
closed = 1;
nodes = (
(63.856,0,l),
(263.856,0,l),
(263.856,-167.908,l),
(63.856,-167.908,l)
);
},
{
closed = 1;
nodes = (
(-63.856,-167.908,l),
(-263.856,-167.908,l),
(-263.856,0,l),
(-63.856,0,l)
);
}
);
},
{
layerId = m007;
shapes = (
{
closed = 1;
nodes = (
(86.265,0,l),
(217.694,0,l),
(217.694,-101.13,l),
(86.265,-101.13,l)
);
},
{
closed = 1;
nodes = (
(-86.265,-101.13,l),
(-217.694,-101.13,l),
(-217.694,0,l),
(-86.265,0,l)
);
}
);
},
{
layerId = m008;
shapes = (
{
closed = 1;
nodes = (
(-6.265,0,l),
(310.012,0,l),
(310.012,-262.735,l),
(-6.265,-262.735,l)
);
},
{
closed = 1;
nodes = (
(6.265,-262.735,l),
(-310.012,-262.735,l),
(-310.012,0,l),
(6.265,0,l)
);
}
);
}
);
unicode = 64437;
},
{
glyphname = "symbolthreedotsabovemod-arab";
layers = (
{
layerId = m000;
shapes = (
{
closed = 1;
nodes = (
(83.964,45.774,l),
(171.21,133.02,l),
(258.455,45.774,l),
(171.21,-41.471,l)
);
},
{
closed = 1;
nodes = (
(-170.284,-41.494,l),
(-257.53,45.752,l),
(-170.284,132.997,l),
(-83.039,45.752,l)
);
},
{
closed = 1;
nodes = (
(-85.7,325.953,l),
(0.463,412.116,l),
(86.625,325.953,l),
(0.463,239.791,l)
);
}
);
},
{
layerId = m001;
shapes = (
{
closed = 1;
nodes = (
(40,239,l),
(313,239,l),
(313,0,l),
(40,0,l)
);
},
{
closed = 1;
nodes = (
(-40,0,l),
(-313,0,l),
(-313,239,l),
(-40,239,l)
);
},
{
closed = 1;
nodes = (
(-137,569,l),
(137,569,l),
(137,330,l),
(-137,330,l)
);
}
);
},
{
layerId = m003;
shapes = (
{
closed = 1;
nodes = (
(3,117.304,l),
(180,294.304,l),
(357,117.304,l),
(180,-59.696,l)
);
},
{
closed = 1;
nodes = (
(-180,-60,l),
(-357,117,l),
(-180,294,l),
(-3,117,l)
);
},
{
closed = 1;
nodes = (
(-162.5,399.698,l),
(0,562.198,l),
(162.5,399.698,l),
(0,237.198,l)
);
}
);
},
{
layerId = m002;
shapes = (
{
closed = 1;
nodes = (
(0,74.865,l),
(254.706,74.865,l),
(254.706,0,l),
(0,0,l)
);
},
{
closed = 1;
nodes = (
(0,0,l),
(-254.706,0,l),
(-254.706,74.865,l),
(0,74.865,l)
);
},
{
closed = 1;
nodes = (
(-66.797,369.048,l),
(66.797,369.048,l),
(66.797,267.246,l),
(-66.797,267.246,l)
);
}
);
},
{
layerId = m006;
shapes = (
{
closed = 1;
nodes = (
(44.748,80.421,l),
(175.467,211.14,l),
(306.186,80.421,l),
(175.467,-50.298,l)
);
},
{
closed = 1;
nodes = (
(-174.99,-50.458,l),
(-305.709,80.261,l),
(-174.99,210.98,l),
(-44.271,80.261,l)
);
},
{
closed = 1;
nodes = (
(-122.899,361.672,l),
(0.239,484.809,l),
(123.376,361.672,l),
(0.239,238.535,l)
);
}
);
},
{
layerId = m005;
shapes = (
{
closed = 1;
nodes = (
(0,164.052,l),
(282.941,164.052,l),
(282.941,0,l),
(0,0,l)
);
},
{
closed = 1;
nodes = (
(0,0,l),
(-282.941,0,l),
(-282.941,164.052,l),
(0,164.052,l)
);
},
{
closed = 1;
nodes = (
(-107.582,483.333,l),
(107.582,483.333,l),
(107.582,310.719,l),
(-107.582,310.719,l)
);
}
);
},
{
layerId = m004;
shapes = (
{
closed = 1;
nodes = (
(63.856,167.908,l),
(263.856,167.908,l),
(263.856,0,l),
(63.856,0,l)
);
},
{
closed = 1;
nodes = (
(-63.856,0,l),
(-263.856,0,l),
(-263.856,167.908,l),
(-63.856,167.908,l)
);
},
{
closed = 1;
nodes = (
(-100.261,459.739,l),
(100.261,459.739,l),
(100.261,291.83,l),
(-100.261,291.83,l)
);
}
);
},
{
layerId = m007;
shapes = (
{
closed = 1;
nodes = (
(86.265,101.13,l),
(217.694,101.13,l),
(217.694,0,l),
(86.265,0,l)
);
},
{
closed = 1;
nodes = (
(-86.265,0,l),
(-217.694,0,l),
(-217.694,101.13,l),
(-86.265,101.13,l)
);
},
{
closed = 1;
nodes = (
(-65.752,357.106,l),
(65.752,357.106,l),
(65.752,255.976,l),
(-65.752,255.976,l)
);
}
);
},
{
layerId = m008;
shapes = (
{
closed = 1;
nodes = (
(-6.265,262.735,l),
(310.012,262.735,l),
(310.012,0,l),
(-6.265,0,l)
);
},
{
closed = 1;
nodes = (
(6.265,0,l),
(-310.012,0,l),
(-310.012,262.735,l),
(6.265,262.735,l)
);
},
{
closed = 1;
nodes = (
(-138.046,580.942,l),
(138.046,580.942,l),
(138.046,341.27,l),
(-138.046,341.27,l)
);
}
);
}
);
unicode = 64438;
},
{
glyphname = "symbolthreedotspointingdownwardsbelowmod-arab";
layers = (
{
layerId = m000;
shapes = (
{
closed = 1;
nodes = (
(83.501,-45.774,l),
(170.747,41.471,l),
(257.993,-45.774,l),
(170.747,-133.02,l)
);
},
{
closed = 1;
nodes = (
(-83.501,-45.752,l),
(-170.747,-132.997,l),
(-257.993,-45.752,l),
(-170.747,41.494,l)
);
},
{
closed = 1;
nodes = (
(-86.162,-325.938,l),
(0,-239.776,l),
(86.162,-325.938,l),
(0,-412.101,l)
);
}
);
},
{
layerId = m001;
shapes = (
{
closed = 1;
nodes = (
(40,0,l),
(313,0,l),
(313,-239,l),
(40,-239,l)
);
},
{
closed = 1;
nodes = (
(-40,-239,l),
(-313,-239,l),
(-313,0,l),
(-40,0,l)
);
},
{
closed = 1;
nodes = (
(-136.5,-330,l),
(136.5,-330,l),
(136.5,-569,l),
(-136.5,-569,l)
);
}
);
},
{
layerId = m002;
shapes = (
{
closed = 1;
nodes = (
(0,0,l),
(254.706,0,l),
(254.706,-73.296,l),
(0,-73.296,l)
);
},
{
closed = 1;
nodes = (
(0,-73.296,l),
(-254.706,-73.296,l),
(-254.706,0,l),
(0,0,l)
);
},
{
closed = 1;
nodes = (
(-66.797,-274.855,l),
(66.797,-274.855,l),
(66.797,-375.089,l),
(-66.797,-375.089,l)
);
}
);
},
{
layerId = m003;
shapes = (
{
closed = 1;
nodes = (
(3,-117.304,l),
(180,59.696,l),
(357,-117.304,l),
(180,-294.304,l)
);
},
{
closed = 1;
nodes = (
(-3,-117,l),
(-180,-294,l),
(-357,-117,l),
(-180,60,l)
);
},
{
closed = 1;
nodes = (
(-162.5,-399.5,l),
(0,-237,l),
(162.5,-399.5,l),
(0,-562,l)
);
}
);
},
{
layerId = m006;
shapes = (
{
closed = 1;
nodes = (
(44.51,-60.421,l),
(175.229,70.298,l),
(305.948,-60.421,l),
(175.229,-191.14,l)
);
},
{
closed = 1;
nodes = (
(-44.51,-60.261,l),
(-175.229,-190.98,l),
(-305.948,-60.261,l),
(-175.229,70.458,l)
);
},
{
closed = 1;
nodes = (
(-123.137,-341.569,l),
(0,-218.431,l),
(123.137,-341.569,l),
(0,-464.706,l)
);
}
);
},
{
layerId = m005;
shapes = (
{
closed = 1;
nodes = (
(0,0,l),
(282.941,0,l),
(282.941,-153.072,l),
(0,-153.072,l)
);
},
{
closed = 1;
nodes = (
(0,-153.072,l),
(-282.941,-153.072,l),
(-282.941,0,l),
(0,0,l)
);
},
{
closed = 1;
nodes = (
(-107.582,-303.987,l),
(107.582,-303.987,l),
(107.582,-465.621,l),
(-107.582,-465.621,l)
);
}
);
},
{
layerId = m004;
shapes = (
{
closed = 1;
nodes = (
(63.856,0,l),
(263.856,0,l),
(263.856,-167.908,l),
(63.856,-167.908,l)
);
},
{
closed = 1;
nodes = (
(-63.856,-167.908,l),
(-263.856,-167.908,l),
(-263.856,0,l),
(-63.856,0,l)
);
},
{
closed = 1;
nodes = (
(-100,-291.83,l),
(100,-291.83,l),
(100,-459.739,l),
(-100,-459.739,l)
);
}
);
},
{
layerId = m007;
shapes = (
{
closed = 1;
nodes = (
(86.265,0,l),
(217.694,0,l),
(217.694,-101.13,l),
(86.265,-101.13,l)
);
},
{
closed = 1;
nodes = (
(-86.265,-101.13,l),
(-217.694,-101.13,l),
(-217.694,0,l),
(-86.265,0,l)
);
},
{
closed = 1;
nodes = (
(-65.714,-255.976,l),
(65.714,-255.976,l),
(65.714,-357.106,l),
(-65.714,-357.106,l)
);
}
);
},
{
layerId = m008;
shapes = (
{
closed = 1;
nodes = (
(-6.265,0,l),
(310.012,0,l),
(310.012,-262.735,l),
(-6.265,-262.735,l)
);
},
{
closed = 1;
nodes = (
(6.265,-262.735,l),
(-310.012,-262.735,l),
(-310.012,0,l),
(6.265,0,l)
);
},
{
closed = 1;
nodes = (
(-137.583,-348.88,l),
(137.583,-348.88,l),
(137.583,-586.983,l),
(-137.583,-586.983,l)
);
}
);
}
);
unicode = 64441;
},
{
glyphname = uniE000;
layers = (
{
layerId = m000;
shapes = (
{
closed = 1;
nodes = (
(33.774,-131.975,l),
(139.046,-192.754,l),
(78.267,-298.026,l),
(-27.004,-237.247,l)
);
},
{
closed = 1;
nodes = (
(119.562,126.62,l),
(226.349,64.967,l),
(164.695,-41.821,l),
(57.908,19.833,l)
);
},
{
closed = 1;
nodes = (
(-125.083,-119.466,l),
(-231.87,-57.813,l),
(-170.216,48.974,l),
(-63.429,-12.679,l)
);
}
);
},
{
layerId = m001;
shapes = (
{
closed = 1;
nodes = (
(-90,-200,l),
(90,-200,l),
(90,-340,l),
(-90,-340,l)
);
},
{
closed = 1;
nodes = (
(20,0,l),
(220,0,l),
(220,-160,l),
(20,-160,l)
);
},
{
closed = 1;
nodes = (
(-20,-160,l),
(-220,-160,l),
(-220,0,l),
(-20,0,l)
);
}
);
},
{
layerId = m002;
shapes = (
{
closed = 1;
nodes = (
(-53.511,-191.942,l),
(53.511,-191.942,l),
(53.511,-277.246,l),
(-53.511,-277.246,l)
);
},
{
closed = 1;
nodes = (
(0,0,l),
(247.46,0,l),
(247.46,-63.814,l),
(0,-63.814,l)
);
},
{
closed = 1;
nodes = (
(0,-63.814,l),
(-247.46,-63.814,l),
(-247.46,0,l),
(0,0,l)
);
}
);
},
{
layerId = m003;
shapes = (
{
closed = 1;
nodes = (
(-4.026,-141.691,l),
(148.762,-229.903,l),
(60.55,-382.691,l),
(-92.238,-294.479,l)
);
},
{
closed = 1;
nodes = (
(87.047,87.295,l),
(260.122,-12.63,l),
(160.197,-185.705,l),
(-12.878,-85.78,l)
);
},
{
closed = 1;
nodes = (
(-129.58,-263.351,l),
(-302.655,-163.426,l),
(-202.731,9.649,l),
(-29.655,-90.276,l)
);
}
);
},
{
layerId = m006;
shapes = (
{
closed = 1;
nodes = (
(15.465,-136.681,l),
(143.752,-210.748,l),
(69.686,-339.034,l),
(-58.601,-264.968,l)
);
},
{
closed = 1;
nodes = (
(103.813,107.572,l),
(242.707,27.382,l),
(162.517,-111.513,l),
(23.622,-31.322,l)
);
},
{
closed = 1;
nodes = (
(-127.261,-189.158,l),
(-266.155,-108.968,l),
(-185.965,29.927,l),
(-47.071,-50.264,l)
);
}
);
},
{
layerId = m005;
shapes = (
{
closed = 1;
nodes = (
(-74.575,-203.595,l),
(74.575,-203.595,l),
(74.575,-320.719,l),
(-74.575,-320.719,l)
);
},
{
closed = 1;
nodes = (
(0,0,l),
(232.222,0,l),
(232.222,-116.699,l),
(0,-116.699,l)
);
},
{
closed = 1;
nodes = (
(0,-116.699,l),
(-232.222,-116.699,l),
(-232.222,0,l),
(0,0,l)
);
}
);
},
{
layerId = m004;
shapes = (
{
closed = 1;
nodes = (
(-66.144,-204.771,l),
(66.144,-204.771,l),
(66.144,-311.373,l),
(-66.144,-311.373,l)
);
},
{
closed = 1;
nodes = (
(62.941,0,l),
(205.686,0,l),
(205.686,-117.059,l),
(62.941,-117.059,l)
);
},
{
closed = 1;
nodes = (
(-62.941,-117.059,l),
(-205.686,-117.059,l),
(-205.686,0,l),
(-62.941,0,l)
);
}
);
},
{
layerId = m007;
shapes = (
{
closed = 1;
nodes = (
(-43.735,-209.253,l),
(43.735,-209.253,l),
(43.735,-284.482,l),
(-43.735,-284.482,l)
);
},
{
closed = 1;
nodes = (
(103.277,0,l),
(192.241,0,l),
(192.241,-76.723,l),
(103.277,-76.723,l)
);
},
{
closed = 1;
nodes = (
(-103.277,-76.723,l),
(-192.241,-76.723,l),
(-192.241,0,l),
(-103.277,0,l)
);
}
);
},
{
layerId = m008;
shapes = (
{
closed = 1;
nodes = (
(-99.776,-222.689,l),
(99.776,-222.689,l),
(99.776,-372.764,l),
(-99.776,-372.764,l)
);
},
{
closed = 1;
nodes = (
(-13.277,0,l),
(215.219,0,l),
(215.219,-177.092,l),
(-13.277,-177.092,l)
);
},
{
closed = 1;
nodes = (
(13.277,-177.092,l),
(-215.219,-177.092,l),
(-215.219,0,l),
(13.277,0,l)
);
}
);
}
);
unicode = 57344;
},
{
glyphname = "hamza-arab";
layers = (
{
anchors = (
{
name = "top-arab";
pos = (540,772);
},
{
name = "bottom-arab";
pos = (500,0);
}
);
layerId = m007;
shapes = (
{
closed = 1;
nodes = (
(194.706,41.641,l),
(447.039,138.092,l),
(313.418,174.922,o),
(234.621,303.765,o),
(234.621,437.954,cs),
(234.621,598.895,o),
(351.974,772.163,o),
(539.961,772.163,cs),
(660.725,772.163,o),
(741.033,723.314,o),
(769.49,701.987,c),
(755.758,641.477,l),
(718.255,670.719,o),
(646.647,716.869,o),
(538.85,715.693,cs),
(385.32,714.516,o),
(291.092,570.399,o),
(291.092,437.954,cs),
(291.092,303.641,o),
(384.582,173.216,o),
(542.052,175.366,c),
(868.458,300.059,l),
(888.405,247.634,l),
(214.654,-10.784,l)
);
}
);
width = 1022;
},
{
anchors = (
{
name = "top-arab";
pos = (567,984);
},
{
name = "bottom-arab";
pos = (500,0);
}
);
layerId = m001;
shapes = (
{
closed = 1;
nodes = (
(120.588,246.608,l),
(279.588,307.373,l),
(207.275,369.824,o),
(173.314,468.471,o),
(173.314,563.314,cs),
(173.314,765.431,o),
(323.608,984.451,o),
(567.412,984.451,cs),
(712.882,984.451,o),
(811.49,923.706,o),
(846.353,897.804,c),
(738.373,634.157,l),
(679.824,680.784,o),
(613.706,715.039,o),
(550.745,697.392,cs),
(487.804,679.745,o),
(460.373,617.98,o),
(460.373,563.314,cs),
(460.373,508.608,o),
(490.725,442.235,o),
(598.784,432.49,c),
(874.863,538.882,l),
(978.078,270.51,l),
(223.804,-21.765,l)
);
}
);
width = 1097;
}
);
unicode = (1569,65152);
},
{
glyphname = uni0627_alt.short;
layers = (
{
anchors = (
{
name = "top-arab";
pos = (220,1219);
},
{
name = "bottom-arab";
pos = (220,0);
}
);
layerId = m007;
shapes = (
{
closed = 1;
nodes = (
(191.078,1218.954,l),
(249.641,1218.954,l),
(249.641,0,l),
(191.078,0,l)
);
}
);
width = 441;
},
{
anchors = (
{
name = "top-arab";
pos = (295,1344);
},
{
name = "bottom-arab";
pos = (295,0);
}
);
layerId = m001;
shapes = (
{
closed = 1;
nodes = (
(136.176,1344.314,l),
(454.608,1344.314,l),
(454.608,0,l),
(136.176,0,l)
);
}
);
width = 591;
}
);
},
{
glyphname = "alef-arab.fina.short";
layers = (
{
anchors = (
{
name = "top-arab";
pos = (220,1219);
},
{
name = "bottom-arab";
pos = (220,0);
}
);
layerId = m007;
shapes = (
{
closed = 1;
nodes = (
(571.536,0,l),
(517.745,0,l),
(334.536,0,o),
(191.078,146.268,o),
(191.078,325.948,cs),
(191.078,1218.954,l),
(249.641,1218.954,l),
(249.641,328.758,l),
(249.641,179.967,o),
(368.954,60,o),
(517.745,60,cs),
(571.536,60,l)
);
}
);
width = 572;
},
{
anchors = (
{
name = "top-arab";
pos = (295,1344);
},
{
name = "bottom-arab";
pos = (295,0);
}
);
layerId = m001;
shapes = (
{
closed = 1;
nodes = (
(663.039,0,l),
(556.176,0,l),
(286.039,0,o),
(136.176,192.02,o),
(136.176,409.216,cs),
(136.176,1344.314,l),
(454.608,1344.314,l),
(454.608,451.373,l),
(454.608,389.51,o),
(494.314,340,o),
(556.176,340,cs),
(663.039,340,l)
);
}
);
width = 663;
}
);
},
{
glyphname = "alef-arab";
layers = (
{
anchors = (
{
name = "top-arab";
pos = (220,1413);
},
{
name = "bottom-arab";
pos = (220,0);
}
);
layerId = m007;
shapes = (
{
closed = 1;
nodes = (
(191.078,1412.941,l),
(249.641,1412.941,l),
(249.641,0,l),
(191.078,0,l)
);
}
);
width = 441;
},
{
anchors = (
{
name = "top-arab";
pos = (295,1454);
},
{
name = "bottom-arab";
pos = (295,0);
}
);
layerId = m001;
shapes = (
{
closed = 1;
nodes = (
(136.176,1454.118,l),
(454.608,1454.118,l),
(454.608,0,l),
(136.176,0,l)
);
}
);
width = 591;
}
);
unicode = (1575,65165);
},
{
glyphname = "alef-arab.fina";
layers = (
{
anchors = (
{
name = "top-arab";
pos = (220,1413);
},
{
name = "bottom-arab";
pos = (220,0);
}
);
layerId = m007;
shapes = (
{
closed = 1;
nodes = (
(571.536,0,l),
(517.745,0,l),
(334.536,0,o),
(191.078,146.268,o),
(191.078,325.948,cs),
(191.078,1412.941,l),
(249.641,1412.941,l),
(249.641,328.758,l),
(249.641,179.967,o),
(368.954,60,o),
(517.745,60,cs),
(571.536,60,l)
);
}
);
width = 572;
},
{
anchors = (
{
name = "top-arab";
pos = (295,1454);
},
{
name = "bottom-arab";
pos = (295,0);
}
);
layerId = m001;
shapes = (
{
closed = 1;
nodes = (
(663.039,0,l),
(556.176,0,l),
(286.039,0,o),
(136.176,192.02,o),
(136.176,409.216,cs),
(136.176,1454.118,l),
(454.608,1454.118,l),
(454.608,451.373,l),
(454.608,389.51,o),
(494.314,340,o),
(556.176,340,cs),
(663.039,340,l)
);
}
);
width = 663;
}
);
unicode = 65166;
},
{
glyphname = arabictatweelmod;
layers = (
{
anchors = (
{
name = "top-arab";
pos = (131,252);
},
{
name = "bottom-arab";
pos = (131,0);
}
);
layerId = m007;
shapes = (
{
closed = 1;
nodes = (
(0,60,c),
(262.614,60,l),
(262.614,0,l),
(0,0,l),
(-80.392,5.621,o),
(-80.392,54.314,o)
);
}
);
width = 263;
},
{
anchors = (
{
name = "top-arab";
pos = (150,416);
},
{
name = "bottom-arab";
pos = (150,0);
}
);
layerId = m001;
shapes = (
{
closed = 1;
nodes = (
(0,340,c),
(299.216,340,l),
(299.216,0,l),
(0,0,l),
(-85.882,84.314,o),
(-85.882,254.706,o)
);
}
);
width = 299;
}
);
unicode = (1600,57525);
},
{
glyphname = "dotlessbeh-arab.fina";
layers = (
{
anchors = (
{
name = "top-arab";
pos = (884,433);
},
{
name = "bottom-arab";
pos = (884,0);
}
);
layerId = m007;
shapes = (
{
closed = 1;
nodes = (
(1277.157,0,cs),
(498.66,0,l),
(317.608,0,o),
(171.34,145.614,o),
(171.34,325.948,cs),
(171.34,631.765,l),
(229.902,631.765,l),
(229.902,328.758,l),
(229.902,179.967,o),
(349.935,60,o),
(498.66,60,cs),
(1277.157,60,l),
(1425.882,60,o),
(1545.915,179.967,o),
(1545.915,328.758,cs),
(1545.915,610.196,l),
(1604.477,610.196,l),
(1604.477,328.758,l),
(1604.477,179.967,o),
(1724.444,60,o),
(1873.235,60,cs),
(1905.523,60,l),
(1905.523,0,l),
(1873.235,0,l),
(1736.281,0,o),
(1621.569,83.712,o),
(1575.196,203.098,c),
(1528.824,83.712,o),
(1414.111,0,o)
);
}
);
width = 1906;
},
{
anchors = (
{
name = "top-arab";
pos = (869,616);
},
{
name = "bottom-arab";
pos = (869,0);
}
);
layerId = m001;
shapes = (
{
closed = 1;
nodes = (
(1307.353,0,cs),
(549.902,0,l),
(312.118,0,o),
(120.098,182.216,o),
(120.098,409.216,cs),
(120.098,796.471,l),
(438.529,796.471,l),
(438.529,451.373,l),
(438.529,389.51,o),
(489.02,340,o),
(549.902,340,cs),
(1307.353,340,l),
(1368.235,340,o),
(1418.725,389.51,o),
(1418.725,451.373,cs),
(1418.725,752.941,l),
(1737.157,752.941,l),
(1737.157,451.373,l),
(1737.157,389.51,o),
(1786.667,340,o),
(1848.529,340,cs),
(1912.843,340,l),
(1912.843,0,l),
(1848.529,0,l),
(1726.216,0,o),
(1643.529,51.686,o),
(1577.941,134.471,c),
(1512.353,51.686,o),
(1429.667,0,o)
);
}
);
width = 1913;
}
);
},
{
glyphname = "uighurkazakhkirghizalefmaksura-arab.init";
layers = (
{
anchors = (
{
name = "top-arab";
pos = (422,632);
},
{
name = "bottom-arab";
pos = (218,0);
}
);
layerId = m007;
shapes = (
{
closed = 1;
nodes = (
(0,60,c),
(217.647,60,l),
(366.373,60,o),
(486.405,179.967,o),
(486.405,328.758,cs),
(486.405,631.765,l),
(544.967,631.765,l),
(544.967,325.948,l),
(544.967,145.614,o),
(398.699,0,o),
(217.647,0,cs),
(0,0,l),
(-80.392,5.621,o),
(-80.392,54.314,o)
);
}
);
width = 716;
},
{
anchors = (
{
name = "top-arab";
pos = (453,796);
},
{
name = "bottom-arab";
pos = (185,0);
}
);
layerId = m001;
shapes = (
{
closed = 1;
nodes = (
(0,340,c),
(184.706,340,l),
(245.588,340,o),
(296.078,389.51,o),
(296.078,451.373,cs),
(296.078,796.471,l),
(614.51,796.471,l),
(614.51,409.216,l),
(614.51,182.216,o),
(422.49,0,o),
(184.706,0,cs),
(0,0,l),
(-85.882,84.314,o),
(-85.882,254.706,o)
);
}
);
width = 735;
}
);
unicode = 64488;
},
{
glyphname = "uighurkazakhkirghizalefmaksura-arab.medi";
layers = (
{
anchors = (
{
name = "top-arab";
pos = (423,610);
},
{
name = "bottom-arab";
pos = (218,0);
}
);
layerId = m007;
shapes = (
{
closed = 1;
nodes = (
(0,60,c),
(217.647,60,l),
(366.373,60,o),
(486.405,179.967,o),
(486.405,328.758,cs),
(486.405,610.196,l),
(544.967,610.196,l),
(544.967,328.758,l),
(544.967,179.967,o),
(665,60,o),
(813.725,60,cs),
(846.013,60,l),
(846.013,0,l),
(813.725,0,l),
(676.771,0,o),
(562.059,83.712,o),
(515.686,203.098,c),
(469.314,83.712,o),
(354.601,0,o),
(217.647,0,cs),
(0,0,l),
(-80.392,5.621,o),
(-80.392,54.314,o)
);
}
);
width = 846;
},
{
anchors = (
{
name = "top-arab";
pos = (453,753);
},
{
name = "bottom-arab";
pos = (185,0);
}
);
layerId = m001;
shapes = (
{
closed = 1;
nodes = (
(0,340,c),
(184.706,340,l),
(245.588,340,o),
(296.078,389.51,o),
(296.078,451.373,cs),
(296.078,752.941,l),
(614.51,752.941,l),
(614.51,451.373,l),
(614.51,389.51,o),
(665,340,o),
(725.882,340,cs),
(790.196,340,l),
(790.196,0,l),
(725.882,0,l),
(603.569,0,o),
(520.882,51.686,o),
(455.294,134.471,c),
(389.706,51.686,o),
(307.02,0,o),
(184.706,0,cs),
(0,0,l),
(-85.882,84.314,o),
(-85.882,254.706,o)
);
}
);
width = 790;
}
);
unicode = 64489;
},
{
glyphname = uniE002;
layers = (
{
layerId = m007;
shapes = (
{
closed = 1;
nodes = (
(0,60,c),
(161.83,60,l),
(310.556,60,o),
(430.588,179.967,o),
(430.588,328.758,cs),
(430.588,631.765,l),
(489.15,631.765,l),
(489.15,325.948,l),
(489.15,145.614,o),
(342.882,0,o),
(161.83,0,cs),
(0,0,l),
(-80.392,5.621,o),
(-80.392,54.314,o)
);
}
);
width = 660;
},
{
layerId = m001;
shapes = (
{
closed = 1;
nodes = (
(0,340,c),
(187.451,340,l),
(248.333,340,o),
(298.824,389.51,o),
(298.824,451.373,cs),
(298.824,796.471,l),
(617.255,796.471,l),
(617.255,409.216,l),
(617.255,182.216,o),
(425.235,0,o),
(187.451,0,cs),
(0,0,l),
(-85.882,84.314,o),
(-85.882,254.706,o)
);
}
);
width = 737;
}
);
unicode = 57346;
},
{
glyphname = uniE003;
layers = (
{
layerId = m007;
shapes = (
{
closed = 1;
nodes = (
(0,60,c),
(161.83,60,l),
(310.556,60,o),
(430.588,179.967,o),
(430.588,328.758,cs),
(430.588,610.196,l),
(489.15,610.196,l),
(489.15,328.758,l),
(489.15,179.967,o),
(609.183,60,o),
(757.908,60,cs),
(790.196,60,l),
(790.196,0,l),
(757.908,0,l),
(620.954,0,o),
(506.242,83.712,o),
(459.869,203.098,c),
(413.497,83.712,o),
(298.784,0,o),
(161.83,0,cs),
(0,0,l),
(-80.392,5.621,o),
(-80.392,54.314,o)
);
}
);
width = 790;
},
{
layerId = m001;
shapes = (
{
closed = 1;
nodes = (
(0,340,c),
(187.451,340,l),
(248.333,340,o),
(298.824,389.51,o),
(298.824,451.373,cs),
(298.824,752.941,l),
(617.255,752.941,l),
(617.255,451.373,l),
(617.255,389.51,o),
(667.745,340,o),
(728.627,340,cs),
(792.941,340,l),
(792.941,0,l),
(728.627,0,l),
(606.314,0,o),
(523.627,51.686,o),
(458.039,134.471,c),
(392.451,51.686,o),
(309.765,0,o),
(187.451,0,cs),
(0,0,l),
(-85.882,84.314,o),
(-85.882,254.706,o)
);
}
);
width = 793;
}
);
unicode = 57347;
},
{
glyphname = uniE006;
layers = (
{
layerId = m007;
shapes = (
{
closed = 1;
nodes = (
(0,60,c),
(509.869,60,l),
(658.595,60,o),
(778.627,179.967,o),
(778.627,328.758,cs),
(778.627,631.765,l),
(837.19,631.765,l),
(837.19,325.948,l),
(837.19,145.614,o),
(690.922,0,o),
(509.869,0,cs),
(0,0,l),
(-80.392,5.621,o),
(-80.392,54.314,o)
);
}
);
width = 1009;
},
{
layerId = m001;
shapes = (
{
closed = 1;
nodes = (
(0,340,c),
(508.039,340,l),
(568.922,340,o),
(619.412,389.51,o),
(619.412,451.373,cs),
(619.412,796.471,l),
(937.843,796.471,l),
(937.843,409.216,l),
(937.843,182.216,o),
(745.824,0,o),
(508.039,0,cs),
(0,0,l),
(-85.882,84.314,o),
(-85.882,254.706,o)
);
}
);
width = 1058;
}
);
unicode = 57350;
},
{
glyphname = uniE007;
layers = (
{
layerId = m007;
shapes = (
{
closed = 1;
nodes = (
(0,60,c),
(400,60,l),
(548.725,60,o),
(668.758,179.967,o),
(668.758,328.758,cs),
(668.758,610.196,l),
(727.32,610.196,l),
(727.32,328.758,l),
(727.32,179.967,o),
(847.353,60,o),
(996.078,60,cs),
(1028.366,60,l),
(1028.366,0,l),
(996.078,0,l),
(859.124,0,o),
(744.412,83.712,o),
(698.039,203.098,c),
(651.667,83.712,o),
(536.954,0,o),
(400,0,cs),
(0,0,l),
(-80.392,5.621,o),
(-80.392,54.314,o)
);
}
);
width = 1028;
},
{
layerId = m001;
shapes = (
{
closed = 1;
nodes = (
(0,340,c),
(400,340,l),
(460.882,340,o),
(511.373,389.51,o),
(511.373,451.373,cs),
(511.373,752.941,l),
(829.804,752.941,l),
(829.804,451.373,l),
(829.804,389.51,o),
(880.294,340,o),
(941.176,340,cs),
(1005.49,340,l),
(1005.49,0,l),
(941.176,0,l),
(818.863,0,o),
(736.176,51.686,o),
(670.588,134.471,c),
(605,51.686,o),
(522.314,0,o),
(400,0,cs),
(0,0,l),
(-85.882,84.314,o),
(-85.882,254.706,o)
);
}
);
width = 1005;
}
);
unicode = 57351;
},
{
glyphname = uniE008;
layers = (
{
layerId = m007;
shapes = (
{
closed = 1;
nodes = (
(1169.35,613.614,l),
(1070.585,669.484,o),
(790.174,831.098,o),
(627.533,925.046,cs),
(507.69,993.824,o),
(355.206,942.471,o),
(294.605,769.667,c),
(285.84,747.007,l),
(230.977,768.784,l),
(239.742,791.444,l),
(311.899,991.732,o),
(499.494,1064.693,o),
(654.33,976.366,cs),
(859.18,859.327,o),
(1239.082,638.418,o),
(1239.082,638.418,c),
(1236.363,582.634,l),
(441.049,203.752,l),
(264.062,124.431,o),
(174.2,-63.163,o),
(241.912,-241.085,cs),
(293.147,-373.51,o),
(420.768,-461.065,o),
(562.866,-461.065,cs),
(1177.017,-461.065,l),
(1177.017,-521,l),
(562.866,-521,l),
(340.141,-520.065,o),
(160.069,-340.059,o),
(161.004,-117.268,cs),
(161.004,48.608,o),
(263.768,187.876,o),
(419.448,257.268,cs)
);
}
);
width = 1336;
},
{
layerId = m001;
shapes = (
{
closed = 1;
nodes = (
(968.61,663.098,l),
(845.139,717.137,o),
(712.963,775.353,o),
(625.355,812.569,cs),
(535.708,850.235,o),
(488.453,765.941,o),
(475.433,735.882,cs),
(441.963,661.98,l),
(151.022,792.647,l),
(184.492,866.549,l),
(286.845,1098.863,o),
(524.767,1199.275,o),
(747.316,1106.373,cs),
(964.061,1016.784,o),
(1272.59,825.157,o),
(1272.59,825.157,c),
(1259.806,478.392,l),
(690.178,215,l),
(450.316,106.529,o),
(412.218,-11,o),
(441.041,-128.333,cs),
(457.767,-196.706,o),
(533.884,-274.98,o),
(713.237,-274.98,cs),
(1209.61,-274.98,l),
(1209.61,-614,l),
(713.237,-614,l),
(332.473,-613.98,o),
(127.041,-399.725,o),
(108.433,-92.49,cs),
(93.727,135.216,o),
(236.884,381.02,o),
(576.159,512.765,cs)
);
}
);
width = 1351;
}
);
unicode = 57352;
},
{
glyphname = uniE009;
layers = (
{
layerId = m007;
shapes = (
{
closed = 1;
nodes = (
(1072.143,507.201,l),
(1137,209,l),
(1163,78,o),
(1285.536,60,o),
(1348.072,60,cs),
(1397.725,60,l),
(1397.725,0,l),
(1348.072,0,l),
(1271.373,0,o),
(1115,32,o),
(1084,190,cs),
(1020.793,482.51,l),
(441.049,203.752,l),
(264.062,124.431,o),
(174.2,-63.163,o),
(241.912,-241.085,cs),
(293.147,-373.51,o),
(420.768,-461.065,o),
(562.866,-461.065,cs),
(1177.017,-461.065,l),
(1177.017,-521,l),
(562.866,-521,l),
(340.141,-520.065,o),
(160.069,-340.059,o),
(161.004,-117.268,cs),
(161.004,48.608,o),
(263.768,187.876,o),
(419.448,257.268,cs),
(1169.35,613.614,l),
(1070.585,669.484,o),
(790.174,831.098,o),
(627.533,925.046,cs),
(507.69,993.824,o),
(355.206,942.471,o),
(294.605,769.667,c),
(285.84,747.007,l),
(230.977,768.784,l),
(239.742,791.444,l),
(311.899,991.732,o),
(499.494,1064.693,o),
(654.33,976.366,cs),
(859.18,859.327,o),
(1239.082,638.418,o),
(1239.082,638.418,c),
(1236.363,586.163,l)
);
}
);
width = 1398;
},
{
layerId = m001;
shapes = (
{
closed = 1;
nodes = (
(1166.197,450.011,l),
(1184.516,373.804,l),
(1191.28,348.333,o),
(1216.594,340,o),
(1240.633,340,cs),
(1449.437,340,l),
(1449.437,0,l),
(1230.633,0,l),
(1090.143,0,o),
(995.182,71.608,o),
(966.731,190.627,cs),
(936.5,328.898,l),
(690.178,215,l),
(450.316,106.529,o),
(412.218,-11,o),
(441.041,-128.333,cs),
(457.767,-196.706,o),
(533.884,-274.98,o),
(713.237,-274.98,cs),
(1209.61,-274.98,l),
(1209.61,-614,l),
(713.237,-614,l),
(332.473,-613.98,o),
(127.041,-399.725,o),
(108.433,-92.49,cs),
(93.727,135.216,o),
(236.884,381.02,o),
(576.159,512.765,cs),
(968.61,663.098,l),
(845.139,717.137,o),
(712.963,775.353,o),
(625.355,812.569,cs),
(535.708,850.235,o),
(488.453,765.941,o),
(475.433,735.882,cs),
(441.963,661.98,l),
(151.022,792.647,l),
(184.492,866.549,l),
(286.845,1098.863,o),
(524.767,1199.275,o),
(747.316,1106.373,cs),
(964.061,1016.784,o),
(1272.59,825.157,o),
(1272.59,825.157,c),
(1259.806,508.392,l)
);
}
);
width = 1451;
}
);
unicode = 57353;
},
{
glyphname = "hah-arab";
layers = (
{
anchors = (
{
name = "top-arab";
pos = (655,1013);
},
{
name = "bottom-arab";
pos = (759,-521);
}
);
layerId = m007;
shapes = (
{
closed = 1;
nodes = (
(1169.35,613.614,l),
(1070.585,669.484,o),
(790.174,831.098,o),
(627.533,925.046,cs),
(507.69,993.824,o),
(355.206,942.471,o),
(294.605,769.667,c),
(285.84,747.007,l),
(230.977,768.784,l),
(239.742,791.444,l),
(311.899,991.732,o),
(499.494,1064.693,o),
(654.33,976.366,cs),
(859.18,859.327,o),
(1239.082,638.418,o),
(1239.082,638.418,c),
(1236.363,582.634,l),
(441.049,203.752,l),
(264.062,124.431,o),
(174.2,-63.163,o),
(241.912,-241.085,cs),
(293.147,-373.51,o),
(420.768,-461.065,o),
(562.866,-461.065,cs),
(1177.017,-461.065,l),
(1177.017,-521,l),
(562.866,-521,l),
(340.141,-520.065,o),
(160.069,-340.059,o),
(161.004,-117.268,cs),
(161.004,48.608,o),
(263.768,187.876,o),
(419.448,257.268,cs)
);
}
);
width = 1338;
},
{
anchors = (
{
name = "top-arab";
pos = (747,1140);
},
{
name = "bottom-arab";
pos = (748,-508);
}
);
layerId = m001;
shapes = (
{
closed = 1;
nodes = (
(968.608,663.216,l),
(845.137,717.255,o),
(712.961,775.471,o),
(625.353,812.686,cs),
(535.706,850.353,o),
(488.451,766.059,o),
(475.431,736,cs),
(441.961,662.098,l),
(151.02,792.765,l),
(184.49,866.667,l),
(286.843,1098.98,o),
(524.765,1199.392,o),
(747.314,1106.49,cs),
(964.059,1016.902,o),
(1272.588,825.275,o),
(1272.588,825.275,c),
(1259.804,478.51,l),
(544.098,157.275,l),
(451.294,115.471,o),
(405.353,17.549,o),
(441.039,-75.275,cs),
(467.569,-143.647,o),
(533.882,-168.98,o),
(607.353,-168.98,cs),
(1209.608,-168.98,l),
(1209.608,-508,l),
(607.353,-508,l),
(332.471,-507.98,o),
(109.392,-285.882,o),
(109.412,-10.02,cs),
(109.412,196.118,o),
(236.882,381.137,o),
(430.078,456.02,cs)
);
}
);
width = 1354;
}
);
unicode = (1581,65185);
},
{
glyphname = "hah-arab.fina";
layers = (
{
anchors = (
{
name = "top-arab";
pos = (655,1013);
},
{
name = "bottom-arab";
pos = (759,-521);
}
);
layerId = m007;
shapes = (
{
closed = 1;
nodes = (
(1072.143,507.201,l),
(1137,209,l),
(1163,78,o),
(1285.536,60,o),
(1348.072,60,cs),
(1397.725,60,l),
(1397.725,0,l),
(1348.072,0,l),
(1271.373,0,o),
(1115,32,o),
(1084,190,cs),
(1020.793,482.51,l),
(441.049,203.752,l),
(264.062,124.431,o),
(174.2,-63.163,o),
(241.912,-241.085,cs),
(293.147,-373.51,o),
(420.768,-461.065,o),
(562.866,-461.065,cs),
(1177.017,-461.065,l),
(1177.017,-521,l),
(562.866,-521,l),
(340.141,-520.065,o),
(160.069,-340.059,o),
(161.004,-117.268,cs),
(161.004,48.608,o),
(263.768,187.876,o),
(419.448,257.268,cs),
(1169.35,613.614,l),
(1070.585,669.484,o),
(790.174,831.098,o),
(627.533,925.046,cs),
(507.69,993.824,o),
(355.206,942.471,o),
(294.605,769.667,c),
(285.84,747.007,l),
(230.977,768.784,l),
(239.742,791.444,l),
(311.899,991.732,o),
(499.494,1064.693,o),
(654.33,976.366,cs),
(859.18,859.327,o),
(1239.082,638.418,o),
(1239.082,638.418,c),
(1236.363,586.163,l)
);
}
);
width = 1398;
},
{
anchors = (
{
name = "top-arab";
pos = (747,1140);
},
{
name = "bottom-arab";
pos = (748,-508);
}
);
layerId = m001;
shapes = (
{
closed = 1;
nodes = (
(1165.889,451.295,l),
(1184.516,373.804,l),
(1191.28,348.333,o),
(1216.594,340,o),
(1240.633,340,cs),
(1449.437,340,l),
(1449.437,0,l),
(1230.633,0,l),
(1090.143,0,o),
(995.182,71.608,o),
(966.731,190.627,cs),
(935.604,332.997,l),
(544.098,157.275,l),
(451.294,115.471,o),
(405.353,17.549,o),
(441.039,-75.275,cs),
(467.569,-143.647,o),
(533.882,-168.98,o),
(607.353,-168.98,cs),
(1209.608,-168.98,l),
(1209.608,-508,l),
(607.353,-508,l),
(332.471,-507.98,o),
(109.392,-285.882,o),
(109.412,-10.02,cs),
(109.412,196.118,o),
(236.882,381.137,o),
(430.078,456.02,cs),
(968.608,663.216,l),
(845.137,717.255,o),
(712.961,775.471,o),
(625.353,812.686,cs),
(535.706,850.353,o),
(488.451,766.059,o),
(475.431,736,cs),
(441.961,662.098,l),
(151.02,792.765,l),
(184.49,866.667,l),
(286.843,1098.98,o),
(524.765,1199.392,o),
(747.314,1106.49,cs),
(964.059,1016.902,o),
(1272.588,825.275,o),
(1272.588,825.275,c),
(1259.804,508.51,l)
);
}
);
width = 1450;
}
);
unicode = 65186;
},
{
glyphname = "hah-arab.init";
layers = (
{
anchors = (
{
name = "top-arab";
pos = (629,790);
},
{
name = "bottom-arab";
pos = (629,29);
}
);
layerId = m007;
shapes = (
{
closed = 1;
nodes = (
(0,60,c),
(217.608,60,l),
(622.131,60,o),
(1039.497,314.078,o),
(1152.333,386.34,c),
(1057.392,439.732,o),
(769,605.739,o),
(601.837,701.882,cs),
(481.993,770.66,o),
(329.51,719.307,o),
(268.974,546.503,c),
(260.536,524.627,l),
(205.673,546.405,l),
(214.046,568.281,l),
(286.268,768.569,o),
(473.797,841.464,o),
(628.634,753.203,cs),
(833.549,636.163,o),
(1214.627,415.778,o),
(1214.627,415.778,c),
(1217.608,364.216,l),
(1211.562,359.497,o),
(715.627,0,o),
(217.608,0,cs),
(0,0,l),
(-80.392,5.621,o),
(-80.392,54.314,o)
);
}
);
width = 1316;
},
{
anchors = (
{
name = "top-arab";
pos = (652,972);
},
{
name = "bottom-arab";
pos = (652,20);
}
);
layerId = m001;
shapes = (
{
closed = 1;
nodes = (
(0,340,c),
(212.118,340,l),
(483.961,340,o),
(738.451,399.176,o),
(919,475.098,c),
(782.882,533.98,o),
(629,602.078,o),
(529.549,644.235,cs),
(439.902,681.902,o),
(392.647,597.608,o),
(380.608,567.549,c),
(352.039,505.412,l),
(61.098,636.078,l),
(88.686,698.216,l),
(192.02,930.529,o),
(428.961,1029.961,o),
(651.51,938.039,cs),
(869.235,848.451,o),
(1195.412,664.667,o),
(1195.412,664.667,c),
(1212.118,353.235,l),
(1191.431,338.451,o),
(836.412,0,o),
(212.118,0,cs),
(0,0,l),
(-85.882,84.314,o),
(-85.882,254.706,o)
);
}
);
width = 1294;
}
);
unicode = 65187;
},
{
glyphname = "hah-arab.medi";
layers = (
{
anchors = (
{
name = "top-arab";
pos = (629,790);
},
{
name = "bottom-arab";
pos = (629,0);
}
);
layerId = m007;
shapes = (
{
closed = 1;
nodes = (
(0,60,c),
(217.608,60,l),
(622.131,60,o),
(1039.497,314.078,o),
(1152.333,386.34,c),
(1057.392,439.732,o),
(769,605.739,o),
(601.837,701.882,cs),
(481.993,770.66,o),
(329.51,719.307,o),
(268.974,546.503,c),
(260.536,524.627,l),
(205.673,546.405,l),
(214.046,568.281,l),
(286.268,768.569,o),
(473.797,841.464,o),
(628.634,753.203,cs),
(833.549,636.163,o),
(1214.627,415.778,o),
(1214.627,415.778,c),
(1217.281,367.68,l),
(1215.15,365.614,o),
(1126.987,302.686,o),
(990.654,230.235,c),
(1119.634,120.882,l),
(1167.15,81.497,o),
(1227.817,60,o),
(1290.288,60,cs),
(1386.673,60,l),
(1386.673,0,l),
(1290.288,0,l),
(1213.523,0,o),
(1138.889,28.242,o),
(1082.719,78.203,cs),
(939.824,201.216,l),
(749.392,104.216,o),
(483.353,0,o),
(217.608,0,cs),
(0,0,l),
(-80.392,5.621,o),
(-80.392,54.314,o)
);
}
);
width = 1387;
},
{
anchors = (
{
name = "top-arab";
pos = (652,972);
},
{
name = "bottom-arab";
pos = (652,0);
}
);
layerId = m001;
shapes = (
{
closed = 1;
nodes = (
(0,340,c),
(212.118,340,l),
(483.961,340,o),
(738.451,399.176,o),
(919,475.098,c),
(782.882,533.98,o),
(629,602.078,o),
(529.549,644.235,cs),
(439.902,681.902,o),
(392.647,597.608,o),
(380.608,567.549,c),
(352.039,505.412,l),
(61.098,636.078,l),
(88.686,698.216,l),
(192.02,930.529,o),
(428.961,1029.961,o),
(651.51,938.039,cs),
(869.235,848.451,o),
(1195.412,664.667,o),
(1195.412,664.667,c),
(1207.216,405.196,l),
(1203.255,402.216,o),
(1182.804,382.294,o),
(1139.804,345.529,c),
(1142.51,343.235,l),
(1155.255,340.451,o),
(1169.255,340,o),
(1182.314,340,cs),
(1382.098,340,l),
(1382.098,0,l),
(1182.314,0,l),
(1080.843,0,o),
(983.333,45.627,o),
(952.784,123.039,c),
(923.353,190.235,l),
(754.882,93.235,o),
(516.294,0,o),
(212.118,0,cs),
(0,0,l),
(-85.882,84.314,o),
(-85.882,254.706,o)
);
}
);
width = 1382;
}
);
unicode = 65188;
},
{
glyphname = "dal-arab";
layers = (
{
anchors = (
{
name = "top-arab";
pos = (466,894);
},
{
name = "bottom-arab";
pos = (481,0);
}
);
layerId = m007;
shapes = (
{
closed = 1;
nodes = (
(612.444,0,cs),
(93.039,0,l),
(93.039,58.562,l),
(612.444,58.562,l),
(790.294,58.562,o),
(880.588,262.039,o),
(778.882,395.111,cs),
(423.484,862.556,l),
(470.19,897.863,l),
(825.654,430.353,l),
(962.575,249.19,o),
(826.654,0,o)
);
}
);
width = 1037;
},
{
anchors = (
{
name = "top-arab";
pos = (512,1075);
},
{
name = "bottom-arab";
pos = (500,0);
}
);
layerId = m001;
shapes = (
{
closed = 1;
nodes = (
(674.667,0,cs),
(65.588,0,l),
(65.588,318.431,l),
(674.667,318.431,l),
(724.412,318.431,o),
(748.824,374.588,o),
(721.235,410.667,cs),
(318.255,940.333,l),
(570.843,1133.941,l),
(974.804,603.294,l),
(1166.627,349.843,o),
(975.804,0,o)
);
}
);
width = 1155;
}
);
unicode = (1583,65193);
},
{
glyphname = "dal-arab.fina";
layers = (
{
anchors = (
{
name = "top-arab";
pos = (512,891);
},
{
name = "bottom-arab";
pos = (481,0);
}
);
layerId = m007;
shapes = (
{
closed = 1;
nodes = (
(93.039,0,l),
(93.039,58.562,l),
(555.451,58.562,l),
(718.02,58.562,o),
(813.052,232.477,o),
(738.974,367.549,cs),
(466.229,868.582,l),
(518.438,896.536,l),
(905.549,185.379,l),
(947.915,107.19,o),
(1028.124,60,o),
(1116.725,60,cs),
(1145.418,60,l),
(1145.418,0,l),
(1116.725,0,l),
(1008.614,0,o),
(911.418,57.935,o),
(859.046,151.065,cs),
(812.314,236.118,l),
(799.438,108.797,o),
(691.484,0,o),
(548.392,0,cs)
);
}
);
width = 1145;
},
{
anchors = (
{
name = "top-arab";
pos = (582,1050);
},
{
name = "bottom-arab";
pos = (500,0);
}
);
layerId = m001;
shapes = (
{
closed = 1;
nodes = (
(65.588,0,l),
(65.588,318.431,l),
(659.765,318.431,l),
(704.294,318.431,o),
(729.784,365.157,o),
(710.608,403.235,c),
(399.431,974.725,l),
(678.569,1128.039,l),
(1081.235,386.686,l),
(1100.725,347.843,o),
(1127.863,340,o),
(1168.882,340,cs),
(1179.275,340,l),
(1179.275,0,l),
(1168.882,0,l),
(1045.216,0,o),
(945.275,57.02,o),
(873.686,151.98,c),
(872.706,153.765,l),
(819.569,63.961,o),
(726.255,0,o),
(553.882,0,cs)
);
}
);
width = 1179;
}
);
unicode = 65194;
},
{
glyphname = "reh-arab";
layers = (
{
anchors = (
{
name = "top-arab";
pos = (521,610);
},
{
name = "bottom-arab";
pos = (247,-477);
}
);
layerId = m007;
shapes = (
{
closed = 1;
nodes = (
(-0.719,-521.085,l),
(-0.719,-461.085,l),
(43.725,-461.085,l),
(290.863,-461.085,o),
(491.307,-240.51,o),
(491.307,6.627,cs),
(491.307,610.196,l),
(549.935,610.196,l),
(549.935,3.752,l),
(549.935,-274.863,o),
(323.124,-521.085,o),
(43.725,-521.085,cs)
);
}
);
width = 721;
},
{
anchors = (
{
name = "top-arab";
pos = (530,753);
},
{
name = "bottom-arab";
pos = (201,-500);
}
);
layerId = m001;
shapes = (
{
closed = 1;
nodes = (
(-10.784,-508.275,l),
(-10.784,-168.275,l),
(95.882,-168.275,l),
(246.941,-168.275,o),
(369.608,-23.647,o),
(369.608,127.412,cs),
(369.608,752.941,l),
(689.02,752.941,l),
(689.02,84.275,l),
(689.02,-230.941,o),
(422.863,-508.275,o),
(95.882,-508.275,cs)
);
}
);
width = 808;
}
);
unicode = (1585,65197);
},
{
glyphname = "reh-arab.fina";
layers = (
{
anchors = (
{
name = "top-arab";
pos = (521,610);
},
{
name = "bottom-arab";
pos = (247,-477);
}
);
layerId = m007;
shapes = (
{
closed = 1;
nodes = (
(549.928,201.212,c),
(549.928,3.031,l),
(549.528,-275.283,o),
(322.875,-521.085,o),
(43.725,-521.085,cs),
(-0.719,-521.085,l),
(-0.719,-461.085,l),
(43.725,-461.085,l),
(290.863,-461.085,o),
(491.307,-240.51,o),
(491.307,6.627,cs),
(491.307,610.196,l),
(549.935,610.196,l),
(549.935,388.366,l),
(549.935,206.771,o),
(696.706,60,o),
(877.582,60,cs),
(896.993,60,l),
(896.993,0,l),
(877.582,0,l),
(734.961,0,o),
(611.454,81.671,o)
);
}
);
width = 897;
},
{
anchors = (
{
name = "top-arab";
pos = (530,753);
},
{
name = "bottom-arab";
pos = (201,-500);
}
);
layerId = m001;
shapes = (
{
closed = 1;
nodes = (
(688.923,78.141,c),
(688.913,73.469,l),
(682.921,-237.246,o),
(419.122,-508.275,o),
(95.882,-508.275,cs),
(-10.784,-508.275,l),
(-10.784,-168.275,l),
(95.882,-168.275,l),
(246.941,-168.275,o),
(369.608,-23.647,o),
(369.608,127.412,cs),
(369.608,752.941,l),
(689.02,752.941,l),
(689.02,505.49,l),
(689.02,413.569,o),
(762.588,340,o),
(843.725,340,cs),
(854.902,340,l),
(854.902,0,l),
(843.725,0,l),
(788.733,0,o),
(738.993,28.835,o)
);
}
);
width = 855;
}
);
unicode = 65198;
},
{
glyphname = "seen-arab";
layers = (
{
anchors = (
{
name = "top-arab";
pos = (1825,610);
},
{
name = "bottom-arab";
pos = (719,-549);
}
);
layerId = m007;
shapes = (
{
closed = 1;
nodes = (
(1516.307,0,l),
(1411.425,0,o),
(1315.935,66.013,o),
(1266.699,154.654,c),
(1266.699,-28.536,l),
(1264.216,-326.301,o),
(1048.732,-549.124,o),
(749.967,-549.124,cs),
(688.268,-549.124,l),
(370.373,-549.124,o),
(171.34,-305.32,o),
(171.34,-24.288,cs),
(171.34,381.111,l),
(229.902,381.111,l),
(229.902,-21.412,l),
(229.902,-268.549,o),
(400.216,-489.124,o),
(688.268,-489.124,cs),
(749.967,-489.124,l),
(1018.392,-489.124,o),
(1208.333,-290.046,o),
(1208.333,-21.412,cs),
(1208.333,610.196,l),
(1266.895,610.196,l),
(1266.895,328.758,l),
(1266.895,185.575,o),
(1374.059,60,o),
(1516.307,60,cs),
(1546.111,60,l),
(1698.575,60,o),
(1795.458,185.575,o),
(1795.458,328.758,cs),
(1795.458,610.196,l),
(1854.02,610.196,l),
(1854.02,328.758,l),
(1854.02,184.641,o),
(1950.902,60,o),
(2103.366,60,cs),
(2133.17,60,l),
(2285.699,60,o),
(2382.582,185.575,o),
(2382.582,328.758,cs),
(2382.582,631.765,l),
(2441.144,631.765,l),
(2441.144,327.32,l),
(2441.144,146.203,o),
(2314.157,0,o),
(2133.17,0,cs),
(2103.366,0,l),
(1974.477,0,o),
(1870.176,76.301,o),
(1824.739,196.752,c),
(1780.974,80.778,o),
(1679.542,0,o),
(1546.111,0,cs)
);
}
);
width = 2612;
},
{
anchors = (
{
name = "top-arab";
pos = (1820,753);
},
{
name = "bottom-arab";
pos = (777,-509);
}
);
layerId = m001;
shapes = (
{
closed = 1;
nodes = (
(1534.608,0,l),
(1487.373,0,o),
(1455.02,10.196,o),
(1430.49,23.804,c),
(1430.49,19.961,l),
(1393.235,-302.51,o),
(1142.98,-508.863,o),
(819.51,-508.863,cs),
(734.02,-508.863,l),
(389.588,-508.863,o),
(120.098,-267.804,o),
(120.098,83.686,cs),
(120.098,536.667,l),
(438.529,536.667,l),
(438.529,126.824,l),
(438.529,-24.235,o),
(529.235,-168.863,o),
(734.02,-168.863,cs),
(819.51,-168.863,l),
(1023.882,-168.863,o),
(1115,-24.686,o),
(1115,126.824,cs),
(1115,752.941,l),
(1433.431,752.941,l),
(1433.431,451.373,l),
(1433.431,389.627,o),
(1472.882,340,o),
(1534.608,340,cs),
(1561.667,340,l),
(1622.627,340,o),
(1661.863,389.627,o),
(1661.863,451.373,cs),
(1661.863,752.941,l),
(1980.294,752.941,l),
(1980.294,451.373,l),
(1980.294,389.608,o),
(2019.529,340,o),
(2080.49,340,cs),
(2107.549,340,l),
(2169.49,340,o),
(2208.725,389.627,o),
(2208.725,451.373,cs),
(2208.725,796.471,l),
(2527.157,796.471,l),
(2527.157,429.804,l),
(2527.157,191.039,o),
(2344.353,0,o),
(2107.549,0,cs),
(2080.49,0,l),
(1967.157,0,o),
(1886.647,52.51,o),
(1821.078,137.275,c),
(1752.608,49.667,o),
(1673.137,0,o),
(1561.667,0,cs)
);
}
);
width = 2647;
}
);
unicode = (1587,65201);
},
{
glyphname = "seen-arab.fina";
layers = (
{
anchors = (
{
name = "top-arab";
pos = (1825,610);
},
{
name = "bottom-arab";
pos = (719,-549);
}
);
layerId = m007;
shapes = (
{
closed = 1;
nodes = (
(2745,0,l),
(2709.902,0,l),
(2574.817,0,o),
(2460.235,82.778,o),
(2413.059,200.229,c),
(2370.621,82.778,o),
(2268.255,0,o),
(2133.17,0,cs),
(2103.366,0,l),
(1969.804,0,o),
(1868.307,80.974,o),
(1824.739,196.752,c),
(1781.17,80.974,o),
(1679.673,0,o),
(1546.111,0,cs),
(1516.307,0,l),
(1413.294,0,o),
(1317.804,62.275,o),
(1266.699,154.654,c),
(1266.699,-28.536,l),
(1264.739,-305.386,o),
(1068.516,-549.124,o),
(749.967,-549.124,cs),
(688.268,-549.124,l),
(367.954,-549.124,o),
(171.34,-302.902,o),
(171.34,-24.288,cs),
(171.34,381.111,l),
(229.902,381.111,l),
(229.902,-21.412,l),
(229.902,-268.549,o),
(400.216,-489.124,o),
(688.268,-489.124,cs),
(749.967,-489.124,l),
(1038.02,-489.124,o),
(1208.333,-268.549,o),
(1208.333,-21.412,cs),
(1208.333,610.196,l),
(1266.895,610.196,l),
(1266.895,328.758,l),
(1266.895,179.967,o),
(1387.144,60,o),
(1516.307,60,cs),
(1546.111,60,l),
(1693.902,60,o),
(1795.458,179.967,o),
(1795.458,328.758,cs),
(1795.458,610.196,l),
(1854.02,610.196,l),
(1854.02,328.758,l),
(1854.02,179.967,o),
(1954.641,60,o),
(2103.366,60,cs),
(2133.17,60,l),
(2281.961,60,o),
(2382.582,179.967,o),
(2382.582,328.758,cs),
(2382.582,610.196,l),
(2441.144,610.196,l),
(2441.144,328.758,l),
(2441.144,179.967,o),
(2561.111,60,o),
(2709.902,60,cs),
(2745,60,l)
);
}
);
width = 2745;
},
{
anchors = (
{
name = "top-arab";
pos = (1821,753);
},
{
name = "bottom-arab";
pos = (777,-509);
}
);
layerId = m001;
shapes = (
{
closed = 1;
nodes = (
(2745,0,l),
(2638.529,0,l),
(2516.255,0,o),
(2435.529,51.667,o),
(2371.882,133.431,c),
(2309.314,51.667,o),
(2229.824,0,o),
(2107.549,0,cs),
(2080.49,0,l),
(1967.059,0,o),
(1886.608,52.608,o),
(1821.078,137.275,c),
(1755.549,52.608,o),
(1675.098,0,o),
(1561.667,0,cs),
(1534.608,0,l),
(1487.412,0,o),
(1455.059,10.118,o),
(1430.49,23.804,c),
(1430.49,19.961,l),
(1401.078,-268.784,o),
(1173.745,-508.863,o),
(819.51,-508.863,cs),
(734.02,-508.863,l),
(353.314,-508.863,o),
(120.098,-231.529,o),
(120.098,83.686,cs),
(120.098,536.667,l),
(438.529,536.667,l),
(438.529,126.824,l),
(438.529,-24.235,o),
(529.235,-168.863,o),
(734.02,-168.863,cs),
(819.51,-168.863,l),
(1024.294,-168.863,o),
(1115,-24.235,o),
(1115,126.824,cs),
(1115,752.941,l),
(1433.431,752.941,l),
(1433.431,451.373,l),
(1433.431,389.51,o),
(1473.157,340,o),
(1534.608,340,cs),
(1561.667,340,l),
(1622.529,340,o),
(1661.863,389.51,o),
(1661.863,451.373,cs),
(1661.863,752.941,l),
(1980.294,752.941,l),
(1980.294,451.373,l),
(1980.294,389.51,o),
(2019.608,340,o),
(2080.49,340,cs),
(2107.549,340,l),
(2169.412,340,o),
(2208.725,389.51,o),
(2208.725,451.373,cs),
(2208.725,752.941,l),
(2527.157,752.941,l),
(2527.157,451.373,l),
(2527.157,389.51,o),
(2576.667,340,o),
(2638.529,340,cs),
(2745,340,l)
);
}
);
width = 2745;
}
);
unicode = 65202;
},
{
glyphname = "seen-arab.init";
layers = (
{
anchors = (
{
name = "top-arab";
pos = (920,610);
},
{
name = "bottom-arab";
pos = (920,0);
}
);
layerId = m007;
shapes = (
{
closed = 1;
nodes = (
(0,60,c),
(35.098,60,l),
(183.889,60,o),
(303.856,179.967,o),
(303.856,328.758,cs),
(303.856,610.196,l),
(362.418,610.196,l),
(362.418,328.758,l),
(362.418,179.967,o),
(481.732,60,o),
(611.83,60,cs),
(641.634,60,l),
(789.425,60,o),
(890.98,179.967,o),
(890.98,328.758,cs),
(890.98,610.196,l),
(949.542,610.196,l),
(949.542,328.758,l),
(949.542,179.967,o),
(1050.163,60,o),
(1198.889,60,cs),
(1228.693,60,l),
(1377.484,60,o),
(1478.105,179.967,o),
(1478.105,328.758,cs),
(1478.105,631.765,l),
(1536.667,631.765,l),
(1536.667,327.32,l),
(1536.667,146.268,o),
(1409.745,0,o),
(1228.693,0,cs),
(1198.889,0,l),
(1065.327,0,o),
(963.83,80.974,o),
(920.261,196.752,c),
(876.693,80.974,o),
(775.196,0,o),
(641.634,0,cs),
(611.83,0,l),
(489.895,0,o),
(379.183,83.647,o),
(333.007,202.902,c),
(286.699,83.647,o),
(171.987,0,o),
(35.098,0,cs),
(0,0,l),
(-80.392,5.621,o),
(-80.392,54.314,o)
);
}
);
width = 1708;
},
{
anchors = (
{
name = "top-arab";
pos = (923,753);
},
{
name = "bottom-arab";
pos = (924,0);
}
);
layerId = m001;
shapes = (
{
closed = 1;
nodes = (
(0,340,c),
(106.471,340,l),
(168.333,340,o),
(217.843,389.51,o),
(217.843,451.373,cs),
(217.843,752.941,l),
(536.275,752.941,l),
(536.275,451.373,l),
(536.275,389.51,o),
(575.98,340,o),
(637.451,340,cs),
(664.51,340,l),
(725.373,340,o),
(764.706,389.51,o),
(764.706,451.373,cs),
(764.706,752.941,l),
(1083.137,752.941,l),
(1083.137,451.373,l),
(1083.137,389.51,o),
(1122.451,340,o),
(1183.333,340,cs),
(1210.392,340,l),
(1272.255,340,o),
(1311.569,389.51,o),
(1311.569,451.373,cs),
(1311.569,796.471,l),
(1630,796.471,l),
(1630,429.804,l),
(1630,192.02,o),
(1448.176,0,o),
(1210.392,0,cs),
(1183.333,0,l),
(1069.902,0,o),
(989.451,52.608,o),
(923.922,137.275,c),
(858.392,52.608,o),
(777.941,0,o),
(664.51,0,cs),
(637.451,0,l),
(516.431,0,o),
(437.745,50.706,o),
(375.098,131.529,c),
(310.49,50.706,o),
(227.804,0,o),
(106.471,0,cs),
(0,0,l),
(-85.882,84.314,o),
(-85.882,254.706,o)
);
}
);
width = 1750;
}
);
unicode = 65203;
},
{
glyphname = "seen-arab.medi";
layers = (
{
anchors = (
{
name = "top-arab";
pos = (920,610);
},
{
name = "bottom-arab";
pos = (920,0);
}
);
layerId = m007;
shapes = (
{
closed = 1;
nodes = (
(0,60,c),
(35.098,60,l),
(183.889,60,o),
(303.856,179.967,o),
(303.856,328.758,cs),
(303.856,610.196,l),
(362.418,610.196,l),
(362.418,328.758,l),
(362.418,179.967,o),
(481.732,60,o),
(611.83,60,cs),
(641.634,60,l),
(789.425,60,o),
(890.98,179.967,o),
(890.98,328.758,cs),
(890.98,610.196,l),
(949.542,610.196,l),
(949.542,328.758,l),
(949.542,179.967,o),
(1050.163,60,o),
(1198.889,60,cs),
(1228.693,60,l),
(1377.484,60,o),
(1478.105,179.967,o),
(1478.105,328.758,cs),
(1478.105,610.196,l),
(1536.667,610.196,l),
(1536.667,328.758,l),
(1536.667,179.967,o),
(1656.634,60,o),
(1805.425,60,cs),
(1840.523,60,l),
(1840.523,0,l),
(1805.425,0,l),
(1670.405,0,o),
(1555.693,82.712,o),
(1508.451,200.098,c),
(1466.013,82.712,o),
(1363.712,0,o),
(1228.693,0,cs),
(1198.889,0,l),
(1065.327,0,o),
(963.83,80.974,o),
(920.261,196.752,c),
(876.693,80.974,o),
(775.196,0,o),
(641.634,0,cs),
(611.83,0,l),
(489.895,0,o),
(379.183,83.647,o),
(333.007,202.902,c),
(286.699,83.647,o),
(171.987,0,o),
(35.098,0,cs),
(0,0,l),
(-80.392,5.621,o),
(-80.392,54.314,o)
);
}
);
width = 1841;
},
{
anchors = (
{
name = "top-arab";
pos = (924,753);
},
{
name = "bottom-arab";
pos = (924,0);
}
);
layerId = m001;
shapes = (
{
closed = 1;
nodes = (
(0,340,c),
(106.471,340,l),
(168.333,340,o),
(217.843,389.51,o),
(217.843,451.373,cs),
(217.843,752.941,l),
(536.275,752.941,l),
(536.275,451.373,l),
(536.275,389.51,o),
(575.98,340,o),
(637.451,340,cs),
(664.51,340,l),
(725.373,340,o),
(764.706,389.51,o),
(764.706,451.373,cs),
(764.706,752.941,l),
(1083.137,752.941,l),
(1083.137,451.373,l),
(1083.137,389.51,o),
(1122.451,340,o),
(1183.333,340,cs),
(1210.392,340,l),
(1272.255,340,o),
(1311.569,389.51,o),
(1311.569,451.373,cs),
(1311.569,752.941,l),
(1630,752.941,l),
(1630,451.373,l),
(1630,389.51,o),
(1679.51,340,o),
(1741.373,340,cs),
(1847.843,340,l),
(1847.843,0,l),
(1741.373,0,l),
(1620.078,0,o),
(1537.392,50.686,o),
(1472.765,131.471,c),
(1410.196,50.686,o),
(1331.686,0,o),
(1210.392,0,cs),
(1183.333,0,l),
(1069.902,0,o),
(989.451,52.608,o),
(923.922,137.275,c),
(858.392,52.608,o),
(777.941,0,o),
(664.51,0,cs),
(637.451,0,l),
(516.431,0,o),
(437.745,50.706,o),
(375.098,131.529,c),
(310.49,50.706,o),
(227.804,0,o),
(106.471,0,cs),
(0,0,l),
(-85.882,84.314,o),
(-85.882,254.706,o)
);
}
);
width = 1848;
}
);
unicode = 65204;
},
{
glyphname = "sad-arab";
layers = (
{
anchors = (
{
name = "top-arab";
pos = (2101,762);
},
{
name = "bottom-arab";
pos = (719,-549);
}
);
layerId = m007;
shapes = (
{
closed = 1;
nodes = (
(2094.993,0,cs),
(1542.712,0,l),
(1424.588,0,o),
(1322.614,64.059,o),
(1266.83,157.876,c),
(1266.83,-26.248,l),
(1265.915,-304.013,o),
(1069.497,-549.124,o),
(749.967,-549.124,cs),
(688.268,-549.124,l),
(367.954,-549.124,o),
(171.34,-302.902,o),
(171.34,-24.288,cs),
(171.34,381.111,l),
(229.902,381.111,l),
(229.902,-21.412,l),
(229.902,-268.549,o),
(400.216,-489.124,o),
(688.268,-489.124,cs),
(749.967,-489.124,l),
(1038.02,-489.124,o),
(1208.333,-268.549,o),
(1208.333,-21.412,cs),
(1208.333,573.745,l),
(1266.895,573.745,l),
(1266.895,327.32,l),
(1266.895,186.817,o),
(1376.641,70.614,o),
(1515.556,62.026,c),
(1527.693,100.719,o),
(1719.647,748.052,o),
(2100.667,761.987,cs),
(2374.379,771.314,o),
(2506.791,590.275,o),
(2506.791,380.993,cs),
(2506.791,160.203,o),
(2333.654,0,o)
);
},
{
closed = 1;
nodes = (
(1576.118,60,c),
(2094.993,60,l),
(2298.216,60,o),
(2448.229,192.614,o),
(2448.229,380.993,cs),
(2448.229,565.66,o),
(2334.797,711.902,o),
(2103.255,703.425,cs),
(1785.196,691.882,o),
(1601.948,139.961,o)
);
}
);
width = 2663;
},
{
anchors = (
{
name = "top-arab";
pos = (2054,958);
},
{
name = "bottom-arab";
pos = (777,-509);
}
);
layerId = m001;
shapes = (
{
closed = 1;
nodes = (
(2052.902,0,cs),
(1650.686,0,l),
(1572.824,0,o),
(1499.216,22.882,o),
(1432.451,58.137,c),
(1432.451,54.275,l),
(1418.725,-248.196,o),
(1188.451,-508.863,o),
(819.51,-508.863,cs),
(734.02,-508.863,l),
(353.314,-508.863,o),
(120.098,-231.529,o),
(120.098,83.686,cs),
(120.098,536.667,l),
(438.529,536.667,l),
(438.529,126.824,l),
(438.529,-24.235,o),
(529.235,-168.863,o),
(734.02,-168.863,cs),
(819.51,-168.863,l),
(1024.294,-168.863,o),
(1115,-24.235,o),
(1115,126.824,cs),
(1115,752.176,l),
(1433.431,752.176,l),
(1433.431,429.804,l),
(1433.431,408.255,o),
(1441.608,387.216,o),
(1453.333,370.392,c),
(1509.392,530.784,o),
(1686.706,944.784,o),
(2054,957.804,cs),
(2435.686,971.706,o),
(2559.863,678.118,o),
(2559.863,478.902,cs),
(2559.863,205.039,o),
(2342.804,0,o)
);
},
{
closed = 1;
nodes = (
(1773.765,340,c),
(2052.902,340,l),
(2147.235,340,o),
(2241.431,369.216,o),
(2241.431,478.902,cs),
(2241.431,616.902,o),
(2149.961,640.529,o),
(2064.824,639.373,cs),
(1927.941,634.235,o),
(1825.216,447.412,o)
);
}
);
width = 2669;
}
);
unicode = (1589,65209);
},
{
glyphname = "sad-arab.fina";
layers = (
{
anchors = (
{
name = "top-arab";
pos = (2101,762);
},
{
name = "bottom-arab";
pos = (719,-549);
}
);
layerId = m007;
shapes = (
{
closed = 1;
nodes = (
(2094.993,0,cs),
(1542.712,0,l),
(1424.588,0,o),
(1322.614,64.059,o),
(1266.83,157.876,c),
(1266.83,-26.248,l),
(1265.915,-304.013,o),
(1069.497,-549.124,o),
(749.967,-549.124,cs),
(688.268,-549.124,l),
(367.954,-549.124,o),
(171.34,-302.902,o),
(171.34,-24.288,cs),
(171.34,381.111,l),
(229.902,381.111,l),
(229.902,-21.412,l),
(229.902,-268.549,o),
(400.216,-489.124,o),
(688.268,-489.124,cs),
(749.967,-489.124,l),
(1038.02,-489.124,o),
(1208.333,-268.549,o),
(1208.333,-21.412,cs),
(1208.333,573.745,l),
(1266.895,573.745,l),
(1266.895,327.32,l),
(1266.895,186.817,o),
(1376.641,70.614,o),
(1515.556,62.026,c),
(1527.693,100.719,o),
(1719.647,748.052,o),
(2100.667,761.987,cs),
(2374.379,771.314,o),
(2506.791,590.275,o),
(2506.791,380.993,cs),
(2506.791,312.758,o),
(2489.641,250.261,o),
(2459.078,197.242,c),
(2537.379,133.967,o),
(2628.98,60,o),
(2774.49,60,cs),
(2785.621,60,l),
(2785.621,0,l),
(2775.359,0,l),
(2610.732,0,o),
(2507.667,83.843,o),
(2427.797,150.059,c),
(2355.686,57.758,o),
(2237.078,0,o)
);
},
{
closed = 1;
nodes = (
(1576.118,60,c),
(2094.993,60,l),
(2298.216,60,o),
(2448.229,192.614,o),
(2448.229,380.993,cs),
(2448.229,565.66,o),
(2334.797,711.902,o),
(2103.255,703.425,cs),
(1785.196,691.882,o),
(1601.948,139.961,o)
);
}
);
width = 2786;
},
{
anchors = (
{
name = "top-arab";
pos = (2054,958);
},
{
name = "bottom-arab";
pos = (777,-509);
}
);
layerId = m001;
shapes = (
{
closed = 1;
nodes = (
(2052.902,0,cs),
(1650.686,0,l),
(1572.824,0,o),
(1499.216,22.882,o),
(1432.451,58.137,c),
(1432.451,54.275,l),
(1418.725,-248.196,o),
(1188.451,-508.863,o),
(819.51,-508.863,cs),
(734.02,-508.863,l),
(353.314,-508.863,o),
(120.098,-231.529,o),
(120.098,83.686,cs),
(120.098,536.667,l),
(438.529,536.667,l),
(438.529,126.824,l),
(438.529,-24.235,o),
(529.235,-168.863,o),
(734.02,-168.863,cs),
(819.51,-168.863,l),
(1024.294,-168.863,o),
(1115,-24.235,o),
(1115,126.824,cs),
(1115,752.176,l),
(1433.431,752.176,l),
(1433.431,429.804,l),
(1433.431,408.255,o),
(1441.608,387.216,o),
(1453.333,370.392,c),
(1509.392,530.784,o),
(1686.706,944.784,o),
(2054,957.804,cs),
(2435.686,971.706,o),
(2559.863,678.118,o),
(2559.863,478.902,cs),
(2559.863,435.373,o),
(2554.608,393.922,o),
(2544.176,354.627,c),
(2598.686,343.51,o),
(2642.706,340,o),
(2711.353,340,cs),
(2724.314,340,l),
(2724.314,0,l),
(2710.392,0,l),
(2564.98,0,o),
(2461,53.647,o),
(2382.961,108.882,c),
(2295.294,40.373,o),
(2182.176,0,o)
);
},
{
closed = 1;
nodes = (
(1773.765,340,c),
(2052.902,340,l),
(2147.235,340,o),
(2241.431,369.216,o),
(2241.431,478.902,cs),
(2241.431,616.902,o),
(2149.961,640.529,o),
(2064.824,639.373,cs),
(1927.941,634.235,o),
(1825.216,447.412,o)
);
}
);
width = 2724;
}
);
unicode = 65210;
},
{
glyphname = "sad-arab.init";
layers = (
{
anchors = (
{
name = "top-arab";
pos = (1193,762);
},
{
name = "bottom-arab";
pos = (533,0);
}
);
layerId = m007;
shapes = (
{
closed = 1;
nodes = (
(668.111,60,c),
(1186.987,60,l),
(1390.209,60,o),
(1540.222,192.614,o),
(1540.222,380.993,cs),
(1540.222,565.66,o),
(1426.791,711.902,o),
(1195.248,703.425,cs),
(877.19,691.882,o),
(693.941,139.961,o)
);
},
{
closed = 1;
nodes = (
(0,60,c),
(31.569,60,l),
(180.294,60,o),
(300.327,179.967,o),
(300.327,328.758,cs),
(300.327,610.196,l),
(358.889,610.196,l),
(358.889,327.32,l),
(358.889,186.817,o),
(468.634,70.614,o),
(607.549,62.026,c),
(619.686,100.719,o),
(811.641,748.052,o),
(1192.66,761.987,cs),
(1466.373,771.314,o),
(1598.784,590.275,o),
(1598.784,380.993,cs),
(1598.784,160.203,o),
(1425.647,0,o),
(1186.987,0,cs),
(627.647,0,l),
(490.693,0,o),
(375.98,83.712,o),
(329.608,203.098,c),
(283.235,83.712,o),
(168.523,0,o),
(31.569,0,cs),
(0,0,l),
(-80.392,5.621,o),
(-80.392,54.314,o)
);
}
);
width = 1755;
},
{
anchors = (
{
name = "top-arab";
pos = (1104,958);
},
{
name = "bottom-arab";
pos = (991,0);
}
);
layerId = m001;
shapes = (
{
closed = 1;
nodes = (
(823.667,340,c),
(1102.804,340,l),
(1197.137,340,o),
(1291.333,369.216,o),
(1291.333,478.902,cs),
(1291.333,616.902,o),
(1199.863,640.529,o),
(1114.725,639.373,cs),
(977.843,634.235,o),
(875.118,447.412,o)
);
},
{
closed = 1;
nodes = (
(0,340,c),
(53.529,340,l),
(114.412,340,o),
(164.902,389.51,o),
(164.902,451.373,cs),
(164.902,752.941,l),
(483.333,752.941,l),
(483.333,429.804,l),
(483.333,408.255,o),
(491.51,387.216,o),
(503.235,370.392,c),
(559.294,530.784,o),
(736.608,944.784,o),
(1103.902,957.804,cs),
(1485.588,971.706,o),
(1609.765,678.118,o),
(1609.765,478.902,cs),
(1609.765,205.039,o),
(1392.706,0,o),
(1102.804,0,cs),
(594.706,0,l),
(472.392,0,o),
(389.706,51.686,o),
(324.118,134.471,c),
(258.529,51.686,o),
(175.843,0,o),
(53.529,0,cs),
(0,0,l),
(-85.882,84.314,o),
(-85.882,254.706,o)
);
}
);
width = 1719;
}
);
unicode = 65211;
},
